  0
SECTION
  2
HEADER
  9
$ACADVER
  1
AC1015
  9
$ACADMAINTVER
 70
     6
  9
$DWGCODEPAGE
  3
ANSI_1252
  9
$INSBASE
 10
0.0
 20
0.0
 30
0.0
  9
$EXTMIN
 10
-1.5192815996
 20
-4.35882841
 30
0.0
  9
$EXTMAX
 10
8.44021313
 20
4.00271313
 30
0.0
  9
$LIMMIN
 10
0.0
 20
0.0
  9
$LIMMAX
 10
12.0
 20
9.0
  9
$ORTHOMODE
 70
     0
  9
$REGENMODE
 70
     1
  9
$FILLMODE
 70
     1
  9
$QTEXTMODE
 70
     0
  9
$MIRRTEXT
 70
     1
  9
$LTSCALE
 40
1.0
  9
$ATTMODE
 70
     1
  9
$TEXTSIZE
 40
0.1377952756
  9
$TRACEWID
 40
0.05
  9
$TEXTSTYLE
  7
Standard
  9
$CLAYER
  8
0
  9
$CELTYPE
  6
ByLayer
  9
$CECOLOR
 62
   256
  9
$CELTSCALE
 40
1.0
  9
$DISPSILH
 70
     0
  9
$DIMSCALE
 40
1.0
  9
$DIMASZ
 40
0.13
  9
$DIMEXO
 40
0.0393700787
  9
$DIMDLI
 40
0.38
  9
$DIMRND
 40
0.0
  9
$DIMDLE
 40
0.0
  9
$DIMEXE
 40
0.0393700787
  9
$DIMTP
 40
0.0
  9
$DIMTM
 40
0.0
  9
$DIMTXT
 40
0.1377952756
  9
$DIMCEN
 40
0.09
  9
$DIMTSZ
 40
0.0
  9
$DIMTOL
 70
     0
  9
$DIMLIM
 70
     0
  9
$DIMTIH
 70
     1
  9
$DIMTOH
 70
     1
  9
$DIMSE1
 70
     0
  9
$DIMSE2
 70
     0
  9
$DIMTAD
 70
     1
  9
$DIMZIN
 70
     0
  9
$DIMBLK
  1

  9
$DIMASO
 70
     1
  9
$DIMSHO
 70
     1
  9
$DIMPOST
  1

  9
$DIMAPOST
  1

  9
$DIMALT
 70
     0
  9
$DIMALTD
 70
     2
  9
$DIMALTF
 40
25.4
  9
$DIMLFAC
 40
1.0
  9
$DIMTOFL
 70
     0
  9
$DIMTVP
 40
0.0
  9
$DIMTIX
 70
     0
  9
$DIMSOXD
 70
     0
  9
$DIMSAH
 70
     0
  9
$DIMBLK1
  1

  9
$DIMBLK2
  1

  9
$DIMSTYLE
  2
Standard
  9
$DIMCLRD
 70
     0
  9
$DIMCLRE
 70
     0
  9
$DIMCLRT
 70
     0
  9
$DIMTFAC
 40
1.0
  9
$DIMGAP
 40
0.06
  9
$DIMJUST
 70
     0
  9
$DIMSD1
 70
     0
  9
$DIMSD2
 70
     0
  9
$DIMTOLJ
 70
     1
  9
$DIMTZIN
 70
     0
  9
$DIMALTZ
 70
     0
  9
$DIMALTTZ
 70
     0
  9
$DIMUPT
 70
     0
  9
$DIMDEC
 70
     2
  9
$DIMTDEC
 70
     2
  9
$DIMALTU
 70
     2
  9
$DIMALTTD
 70
     2
  9
$DIMTXSTY
  7
Standard
  9
$DIMAUNIT
 70
     0
  9
$DIMADEC
 70
     2
  9
$DIMALTRND
 40
0.0
  9
$DIMAZIN
 70
     0
  9
$DIMDSEP
 70
    46
  9
$DIMATFIT
 70
     3
  9
$DIMFRAC
 70
     0
  9
$DIMLDRBLK
  1

  9
$DIMLUNIT
 70
     2
  9
$DIMLWD
 70
    -2
  9
$DIMLWE
 70
    -2
  9
$DIMTMOVE
 70
     0
  9
$LUNITS
 70
     2
  9
$LUPREC
 70
     2
  9
$SKETCHINC
 40
0.1
  9
$FILLETRAD
 40
0.5
  9
$AUNITS
 70
     0
  9
$AUPREC
 70
     2
  9
$MENU
  1
.
  9
$ELEVATION
 40
0.0
  9
$PELEVATION
 40
0.0
  9
$THICKNESS
 40
0.0
  9
$LIMCHECK
 70
     0
  9
$CHAMFERA
 40
0.0
  9
$CHAMFERB
 40
0.0
  9
$CHAMFERC
 40
0.0
  9
$CHAMFERD
 40
0.0
  9
$SKPOLY
 70
     0
  9
$TDCREATE
 40
2457129.760587106
  9
$TDUCREATE
 40
2457129.927253773
  9
$TDUPDATE
 40
2457129.76061213
  9
$TDUUPDATE
 40
2457129.927278796
  9
$TDINDWG
 40
0.0000000116
  9
$TDUSRTIMER
 40
0.0000000116
  9
$USRTIMER
 70
     1
  9
$ANGBASE
 50
0.0
  9
$ANGDIR
 70
     0
  9
$PDMODE
 70
     0
  9
$PDSIZE
 40
-1.0
  9
$PLINEWID
 40
0.0
  9
$SPLFRAME
 70
     0
  9
$SPLINETYPE
 70
     6
  9
$SPLINESEGS
 70
     8
  9
$HANDSEED
  5
E6
  9
$SURFTAB1
 70
     6
  9
$SURFTAB2
 70
     6
  9
$SURFTYPE
 70
     6
  9
$SURFU
 70
     6
  9
$SURFV
 70
     6
  9
$UCSBASE
  2

  9
$UCSNAME
  2

  9
$UCSORG
 10
0.0
 20
0.0
 30
0.0
  9
$UCSXDIR
 10
1.0
 20
0.0
 30
0.0
  9
$UCSYDIR
 10
0.0
 20
1.0
 30
0.0
  9
$UCSORTHOREF
  2

  9
$UCSORTHOVIEW
 70
     0
  9
$UCSORGTOP
 10
0.0
 20
0.0
 30
0.0
  9
$UCSORGBOTTOM
 10
0.0
 20
0.0
 30
0.0
  9
$UCSORGLEFT
 10
0.0
 20
0.0
 30
0.0
  9
$UCSORGRIGHT
 10
0.0
 20
0.0
 30
0.0
  9
$UCSORGFRONT
 10
0.0
 20
0.0
 30
0.0
  9
$UCSORGBACK
 10
0.0
 20
0.0
 30
0.0
  9
$PUCSBASE
  2

  9
$PUCSNAME
  2

  9
$PUCSORG
 10
0.0
 20
0.0
 30
0.0
  9
$PUCSXDIR
 10
1.0
 20
0.0
 30
0.0
  9
$PUCSYDIR
 10
0.0
 20
1.0
 30
0.0
  9
$PUCSORTHOREF
  2

  9
$PUCSORTHOVIEW
 70
     0
  9
$PUCSORGTOP
 10
0.0
 20
0.0
 30
0.0
  9
$PUCSORGBOTTOM
 10
0.0
 20
0.0
 30
0.0
  9
$PUCSORGLEFT
 10
0.0
 20
0.0
 30
0.0
  9
$PUCSORGRIGHT
 10
0.0
 20
0.0
 30
0.0
  9
$PUCSORGFRONT
 10
0.0
 20
0.0
 30
0.0
  9
$PUCSORGBACK
 10
0.0
 20
0.0
 30
0.0
  9
$USERI1
 70
     0
  9
$USERI2
 70
     0
  9
$USERI3
 70
     0
  9
$USERI4
 70
     0
  9
$USERI5
 70
     0
  9
$USERR1
 40
0.0
  9
$USERR2
 40
0.0
  9
$USERR3
 40
0.0
  9
$USERR4
 40
0.0
  9
$USERR5
 40
0.0
  9
$WORLDVIEW
 70
     1
  9
$SHADEDGE
 70
     3
  9
$SHADEDIF
 70
    70
  9
$TILEMODE
 70
     1
  9
$MAXACTVP
 70
    64
  9
$PINSBASE
 10
0.0
 20
0.0
 30
0.0
  9
$PLIMCHECK
 70
     0
  9
$PEXTMIN
 10
1.0000000000E+20
 20
1.0000000000E+20
 30
1.0000000000E+20
  9
$PEXTMAX
 10
-1.0000000000E+20
 20
-1.0000000000E+20
 30
-1.0000000000E+20
  9
$PLIMMIN
 10
0.0
 20
0.0
  9
$PLIMMAX
 10
12.0
 20
9.0
  9
$UNITMODE
 70
     0
  9
$VISRETAIN
 70
     1
  9
$PLINEGEN
 70
     0
  9
$PSLTSCALE
 70
     1
  9
$TREEDEPTH
 70
  3020
  9
$CMLSTYLE
  2
Standard
  9
$CMLJUST
 70
     0
  9
$CMLSCALE
 40
1.0
  9
$PROXYGRAPHICS
 70
     1
  9
$MEASUREMENT
 70
     0
  9
$CELWEIGHT
370
    -1
  9
$ENDCAPS
280
     0
  9
$JOINSTYLE
280
     0
  9
$LWDISPLAY
290
     1
  9
$INSUNITS
 70
     1
  9
$HYPERLINKBASE
  1

  9
$STYLESHEET
  1

  9
$XEDIT
290
     1
  9
$CEPSNTYPE
380
     0
  9
$PSTYLEMODE
290
     1
  9
$FINGERPRINTGUID
  2
{A4689BCD-6F1C-4510-861E-4CAB3D105A21}
  9
$VERSIONGUID
  2
{FAEB1C32-E019-11D5-929B-00C0DF256EC4}
  9
$EXTNAMES
290
     1
  9
$PSVPSCALE
 40
0.0
  9
$OLESTARTUP
290
     0
  0
ENDSEC
  0
SECTION
  2
CLASSES
  0
CLASS
  1
ACDBDICTIONARYWDFLT
  2
AcDbDictionaryWithDefault
  3
ObjectDBX Classes
 90
        0
280
     0
281
     0
  0
CLASS
  1
VISUALSTYLE
  2
AcDbVisualStyle
  3
ObjectDBX Classes
 90
     4095
280
     0
281
     0
  0
CLASS
  1
MATERIAL
  2
AcDbMaterial
  3
ObjectDBX Classes
 90
     1153
280
     0
281
     0
  0
CLASS
  1
SCALE
  2
AcDbScale
  3
ObjectDBX Classes
 90
     1153
280
     0
281
     0
  0
CLASS
  1
SUN
  2
AcDbSun
  3
SCENEOE
 90
     1153
280
     0
281
     0
  0
CLASS
  1
ACDBPLACEHOLDER
  2
AcDbPlaceHolder
  3
ObjectDBX Classes
 90
        0
280
     0
281
     0
  0
CLASS
  1
LAYOUT
  2
AcDbLayout
  3
ObjectDBX Classes
 90
        0
280
     0
281
     0
  0
ENDSEC
  0
SECTION
  2
TABLES
  0
TABLE
  2
VPORT
  5
8
330
0
100
AcDbSymbolTable
 70
     1
  0
VPORT
  5
29
330
8
100
AcDbSymbolTableRecord
100
AcDbViewportTableRecord
  2
*Active
 70
     0
 10
0.0
 20
0.0
 11
1.0
 21
1.0
 12
3.4604657652
 22
-0.17805764
 13
0.0
 23
0.0
 14
0.5
 24
0.5
 15
0.5
 25
0.5
 16
0.0
 26
0.0
 36
1.0
 17
0.0
 27
0.0
 37
0.0
 40
8.5287723708
 41
1.1911074868
 42
50.0
 43
0.0
 44
0.0
 50
0.0
 51
0.0
 71
     0
 72
   100
 73
     1
 74
     3
 75
     0
 76
     0
 77
     0
 78
     0
281
     0
 65
     1
110
0.0
120
0.0
130
0.0
111
1.0
121
0.0
131
0.0
112
0.0
122
1.0
132
0.0
 79
     0
146
0.0
  0
ENDTAB
  0
TABLE
  2
LTYPE
  5
5
330
0
100
AcDbSymbolTable
 70
     6
  0
LTYPE
  5
14
330
5
100
AcDbSymbolTableRecord
100
AcDbLinetypeTableRecord
  2
ByBlock
 70
     0
  3

 72
    65
 73
     0
 40
0.0
  0
LTYPE
  5
15
330
5
100
AcDbSymbolTableRecord
100
AcDbLinetypeTableRecord
  2
ByLayer
 70
     0
  3

 72
    65
 73
     0
 40
0.0
  0
LTYPE
  5
16
330
5
100
AcDbSymbolTableRecord
100
AcDbLinetypeTableRecord
  2
Continuous
 70
     0
  3
Solid line
 72
    65
 73
     0
 40
0.0
  0
LTYPE
  5
6A
330
5
100
AcDbSymbolTableRecord
100
AcDbLinetypeTableRecord
  2
HIDDEN
 70
     0
  3
Hidden __ __ __ __ __ __ __ __ __ __ __ __ __ __
 72
    65
 73
     2
 40
0.075
 49
0.05
 74
     0
 49
-0.025
 74
     0
  0
LTYPE
  5
6B
330
5
100
AcDbSymbolTableRecord
100
AcDbLinetypeTableRecord
  2
PHANTOM
 70
     0
  3
Phantom ______  __  __  ______  __  __  ______
 72
    65
 73
     6
 40
0.5
 49
0.25
 74
     0
 49
-0.05
 74
     0
 49
0.05
 74
     0
 49
-0.05
 74
     0
 49
0.05
 74
     0
 49
-0.05
 74
     0
  0
LTYPE
  5
6C
330
5
100
AcDbSymbolTableRecord
100
AcDbLinetypeTableRecord
  2
CENTER
 70
     0
  3
Center ____ _ ____ _ ____ _ ____ _ ____ _ ____
 72
    65
 73
     4
 40
0.4
 49
0.25
 74
     0
 49
-0.05
 74
     0
 49
0.05
 74
     0
 49
-0.05
 74
     0
  0
LTYPE
  5
6D
330
5
100
AcDbSymbolTableRecord
100
AcDbLinetypeTableRecord
  2
CENTERX2
 70
     0
  3
Center (2x) ________  __  ________  __  _____
 72
    65
 73
     4
 40
0.8
 49
0.5
 74
     0
 49
-0.1
 74
     0
 49
0.1
 74
     0
 49
-0.1
 74
     0
  0
LTYPE
  5
6E
330
5
100
AcDbSymbolTableRecord
100
AcDbLinetypeTableRecord
  2
DOT2
 70
     0
  3
Dot (.5x) ........................................
 72
    65
 73
     2
 40
0.025
 49
0.0
 74
     0
 49
-0.025
 74
     0
  0
ENDTAB
  0
TABLE
  2
LAYER
  5
2
330
0
100
AcDbSymbolTable
 70
     1
  0
LAYER
  5
10
330
2
100
AcDbSymbolTableRecord
100
AcDbLayerTableRecord
  2
0
 70
     0
 62
     7
  6
Continuous
370
    -3
390
F
  0
ENDTAB
  0
TABLE
  2
STYLE
  5
3
330
0
100
AcDbSymbolTable
 70
     2
  0
STYLE
  5
11
330
3
100
AcDbSymbolTableRecord
100
AcDbTextStyleTableRecord
  2
Standard
 70
     0
 40
0.0
 41
1.0
 50
0.0
 71
     0
 42
0.1377952756
  3
txt
  4

  0
STYLE
  5
E3
330
3
100
AcDbSymbolTableRecord
100
AcDbTextStyleTableRecord
  2
SLDTEXTSTYLE0
 70
     0
 40
0.0
 41
0.7
 50
0.0
 71
     0
 42
0.1377952756
  3
TXT
  4

  0
ENDTAB
  0
TABLE
  2
VIEW
  5
6
330
0
100
AcDbSymbolTable
 70
     0
  0
ENDTAB
  0
TABLE
  2
UCS
  5
7
330
0
100
AcDbSymbolTable
 70
     0
  0
ENDTAB
  0
TABLE
  2
APPID
  5
9
330
0
100
AcDbSymbolTable
 70
     1
  0
APPID
  5
12
330
9
100
AcDbSymbolTableRecord
100
AcDbRegAppTableRecord
  2
ACAD
 70
     0
  0
ENDTAB
  0
TABLE
  2
DIMSTYLE
  5
A
330
0
100
AcDbSymbolTable
 70
     1
100
AcDbDimStyleTable
  0
DIMSTYLE
105
27
330
A
100
AcDbSymbolTableRecord
100
AcDbDimStyleTableRecord
  2
Standard
 70
     0
178
     0
340
11
  0
ENDTAB
  0
TABLE
  2
BLOCK_RECORD
  5
1
330
0
100
AcDbSymbolTable
 70
     1
  0
BLOCK_RECORD
  5
1F
330
1
100
AcDbSymbolTableRecord
100
AcDbBlockTableRecord
  2
*Model_Space
340
22
  0
BLOCK_RECORD
  5
1B
330
1
100
AcDbSymbolTableRecord
100
AcDbBlockTableRecord
  2
*Paper_Space
340
1E
  0
BLOCK_RECORD
  5
23
330
1
100
AcDbSymbolTableRecord
100
AcDbBlockTableRecord
  2
*Paper_Space0
340
26
  0
ENDTAB
  0
ENDSEC
  0
SECTION
  2
BLOCKS
  0
BLOCK
  5
20
330
1F
100
AcDbEntity
  8
0
100
AcDbBlockBegin
  2
*Model_Space
 70
     0
 10
0.0
 20
0.0
 30
0.0
  3
*Model_Space
  1
*Model_Space
  0
ENDBLK
  5
21
330
1F
100
AcDbEntity
  8
0
100
AcDbBlockEnd
  0
BLOCK
  5
1C
330
1B
100
AcDbEntity
 67
     1
  8
0
100
AcDbBlockBegin
  2
*Paper_Space
 70
     0
 10
0.0
 20
0.0
 30
0.0
  3
*Paper_Space
  1
*Paper_Space
  0
ENDBLK
  5
1D
330
1B
100
AcDbEntity
 67
     1
  8
0
100
AcDbBlockEnd
  0
BLOCK
  5
24
330
23
100
AcDbEntity
  8
0
100
AcDbBlockBegin
  2
*Paper_Space0
 70
     0
 10
0.0
 20
0.0
 30
0.0
  3
*Paper_Space0
  1
*Paper_Space0
  0
ENDBLK
  5
25
330
23
100
AcDbEntity
  8
0
100
AcDbBlockEnd
  0
ENDSEC
  0
SECTION
  2
ENTITIES
  0
LINE
  5
6F
330
1F
100
AcDbEntity
  8
0
  6
Continuous
 62
     7
370
    15
100
AcDbLine
 10
3.6865456923
 20
-1.2882549796
 30
0.0
 11
3.6865456923
 21
-1.1610708788
 31
0.0
  0
SPLINE
  5
70
330
1F
100
AcDbEntity
  8
0
  6
Continuous
 62
     7
370
    15
100
AcDbSpline
210
0.0
220
0.0
230
1.0
 70
     8
 71
     3
 72
    15
 73
    11
 74
     0
 42
0.000000001
 43
0.00000001
 40
0.0
 40
0.0
 40
0.0
 40
0.0
 40
0.1610817072965218
 40
0.3033429926458056
 40
0.426064538944183
 40
0.5374180775401954
 40
0.6415469414699344
 40
0.7492679107973625
 40
0.8661139667631033
 40
1.0
 40
1.0
 40
1.0
 40
1.0
 10
3.715490390708379
 20
-1.312016804840489
 30
0.0
 10
3.713141995566194
 20
-1.312056357016267
 30
0.0
 10
3.708719586452825
 20
-1.312130840181162
 30
0.0
 10
3.702567834393187
 20
-1.311159355112059
 30
0.0
 10
3.697312837759229
 20
-1.309467403614056
 30
0.0
 10
3.693136401495586
 20
-1.306771331305882
 30
0.0
 10
3.689822888032049
 20
-1.303349715041597
 30
0.0
 10
3.687684965233438
 20
-1.298999455910111
 30
0.0
 10
3.686496440281915
 20
-1.293869916194269
 30
0.0
 10
3.686528547610437
 20
-1.290209545798643
 30
0.0
 10
3.686545692296094
 20
-1.288254979576159
 30
0.0
  0
LINE
  5
71
330
1F
100
AcDbEntity
  8
0
  6
Continuous
 62
     7
370
    15
100
AcDbLine
 10
3.7511664143
 20
-1.3120168048
 30
0.0
 11
3.7154903907
 21
-1.3120168048
 31
0.0
  0
LINE
  5
72
330
1F
100
AcDbEntity
  8
0
  6
Continuous
 62
     7
370
    15
100
AcDbLine
 10
3.7665957758
 20
-1.4001498043
 30
0.0
 11
3.7511664143
 21
-1.3120168048
 31
0.0
  0
SPLINE
  5
73
330
1F
100
AcDbEntity
  8
0
  6
Continuous
 62
     7
370
    15
100
AcDbSpline
210
0.0
220
0.0
230
1.0
 70
     8
 71
     3
 72
    15
 73
    11
 74
     0
 42
0.000000001
 43
0.00000001
 40
0.0
 40
0.0
 40
0.0
 40
0.0
 40
0.1131413990551218
 40
0.2339983935075572
 40
0.3643432686570226
 40
0.5026932641545814
 40
0.6407587244893014
 40
0.7697687488975341
 40
0.8894961457476221
 40
1.0
 40
1.0
 40
1.0
 40
1.0
 10
3.652168953286634
 20
-1.417192096994078
 30
0.0
 10
3.656552496315199
 20
-1.41716707573503
 30
0.0
 10
3.6656185149001
 20
-1.417115326910376
 30
0.0
 10
3.67970984752339
 20
-1.416237503512627
 30
0.0
 10
3.694751644718636
 20
-1.415016818480168
 30
0.0
 10
3.710401926792093
 20
-1.413165494474553
 30
0.0
 10
3.725954173253802
 20
-1.410955766260596
 30
0.0
 10
3.740667609447557
 20
-1.408079645647693
 30
0.0
 10
3.754133655314695
 20
-1.404509496781324
 30
0.0
 10
3.762554183573715
 20
-1.401563696826153
 30
0.0
 10
3.766595775768548
 20
-1.400149804284006
 30
0.0
  0
SPLINE
  5
74
330
1F
100
AcDbEntity
  8
0
  6
Continuous
 62
     7
370
    15
100
AcDbSpline
210
0.0
220
0.0
230
1.0
 70
     8
 71
     3
 72
    23
 73
    19
 74
     0
 42
0.000000001
 43
0.00000001
 40
0.0
 40
0.0
 40
0.0
 40
0.0
 40
0.0666050165201147
 40
0.1301407779139375
 40
0.1905439192945094
 40
0.249057671589432
 40
0.3063845264604372
 40
0.3629392231565777
 40
0.4196813781466365
 40
0.4775451887055603
 40
0.5359027212615518
 40
0.5955735258282112
 40
0.6561983308578492
 40
0.718571077782415
 40
0.784314577290407
 40
0.8524542857583354
 40
0.9242472708969423
 40
1.0
 40
1.0
 40
1.0
 40
1.0
 10
3.5451432599653
 20
-1.325163716359687
 30
0.0
 10
3.545230646933433
 20
-1.328707549050624
 30
0.0
 10
3.545401393952299
 20
-1.335631909516116
 30
0.0
 10
3.546908290971852
 20
-1.345677418682657
 30
0.0
 10
3.549236162553544
 20
-1.355109625606882
 30
0.0
 10
3.552449892828249
 20
-1.363938523114319
 30
0.0
 10
3.556587508057235
 20
-1.372135889451121
 30
0.0
 10
3.561428023495656
 20
-1.379837822462103
 30
0.0
 10
3.567366829594811
 20
-1.386773944374762
 30
0.0
 10
3.574085455258488
 20
-1.393074265118492
 30
0.0
 10
3.581514149277565
 20
-1.398791763287809
 30
0.0
 10
3.589718765877683
 20
-1.403624310978106
 30
0.0
 10
3.59854296949152
 20
-1.407716107058999
 30
0.0
 10
3.607986108603106
 20
-1.411148557337753
 30
0.0
 10
3.61807364535131
 20
-1.41389189266828
 30
0.0
 10
3.628877939664346
 20
-1.415670187838135
 30
0.0
 10
3.640294160024882
 20
-1.416871715517374
 30
0.0
 10
3.648140497093038
 20
-1.417083409397107
 30
0.0
 10
3.652168953286634
 20
-1.417192096994078
 30
0.0
  0
LINE
  5
75
330
1F
100
AcDbEntity
  8
0
  6
Continuous
 62
     7
370
    15
100
AcDbLine
 10
3.54514326
 20
-1.1610708788
 30
0.0
 11
3.54514326
 21
-1.3251637164
 31
0.0
  0
LINE
  5
76
330
1F
100
AcDbEntity
  8
0
  6
Continuous
 62
     7
370
    15
100
AcDbLine
 10
3.4879269957
 20
-1.1610708788
 30
0.0
 11
3.54514326
 21
-1.1610708788
 31
0.0
  0
LINE
  5
77
330
1F
100
AcDbEntity
  8
0
  6
Continuous
 62
     7
370
    15
100
AcDbLine
 10
3.4879269957
 20
-1.0784941233
 30
0.0
 11
3.4879269957
 21
-1.1610708788
 31
0.0
  0
LINE
  5
78
330
1F
100
AcDbEntity
  8
0
  6
Continuous
 62
     7
370
    15
100
AcDbLine
 10
3.5444701274
 20
-1.0757620307
 30
0.0
 11
3.4879269957
 21
-1.0784941233
 31
0.0
  0
LINE
  5
79
330
1F
100
AcDbEntity
  8
0
  6
Continuous
 62
     7
370
    15
100
AcDbLine
 10
3.5444701274
 20
-0.9882906564
 30
0.0
 11
3.5444701274
 21
-1.0757620307
 31
0.0
  0
LINE
  5
7A
330
1F
100
AcDbEntity
  8
0
  6
Continuous
 62
     7
370
    15
100
AcDbLine
 10
3.6865456923
 20
-0.9882906564
 30
0.0
 11
3.5444701274
 21
-0.9882906564
 31
0.0
  0
LINE
  5
7B
330
1F
100
AcDbEntity
  8
0
  6
Continuous
 62
     7
370
    15
100
AcDbLine
 10
3.6865456923
 20
-1.0757620307
 30
0.0
 11
3.6865456923
 21
-0.9882906564
 31
0.0
  0
LINE
  5
7C
330
1F
100
AcDbEntity
  8
0
  6
Continuous
 62
     7
370
    15
100
AcDbLine
 10
3.7679947274
 20
-1.0757620307
 30
0.0
 11
3.6865456923
 21
-1.0757620307
 31
0.0
  0
LINE
  5
7D
330
1F
100
AcDbEntity
  8
0
  6
Continuous
 62
     7
370
    15
100
AcDbLine
 10
3.7679947274
 20
-1.1610708788
 30
0.0
 11
3.7679947274
 21
-1.0757620307
 31
0.0
  0
LINE
  5
7E
330
1F
100
AcDbEntity
  8
0
  6
Continuous
 62
     7
370
    15
100
AcDbLine
 10
3.6865456923
 20
-1.1610708788
 30
0.0
 11
3.7679947274
 21
-1.1610708788
 31
0.0
  0
LINE
  5
7F
330
1F
100
AcDbEntity
  8
0
  6
Continuous
 62
     7
370
    15
100
AcDbLine
 10
3.4642428688
 20
-1.1986187016
 30
0.0
 11
3.4763592542
 21
-1.0693772575
 31
0.0
  0
LINE
  5
80
330
1F
100
AcDbEntity
  8
0
  6
Continuous
 62
     7
370
    15
100
AcDbLine
 10
3.4284766884
 20
-1.1986612122
 30
0.0
 11
3.4642428688
 21
-1.1986187016
 31
0.0
  0
SPLINE
  5
81
330
1F
100
AcDbEntity
  8
0
  6
Continuous
 62
     7
370
    15
100
AcDbSpline
210
0.0
220
0.0
230
1.0
 70
     8
 71
     3
 72
    13
 73
     9
 74
     0
 42
0.000000001
 43
0.00000001
 40
0.0
 40
0.0
 40
0.0
 40
0.0
 40
0.1638167213556063
 40
0.3160860452133603
 40
0.4529426631517325
 40
0.5781913519373332
 40
0.8018551993022989
 40
1.0
 40
1.0
 40
1.0
 40
1.0
 10
3.34375214749921
 20
-1.205214981815134
 30
0.0
 10
3.34836263019227
 20
-1.204662320805628
 30
0.0
 10
3.357258603868917
 20
-1.203595955715467
 30
0.0
 10
3.369991113790529
 20
-1.201926186251687
 30
0.0
 10
3.381696981954719
 20
-1.200930399490005
 30
0.0
 10
3.395415410531036
 20
-1.199753200548613
 30
0.0
 10
3.410902099688226
 20
-1.198827772876235
 30
0.0
 10
3.422859632176988
 20
-1.198714447045592
 30
0.0
 10
3.428476688400713
 20
-1.198661212186065
 30
0.0
  0
LINE
  5
82
330
1F
100
AcDbEntity
  8
0
  6
Continuous
 62
     7
370
    15
100
AcDbLine
 10
3.3437521475
 20
-1.4109595822
 30
0.0
 11
3.3437521475
 21
-1.2052149818
 31
0.0
  0
LINE
  5
83
330
1F
100
AcDbEntity
  8
0
  6
Continuous
 62
     7
370
    15
100
AcDbLine
 10
3.2023497152
 20
-1.4109595822
 30
0.0
 11
3.3437521475
 21
-1.4109595822
 31
0.0
  0
LINE
  5
84
330
1F
100
AcDbEntity
  8
0
  6
Continuous
 62
     7
370
    15
100
AcDbLine
 10
3.2023497152
 20
-1.0751776284
 30
0.0
 11
3.2023497152
 21
-1.4109595822
 31
0.0
  0
LINE
  5
85
330
1F
100
AcDbEntity
  8
0
  6
Continuous
 62
     7
370
    15
100
AcDbLine
 10
3.3127746421
 20
-1.0751776284
 30
0.0
 11
3.2023497152
 21
-1.0751776284
 31
0.0
  0
LINE
  5
86
330
1F
100
AcDbEntity
  8
0
  6
Continuous
 62
     7
370
    15
100
AcDbLine
 10
3.3255412404
 20
-1.1279600436
 30
0.0
 11
3.3127746421
 21
-1.0751776284
 31
0.0
  0
SPLINE
  5
87
330
1F
100
AcDbEntity
  8
0
  6
Continuous
 62
     7
370
    15
100
AcDbSpline
210
0.0
220
0.0
230
1.0
 70
     8
 71
     3
 72
    15
 73
    11
 74
     0
 42
0.000000001
 43
0.00000001
 40
0.0
 40
0.0
 40
0.0
 40
0.0
 40
0.1127956967522792
 40
0.226156726259116
 40
0.3420619921573292
 40
0.4615081719563499
 40
0.5863975183077574
 40
0.7171505083212317
 40
0.8549368921485859
 40
1.0
 40
1.0
 40
1.0
 40
1.0
 10
3.456838411063484
 20
-1.069377257482913
 30
0.0
 10
3.451299981165237
 20
-1.069517699248384
 30
0.0
 10
3.440195362722619
 20
-1.069799286674353
 30
0.0
 10
3.423625181850575
 20
-1.07273293850786
 30
0.0
 10
3.40706755013253
 20
-1.077133781706334
 30
0.0
 10
3.390647690453573
 20
-1.083752535007479
 30
0.0
 10
3.374115398288536
 20
-1.091879496515354
 30
0.0
 10
3.357753712477961
 20
-1.102162306098398
 30
0.0
 10
3.341325141612253
 20
-1.114107116090191
 30
0.0
 10
3.330892010102502
 20
-1.123263877308981
 30
0.0
 10
3.325541240431876
 20
-1.127960043571707
 30
0.0
  0
LINE
  5
88
330
1F
100
AcDbEntity
  8
0
  6
Continuous
 62
     7
370
    15
100
AcDbLine
 10
3.4763592542
 20
-1.0693772575
 30
0.0
 11
3.4568384111
 21
-1.0693772575
 31
0.0
  0
LINE
  5
89
330
1F
100
AcDbEntity
  8
0
  6
Continuous
 62
     7
370
    15
100
AcDbLine
 10
2.8084293873
 20
-1.0865716184
 30
0.0
 11
2.8211541407
 21
-1.1765459843
 31
0.0
  0
SPLINE
  5
8A
330
1F
100
AcDbEntity
  8
0
  6
Continuous
 62
     7
370
    15
100
AcDbSpline
210
0.0
220
0.0
230
1.0
 70
     8
 71
     3
 72
    15
 73
    11
 74
     0
 42
0.000000001
 43
0.00000001
 40
0.0
 40
0.0
 40
0.0
 40
0.0
 40
0.1127488565734723
 40
0.2345691665971367
 40
0.3644844809756856
 40
0.5035969031442497
 40
0.6418876220829955
 40
0.7709043565656126
 40
0.8902711519155517
 40
1.0
 40
1.0
 40
1.0
 40
1.0
 10
3.00271152423822
 20
-1.069626710238374
 30
0.0
 10
2.995374053144263
 20
-1.06967760907745
 30
0.0
 10
2.980108758827786
 20
-1.069783501931938
 30
0.0
 10
2.956412438084421
 20
-1.070885964081807
 30
0.0
 10
2.93101589096221
 20
-1.072275224189484
 30
0.0
 10
2.904596629804916
 20
-1.07444332798839
 30
0.0
 10
2.878262364674085
 20
-1.076887655045686
 30
0.0
 10
2.85325259444669
 20
-1.079669938244889
 30
0.0
 10
2.830162427776604
 20
-1.082849018399761
 30
0.0
 10
2.815467666900515
 20
-1.08536604850806
 30
0.0
 10
2.808429387343395
 20
-1.086571618418674
 30
0.0
  0
SPLINE
  5
8B
330
1F
100
AcDbEntity
  8
0
  6
Continuous
 62
     7
370
    15
100
AcDbSpline
210
0.0
220
0.0
230
1.0
 70
     8
 71
     3
 72
    23
 73
    19
 74
     0
 42
0.000000001
 43
0.00000001
 40
0.0
 40
0.0
 40
0.0
 40
0.0
 40
0.0780196927138899
 40
0.15075603551827
 40
0.2183545493457762
 40
0.2811202321509706
 40
0.3396788587097204
 40
0.3952593166207087
 40
0.4484969275687615
 40
0.5008375872449159
 40
0.5536604117574491
 40
0.6080406472449217
 40
0.6649467295630745
 40
0.7245000885570941
 40
0.7873248555513084
 40
0.8539612465443305
 40
0.9247564218134607
 40
1.0
 40
1.0
 40
1.0
 40
1.0
 10
3.150541145329796
 20
-1.204255306727314
 30
0.0
 10
3.150367441014442
 20
-1.19823012118763
 30
0.0
 10
3.150031795320075
 20
-1.186587764577027
 30
0.0
 10
3.148151122354978
 20
-1.169812849817473
 30
0.0
 10
3.145351234386598
 20
-1.15435911172566
 30
0.0
 10
3.141160657910745
 20
-1.140349091866869
 30
0.0
 10
3.135795360738937
 20
-1.127753326110833
 30
0.0
 10
3.12927945282009
 20
-1.116541345555578
 30
0.0
 10
3.121493443447871
 20
-1.106777076214858
 30
0.0
 10
3.112533018531822
 20
-1.098373300492561
 30
0.0
 10
3.102321109773217
 20
-1.091430330896014
 30
0.0
 10
3.09128169401257
 20
-1.08515569711342
 30
0.0
 10
3.079017017682009
 20
-1.080218886503843
 30
0.0
 10
3.065832188132425
 20
-1.075947212883826
 30
0.0
 10
3.051531948559929
 20
-1.072902692244534
 30
0.0
 10
3.036203861778898
 20
-1.07078365879195
 30
0.0
 10
3.019805222351493
 20
-1.06960237231432
 30
0.0
 10
3.008523967558651
 20
-1.069618434509906
 30
0.0
 10
3.00271152423822
 20
-1.069626710238374
 30
0.0
  0
LINE
  5
8C
330
1F
100
AcDbEntity
  8
0
  6
Continuous
 62
     7
370
    15
100
AcDbLine
 10
3.1505411453
 20
-1.4109595822
 30
0.0
 11
3.1505411453
 21
-1.2042553067
 31
0.0
  0
LINE
  5
8D
330
1F
100
AcDbEntity
  8
0
  6
Continuous
 62
     7
370
    15
100
AcDbLine
 10
3.0380916853
 20
-1.4109595822
 30
0.0
 11
3.1505411453
 21
-1.4109595822
 31
0.0
  0
LINE
  5
8E
330
1F
100
AcDbEntity
  8
0
  6
Continuous
 62
     7
370
    15
100
AcDbLine
 10
3.0252073506
 20
-1.3624619913
 30
0.0
 11
3.0380916853
 21
-1.4109595822
 31
0.0
  0
SPLINE
  5
8F
330
1F
100
AcDbEntity
  8
0
  6
Continuous
 62
     7
370
    15
100
AcDbSpline
210
0.0
220
0.0
230
1.0
 70
     8
 71
     3
 72
    15
 73
    11
 74
     0
 42
0.000000001
 43
0.00000001
 40
0.0
 40
0.0
 40
0.0
 40
0.0
 40
0.1546142633325307
 40
0.2974133392077242
 40
0.430761453766539
 40
0.5563842417335362
 40
0.6761922346278593
 40
0.7890551523582522
 40
0.8967831180567325
 40
1.0
 40
1.0
 40
1.0
 40
1.0
 10
2.905326994466378
 20
-1.41728948152385
 30
0.0
 10
2.91235440872105
 20
-1.416995897270259
 30
0.0
 10
2.925872221983745
 20
-1.416431163646611
 30
0.0
 10
2.945198006851146
 20
-1.41302672280441
 30
0.0
 10
2.962813894704436
 20
-1.408017815368879
 30
0.0
 10
2.978461957533335
 20
-1.400714600205065
 30
0.0
 10
2.992472384675499
 20
-1.392369205727323
 30
0.0
 10
3.004897882753864
 20
-1.383127752209126
 30
0.0
 10
3.015966605902384
 20
-1.373366703643155
 30
0.0
 10
3.022171332010121
 20
-1.366044701390384
 30
0.0
 10
3.025207350615516
 20
-1.362461991262303
 30
0.0
  0
SPLINE
  5
90
330
1F
100
AcDbEntity
  8
0
  6
Continuous
 62
     7
370
    15
100
AcDbSpline
210
0.0
220
0.0
230
1.0
 70
     8
 71
     3
 72
    23
 73
    19
 74
     0
 42
0.000000001
 43
0.00000001
 40
0.0
 40
0.0
 40
0.0
 40
0.0
 40
0.0668492532051999
 40
0.1303667148228813
 40
0.1907432850830363
 40
0.2492319308428232
 40
0.3066820470241865
 40
0.3639892257690395
 40
0.4220556734143102
 40
0.4817491794982309
 40
0.5428725863451234
 40
0.6036524397065464
 40
0.6658652743532426
 40
0.7286365837071274
 40
0.7931138415646706
 40
0.85964239664624
 40
0.9284784758755864
 40
1.0
 40
1.0
 40
1.0
 40
1.0
 10
2.790413154233524
 20
-1.32576029170662
 30
0.0
 10
2.790600984242844
 20
-1.329430752796639
 30
0.0
 10
2.790967282744116
 20
-1.336588737833843
 30
0.0
 10
2.792703374181489
 20
-1.346954956124504
 30
0.0
 10
2.795557932246202
 20
-1.356584432145232
 30
0.0
 10
2.799363408414668
 20
-1.365518762823328
 30
0.0
 10
2.804168734301947
 20
-1.373766330752288
 30
0.0
 10
2.809963076577833
 20
-1.381321253066463
 30
0.0
 10
2.816738591985931
 20
-1.38818552981273
 30
0.0
 10
2.824466727170619
 20
-1.39429355498439
 30
0.0
 10
2.832883979882233
 20
-1.399676759217731
 30
0.0
 10
2.841840841766824
 20
-1.40440506002078
 30
0.0
 10
2.851256072676174
 20
-1.408382147659629
 30
0.0
 10
2.861169583061868
 20
-1.411597335835349
 30
0.0
 10
2.871522297039783
 20
-1.414122441708715
 30
0.0
 10
2.88235314666075
 20
-1.41598786403938
 30
0.0
 10
2.89368457287009
 20
-1.417048331477229
 30
0.0
 10
2.901397000290093
 20
-1.41720807936271
 30
0.0
 10
2.905326994466378
 20
-1.41728948152385
 30
0.0
  0
LINE
  5
91
330
1F
100
AcDbEntity
  8
0
  6
Continuous
 62
     7
370
    15
100
AcDbLine
 10
2.7903158648
 20
-1.2925398989
 30
0.0
 11
2.7904131542
 21
-1.3257602917
 31
0.0
  0
SPLINE
  5
92
330
1F
100
AcDbEntity
  8
0
  6
Continuous
 62
     7
370
    15
100
AcDbSpline
210
0.0
220
0.0
230
1.0
 70
     8
 71
     3
 72
    23
 73
    19
 74
     0
 42
0.000000001
 43
0.00000001
 40
0.0
 40
0.0
 40
0.0
 40
0.0
 40
0.0797685951688702
 40
0.1552945787057628
 40
0.2265524513577374
 40
0.2944445546569117
 40
0.3595672912910323
 40
0.4219866261152495
 40
0.4827111693602076
 40
0.5415567348610248
 40
0.5988043253501406
 40
0.6546706329495259
 40
0.709576023280556
 40
0.7644917982645173
 40
0.820710834962477
 40
0.8777088634341039
 40
0.9376172175904849
 40
1.0
 40
1.0
 40
1.0
 40
1.0
 10
2.900679736232168
 20
-1.206062436448725
 30
0.0
 10
2.89648156614558
 20
-1.206184809012766
 30
0.0
 10
2.888308511905981
 20
-1.206423045573629
 30
0.0
 10
2.876411225809145
 20
-1.20743302229518
 30
0.0
 10
2.865258783764231
 20
-1.209321096999215
 30
0.0
 10
2.854776954992639
 20
-1.211790524770393
 30
0.0
 10
2.845042987710008
 20
-1.215162001546955
 30
0.0
 10
2.835893884522464
 20
-1.219006186364108
 30
0.0
 10
2.827511724516893
 20
-1.223691736586409
 30
0.0
 10
2.819892804260302
 20
-1.22906799255874
 30
0.0
 10
2.813041355347917
 20
-1.235007794510676
 30
0.0
 10
2.807028432423778
 20
-1.241535827766874
 30
0.0
 10
2.80209479844268
 20
-1.248749568549094
 30
0.0
 10
2.797765641620573
 20
-1.256372616503429
 30
0.0
 10
2.794680727420838
 20
-1.264695570644251
 30
0.0
 10
2.792127676053902
 20
-1.273457389478626
 30
0.0
 10
2.790711778507414
 20
-1.282821786204746
 30
0.0
 10
2.790449604309687
 20
-1.289257123970221
 30
0.0
 10
2.790315864805833
 20
-1.292539898886121
 30
0.0
  0
LINE
  5
93
330
1F
100
AcDbEntity
  8
0
  6
Continuous
 62
     7
370
    15
100
AcDbLine
 10
3.0091388081
 20
-1.2060624364
 30
0.0
 11
2.9006797362
 21
-1.2060624364
 31
0.0
  0
LINE
  5
94
330
1F
100
AcDbEntity
  8
0
  6
Continuous
 62
     7
370
    15
100
AcDbLine
 10
3.0090415187
 20
-1.2037252077
 30
0.0
 11
3.0091388081
 21
-1.2060624364
 31
0.0
  0
SPLINE
  5
95
330
1F
100
AcDbEntity
  8
0
  6
Continuous
 62
     7
370
    15
100
AcDbSpline
210
0.0
220
0.0
230
1.0
 70
     8
 71
     3
 72
    15
 73
    11
 74
     0
 42
0.000000001
 43
0.00000001
 40
0.0
 40
0.0
 40
0.0
 40
0.0
 40
0.1796853442514595
 40
0.3313606981017593
 40
0.4590194020914171
 40
0.5652722527422793
 40
0.6631216632167378
 40
0.7648865861960737
 40
0.8744095177601949
 40
1.0
 40
1.0
 40
1.0
 40
1.0
 10
2.967555708990585
 20
-1.173633388034701
 30
0.0
 10
2.971100062359935
 20
-1.173674673933354
 30
0.0
 10
2.977636262692132
 20
-1.173750809937971
 30
0.0
 10
2.986605087294755
 20
-1.175107879892463
 30
0.0
 10
2.993943706204653
 20
-1.177218982282864
 30
0.0
 10
2.999724376423009
 20
-1.180416197902959
 30
0.0
 10
3.004068503216748
 20
-1.184720168483151
 30
0.0
 10
3.006975818662669
 20
-1.190149939504386
 30
0.0
 10
3.00877925666795
 20
-1.196600985695458
 30
0.0
 10
3.008950203852292
 20
-1.201244684259842
 30
0.0
 10
3.009041518673389
 20
-1.2037252077342
 30
0.0
  0
SPLINE
  5
96
330
1F
100
AcDbEntity
  8
0
  6
Continuous
 62
     7
370
    15
100
AcDbSpline
210
0.0
220
0.0
230
1.0
 70
     8
 71
     3
 72
    13
 73
     9
 74
     0
 42
0.000000001
 43
0.00000001
 40
0.0
 40
0.0
 40
0.0
 40
0.0
 40
0.2850200846008072
 40
0.5517567878563807
 40
0.6767948365337345
 40
0.7931794208648546
 40
0.90091331038285
 40
1.0
 40
1.0
 40
1.0
 40
1.0
 10
2.821154140730116
 20
-1.17654598433235
 30
0.0
 10
2.835057305525289
 20
-1.17602121084811
 30
0.0
 10
2.861971779146214
 20
-1.175005326888836
 30
0.0
 10
2.895002586539012
 20
-1.174322294622828
 30
0.0
 10
2.919804245481768
 20
-1.173916915369009
 30
0.0
 10
2.936846736980505
 20
-1.173722107047902
 30
0.0
 10
2.95262327306137
 20
-1.173613929304279
 30
0.0
 10
2.962718930674788
 20
-1.173627085140397
 30
0.0
 10
2.967555708990585
 20
-1.173633388034701
 30
0.0
  0
LINE
  5
97
330
1F
100
AcDbEntity
  8
0
  6
Continuous
 62
     7
370
    15
100
AcDbLine
 10
1.7620326149
 20
-1.0359316629
 30
0.0
 11
1.7606692315
 21
-0.9380603056
 31
0.0
  0
SPLINE
  5
98
330
1F
100
AcDbEntity
  8
0
  6
Continuous
 62
     7
370
    15
100
AcDbSpline
210
0.0
220
0.0
230
1.0
 70
     8
 71
     3
 72
    11
 73
     7
 74
     0
 42
0.000000001
 43
0.00000001
 40
0.0
 40
0.0
 40
0.0
 40
0.0
 40
0.2446313448411966
 40
0.4912249400954516
 40
0.7425142702621585
 40
1.0
 40
1.0
 40
1.0
 40
1.0
 10
1.751904623848682
 20
-1.117442514356348
 30
0.0
 10
1.753640319080172
 20
-1.110942635387968
 30
0.0
 10
1.757125631997311
 20
-1.097890740264131
 30
0.0
 10
1.760334687896917
 20
-1.077707062589267
 30
0.0
 10
1.762180088023277
 20
-1.057002676028252
 30
0.0
 10
1.762082170153443
 20
-1.043012131173943
 30
0.0
 10
1.762032614944953
 20
-1.035931662937317
 30
0.0
  0
SPLINE
  5
99
330
1F
100
AcDbEntity
  8
0
  6
Continuous
 62
     7
370
    15
100
AcDbSpline
210
0.0
220
0.0
230
1.0
 70
     8
 71
     3
 72
    15
 73
    11
 74
     0
 42
0.000000001
 43
0.00000001
 40
0.0
 40
0.0
 40
0.0
 40
0.0
 40
0.1301789017273295
 40
0.2581472751103231
 40
0.3862614710585503
 40
0.514355170739372
 40
0.641440503986274
 40
0.7637960866755363
 40
0.8833196616785353
 40
1.0
 40
1.0
 40
1.0
 40
1.0
 10
1.867013138038999
 20
-1.068945018529971
 30
0.0
 10
1.861482792717062
 20
-1.069214891123375
 30
0.0
 10
1.850516011185386
 20
-1.06975005368574
 30
0.0
 10
1.834316454312199
 20
-1.072663120375942
 30
0.0
 10
1.818605363985045
 20
-1.077217154848066
 30
0.0
 10
1.803563913747458
 20
-1.083540462531076
 30
0.0
 10
1.789285488350465
 20
-1.090886513967048
 30
0.0
 10
1.775879898468784
 20
-1.099035387628703
 30
0.0
 10
1.763340220834755
 20
-1.107728838919593
 30
0.0
 10
1.755685776787696
 20
-1.114230710681293
 30
0.0
 10
1.751904623848682
 20
-1.117442514356348
 30
0.0
  0
SPLINE
  5
9A
330
1F
100
AcDbEntity
  8
0
  6
Continuous
 62
     7
370
    15
100
AcDbSpline
210
0.0
220
0.0
230
1.0
 70
     8
 71
     3
 72
    23
 73
    19
 74
     0
 42
0.000000001
 43
0.00000001
 40
0.0
 40
0.0
 40
0.0
 40
0.0
 40
0.0888680800882567
 40
0.1715223620593996
 40
0.2481903638498006
 40
0.3194106779147855
 40
0.3849362184221246
 40
0.4456559074567636
 40
0.501570447144188
 40
0.554096096156842
 40
0.6042835011640662
 40
0.6542666551703893
 40
0.7045511800009755
 40
0.7568892234102657
 40
0.8117122544864868
 40
0.8702330087141927
 40
0.932925543246154
 40
1.0
 40
1.0
 40
1.0
 40
1.0
 10
1.991762720676729
 20
-1.240244406398641
 30
0.0
 10
1.99176988307683
 20
-1.232971882698481
 30
0.0
 10
1.991783707070578
 20
-1.218935341772363
 30
0.0
 10
1.990638021031913
 20
-1.198643194598462
 30
0.0
 10
1.988439095670735
 20
-1.179904345568342
 30
0.0
 10
1.985704134943222
 20
-1.162637807304264
 30
0.0
 10
1.981598794024026
 20
-1.146993425154501
 30
0.0
 10
1.976974489704282
 20
-1.132803729225789
 30
0.0
 10
1.971172335170699
 20
-1.120202994431433
 30
0.0
 10
1.964460202084414
 20
-1.109054426972436
 30
0.0
 10
1.956545186459844
 20
-1.099330931422839
 30
0.0
 10
1.94743087691785
 20
-1.090981773011555
 30
0.0
 10
1.937015593621808
 20
-1.084029615466824
 30
0.0
 10
1.925483179351763
 20
-1.078189987685728
 30
0.0
 10
1.912544057783144
 20
-1.07401481870141
 30
0.0
 10
1.898471206881722
 20
-1.070861065720123
 30
0.0
 10
1.883124272538109
 20
-1.069147613888543
 30
0.0
 10
1.872503067141727
 20
-1.069014053653175
 30
0.0
 10
1.867013138038999
 20
-1.068945018529971
 30
0.0
  0
SPLINE
  5
9B
330
1F
100
AcDbEntity
  8
0
  6
Continuous
 62
     7
370
    15
100
AcDbSpline
210
0.0
220
0.0
230
1.0
 70
     8
 71
     3
 72
    31
 73
    27
 74
     0
 42
0.000000001
 43
0.00000001
 40
0.0
 40
0.0
 40
0.0
 40
0.0
 40
0.0469999689116774
 40
0.0920948828530452
 40
0.1349540698253209
 40
0.176317790000464
 40
0.2156489683278741
 40
0.2535519497090657
 40
0.2895185152633997
 40
0.3239658285014652
 40
0.3569988720866772
 40
0.3888814410412141
 40
0.419168232783769
 40
0.4487337848985074
 40
0.4771919896894968
 40
0.5052476536259775
 40
0.5326084503309444
 40
0.559724803809679
 40
0.6136095622549482
 40
0.6670943381574096
 40
0.7204201539143603
 40
0.7741553968827257
 40
0.8287876886193999
 40
0.8842845423895087
 40
0.9413664381273715
 40
0.9999999999999999
 40
0.9999999999999999
 40
0.9999999999999999
 40
0.9999999999999999
 10
1.81101703342019
 20
-1.417192096994078
 30
0.0
 10
1.815596147727023
 20
-1.417070848466115
 30
0.0
 10
1.824568770590902
 20
-1.416833265990268
 30
0.0
 10
1.83768262255269
 20
-1.415792080559576
 30
0.0
 10
1.850222437983364
 20
-1.414551061036212
 30
0.0
 10
1.862163307456668
 20
-1.412960990325644
 30
0.0
 10
1.873507376911265
 20
-1.410735294339726
 30
0.0
 10
1.884286029352659
 20
-1.408378268365437
 30
0.0
 10
1.89445796351898
 20
-1.405536863041737
 30
0.0
 10
1.90401673063103
 20
-1.402325207342967
 30
0.0
 10
1.91302426397491
 20
-1.398752024561132
 30
0.0
 10
1.921357079622635
 20
-1.394654474704036
 30
0.0
 10
1.929130197461133
 20
-1.390233253489574
 30
0.0
 10
1.936343233225658
 20
-1.385520158138775
 30
0.0
 10
1.942901174709756
 20
-1.380276444479602
 30
0.0
 10
1.948962475281635
 20
-1.374781056391222
 30
0.0
 10
1.954350603864053
 20
-1.368789778765809
 30
0.0
 10
1.960660978112221
 20
-1.360312895624842
 30
0.0
 10
1.967594547823464
 20
-1.349165500121681
 30
0.0
 10
1.97469935250695
 20
-1.335195427170371
 30
0.0
 10
1.980714210439086
 20
-1.320730800699261
 30
0.0
 10
1.985355126273679
 20
-1.305653491175707
 30
0.0
 10
1.988897220910438
 20
-1.290064234639297
 30
0.0
 10
1.99107955149782
 20
-1.273902404675996
 30
0.0
 10
1.992233896645223
 20
-1.257236368494579
 30
0.0
 10
1.991921177118775
 20
-1.245958801947542
 30
0.0
 10
1.991762720676729
 20
-1.240244406398641
 30
0.0
  0
SPLINE
  5
9C
330
1F
100
AcDbEntity
  8
0
  6
Continuous
 62
     7
370
    15
100
AcDbSpline
210
0.0
220
0.0
230
1.0
 70
     8
 71
     3
 72
    19
 73
    15
 74
     0
 42
0.000000001
 43
0.00000001
 40
0.0
 40
0.0
 40
0.0
 40
0.0
 40
0.0471786187260132
 40
0.0980883299945152
 40
0.1528159442843657
 40
0.2111333831175499
 40
0.27251134233771
 40
0.3380133373319268
 40
0.4077915088607451
 40
0.4808310689018345
 40
0.6260231109813211
 40
0.7609010853784695
 40
0.8855167035212472
 40
1.0
 40
1.0
 40
1.0
 40
1.0
 10
1.619266799197353
 20
-1.389575594229053
 30
0.0
 10
1.622077501993195
 20
-1.390796650354018
 30
0.0
 10
1.627921190316418
 20
-1.393335329089463
 30
0.0
 10
1.637297661159721
 20
-1.396612668851603
 30
0.0
 10
1.647523719330422
 20
-1.3995836236902
 30
0.0
 10
1.658493684141964
 20
-1.402412067540113
 30
0.0
 10
1.670251379965016
 20
-1.404957832206383
 30
0.0
 10
1.682833909214644
 20
-1.407151928970219
 30
0.0
 10
1.696205437264564
 20
-1.409212649795492
 30
0.0
 10
1.714774920825358
 20
-1.411460123362079
 30
0.0
 10
1.737596391200434
 20
-1.413710299546692
 30
0.0
 10
1.763793160380533
 20
-1.415806486021523
 30
0.0
 10
1.788054042627185
 20
-1.417059124487652
 30
0.0
 10
1.803582047155429
 20
-1.417149042987404
 30
0.0
 10
1.81101703342019
 20
-1.417192096994078
 30
0.0
  0
LINE
  5
9D
330
1F
100
AcDbEntity
  8
0
  6
Continuous
 62
     7
370
    15
100
AcDbLine
 10
1.6192667992
 20
-0.9380603056
 30
0.0
 11
1.6192667992
 21
-1.3895755942
 31
0.0
  0
LINE
  5
9E
330
1F
100
AcDbEntity
  8
0
  6
Continuous
 62
     7
370
    15
100
AcDbLine
 10
1.7606692315
 20
-0.9380603056
 30
0.0
 11
1.6192667992
 21
-0.9380603056
 31
0.0
  0
LINE
  5
9F
330
1F
100
AcDbEntity
  8
0
  6
Continuous
 62
     7
370
    15
100
AcDbLine
 10
1.0206609278
 20
-1.4109595822
 30
0.0
 11
1.1742805537
 21
-1.4109595822
 31
0.0
  0
LINE
  5
A0
330
1F
100
AcDbEntity
  8
0
  6
Continuous
 62
     7
370
    15
100
AcDbLine
 10
0.9905523701
 20
-1.2736473001
 30
0.0
 11
1.0206609278
 21
-1.4109595822
 31
0.0
  0
SPLINE
  5
A1
330
1F
100
AcDbEntity
  8
0
  6
Continuous
 62
     7
370
    15
100
AcDbSpline
210
0.0
220
0.0
230
1.0
 70
     8
 71
     3
 72
    15
 73
    11
 74
     0
 42
0.000000001
 43
0.00000001
 40
0.0
 40
0.0
 40
0.0
 40
0.0
 40
0.1491558844646422
 40
0.2781416841651773
 40
0.3926358986540696
 40
0.4922916768809074
 40
0.5934866315679893
 40
0.7088086505241313
 40
0.843609132509417
 40
1.0
 40
1.0
 40
1.0
 40
1.0
 10
0.9516511496338447
 20
-1.242094807566386
 30
0.0
 10
0.9544599797700447
 20
-1.242131391565907
 30
0.0
 10
0.9596978069427418
 20
-1.242199612375811
 30
0.0
 10
0.9670591983705599
 20
-1.243190821608706
 30
0.0
 10
0.9732242311991158
 20
-1.245215511220735
 30
0.0
 10
0.9784874287651689
 20
-1.248107067270915
 30
0.0
 10
0.982614619095118
 20
-1.25250483647984
 30
0.0
 10
0.986045328221559
 20
-1.258202105208398
 30
0.0
 10
0.9887002351312015
 20
-1.265422669306485
 30
0.0
 10
0.9899052107944983
 20
-1.270773510452408
 30
0.0
 10
0.9905523700924215
 20
-1.273647300110383
 30
0.0
  0
LINE
  5
A2
330
1F
100
AcDbEntity
  8
0
  6
Continuous
 62
     7
370
    15
100
AcDbLine
 10
0.9073859817
 20
-1.2420948076
 30
0.0
 11
0.9516511496
 21
-1.2420948076
 31
0.0
  0
LINE
  5
A3
330
1F
100
AcDbEntity
  8
0
  6
Continuous
 62
     7
370
    15
100
AcDbLine
 10
0.9073859817
 20
-1.4109595822
 30
0.0
 11
0.9073859817
 21
-1.2420948076
 31
0.0
  0
LINE
  5
A4
330
1F
100
AcDbEntity
  8
0
  6
Continuous
 62
     7
370
    15
100
AcDbLine
 10
0.764814935
 20
-1.4109595822
 30
0.0
 11
0.9073859817
 21
-1.4109595822
 31
0.0
  0
LINE
  5
A5
330
1F
100
AcDbEntity
  8
0
  6
Continuous
 62
     7
370
    15
100
AcDbLine
 10
0.7647176456
 20
-0.9454614348
 30
0.0
 11
0.764814935
 21
-1.4109595822
 31
0.0
  0
SPLINE
  5
A6
330
1F
100
AcDbEntity
  8
0
  6
Continuous
 62
     7
370
    15
100
AcDbSpline
210
0.0
220
0.0
230
1.0
 70
     8
 71
     3
 72
    13
 73
     9
 74
     0
 42
0.000000001
 43
0.00000001
 40
0.0
 40
0.0
 40
0.0
 40
0.0
 40
0.1622596940038439
 40
0.309590877322583
 40
0.4409998494635993
 40
0.5570091798598636
 40
0.7757621202174696
 40
1.0
 40
1.0
 40
1.0
 40
1.0
 10
0.9601683968036068
 20
-0.9387419022250183
 30
0.0
 10
0.9495858608468228
 20
-0.9387229239457916
 30
0.0
 10
0.9293944226016543
 20
-0.938686713461408
 30
0.0
 10
0.9006338270884455
 20
-0.9389303786331405
 30
0.0
 10
0.8748884559236558
 20
-0.9391357918773919
 30
0.0
 10
0.8444957104631284
 20
-0.9399462368918886
 30
0.0
 10
0.8080629552684626
 20
-0.9415509583598258
 30
0.0
 10
0.7792848551912895
 20
-0.9441472273098747
 30
0.0
 10
0.76471764555152
 20
-0.9454614347792755
 30
0.0
  0
SPLINE
  5
A7
330
1F
100
AcDbEntity
  8
0
  6
Continuous
 62
     7
370
    15
100
AcDbSpline
210
0.0
220
0.0
230
1.0
 70
     8
 71
     3
 72
    23
 73
    19
 74
     0
 42
0.000000001
 43
0.00000001
 40
0.0
 40
0.0
 40
0.0
 40
0.0
 40
0.0690130454519302
 40
0.1329052324213646
 40
0.1921981911297674
 40
0.2478857242067099
 40
0.3005935035573998
 40
0.35117112893114
 40
0.4009585799607456
 40
0.4510923659200078
 40
0.5032915877206994
 40
0.5593243714298849
 40
0.6198349470320392
 40
0.6848235634605138
 40
0.755089297933842
 40
0.8310766056594431
 40
0.9126435408365423
 40
1.0
 40
1.0
 40
1.0
 40
1.0
 10
1.156008686174781
 20
-1.08102070022168
 30
0.0
 10
1.155937049351903
 20
-1.074554320549586
 30
0.0
 10
1.155799091252356
 20
-1.062101375057665
 30
0.0
 10
1.15361841472863
 20
-1.044198016203307
 30
0.0
 10
1.150054301536003
 20
-1.027806974972026
 30
0.0
 10
1.145047077870202
 20
-1.01287957650423
 30
0.0
 10
1.13839189298441
 20
-0.9995049578305001
 30
0.0
 10
1.130218539749379
 20
-0.9876744542848097
 30
0.0
 10
1.120607743014899
 20
-0.977284771677419
 30
0.0
 10
1.109275073153895
 20
-0.9685592824192009
 30
0.0
 10
1.096414322898135
 20
-0.9611091502625648
 30
0.0
 10
1.081896364458998
 20
-0.9547821024900799
 30
0.0
 10
1.065668880241469
 20
-0.9496593648477767
 30
0.0
 10
1.047875193733807
 20
-0.9451776275808264
 30
0.0
 10
1.028313190545387
 20
-0.9421029995485832
 30
0.0
 10
1.007090798139267
 20
-0.9398590962100558
 30
0.0
 10
0.9841700688369839
 20
-0.938724823236401
 30
0.0
 10
0.9683496917987889
 20
-0.9387360806204275
 30
0.0
 10
0.9601683968036068
 20
-0.9387419022250183
 30
0.0
  0
SPLINE
  5
A8
330
1F
100
AcDbEntity
  8
0
  6
Continuous
 62
     7
370
    15
100
AcDbSpline
210
0.0
220
0.0
230
1.0
 70
     8
 71
     3
 72
    23
 73
    19
 74
     0
 42
0.000000001
 43
0.00000001
 40
0.0
 40
0.0
 40
0.0
 40
0.0
 40
0.0793613712314895
 40
0.1539613204983934
 40
0.223693537784245
 40
0.2893515040778754
 40
0.3515222547845369
 40
0.4111202636810375
 40
0.4688688583793578
 40
0.5257404750103942
 40
0.5824713936195414
 40
0.6389858949431229
 40
0.696203087462528
 40
0.7538747475996336
 40
0.8131530496326546
 40
0.8734178065339889
 40
0.9356313912838374
 40
1.0
 40
1.0
 40
1.0
 40
1.0
 10
1.061294242396957
 20
-1.191790372222758
 30
0.0
 10
1.065575292609724
 20
-1.191185798189802
 30
0.0
 10
1.073880544064554
 20
-1.190012922582836
 30
0.0
 10
1.085788307242222
 20
-1.187338598952201
 30
0.0
 10
1.096649535641749
 20
-1.183695585568402
 30
0.0
 10
1.106530289895798
 20
-1.179411856146212
 30
0.0
 10
1.11551533772102
 20
-1.174503470413219
 30
0.0
 10
1.123318418475101
 20
-1.168567061891915
 30
0.0
 10
1.130250417581049
 20
-1.162050272290571
 30
0.0
 10
1.13600289690864
 20
-1.154653630025229
 30
0.0
 10
1.140772678866001
 20
-1.146703570054679
 30
0.0
 10
1.145195675045923
 20
-1.138523931901162
 30
0.0
 10
1.148585900611141
 20
-1.129810395692789
 30
0.0
 10
1.151622294056992
 20
-1.120814865006466
 30
0.0
 10
1.153698175373428
 20
-1.111369852114657
 30
0.0
 10
1.155131342995241
 20
-1.101572991163787
 30
0.0
 10
1.156093403167853
 20
-1.091427313883552
 30
0.0
 10
1.156037243870881
 20
-1.08452872027295
 30
0.0
 10
1.156008686174781
 20
-1.08102070022168
 30
0.0
  0
LINE
  5
A9
330
1F
100
AcDbEntity
  8
0
  6
Continuous
 62
     7
370
    15
100
AcDbLine
 10
1.0612535387
 20
-1.1959344454
 30
0.0
 11
1.0612942424
 21
-1.1917903722
 31
0.0
  0
SPLINE
  5
AA
330
1F
100
AcDbEntity
  8
0
  6
Continuous
 62
     7
370
    15
100
AcDbSpline
210
0.0
220
0.0
230
1.0
 70
     8
 71
     3
 72
    19
 73
    15
 74
     0
 42
0.000000001
 43
0.00000001
 40
0.0
 40
0.0
 40
0.0
 40
0.0
 40
0.0897754751571635
 40
0.1743064961633888
 40
0.2531407285543387
 40
0.3272441412672417
 40
0.3975961477434836
 40
0.463217131225907
 40
0.5260328296876825
 40
0.5870103102125547
 40
0.7025814265553062
 40
0.8084596131353441
 40
0.9076035533458996
 40
1.0
 40
1.0
 40
1.0
 40
1.0
 10
1.137820318300372
 20
-1.268900660202724
 30
0.0
 10
1.136929618186349
 20
-1.265606766409592
 30
0.0
 10
1.13520025038589
 20
-1.259211399692678
 30
0.0
 10
1.132266057313604
 20
-1.250036584971487
 30
0.0
 10
1.128710366901013
 20
-1.241730367521635
 30
0.0
 10
1.124854414892727
 20
-1.234155820827161
 30
0.0
 10
1.120459783455699
 20
-1.227475016581326
 30
0.0
 10
1.115797480014184
 20
-1.221508636781549
 30
0.0
 10
1.110577774959374
 20
-1.216513642577121
 30
0.0
 10
1.103272732479509
 20
-1.211063520629833
 30
0.0
 10
1.093888562171811
 20
-1.20578428439244
 30
0.0
 10
1.08281803898675
 20
-1.200680255790696
 30
0.0
 10
1.071992236456317
 20
-1.197199679251296
 30
0.0
 10
1.064748039583799
 20
-1.19634616761825
 30
0.0
 10
1.061253538706779
 20
-1.195934445352453
 30
0.0
  0
LINE
  5
AB
330
1F
100
AcDbEntity
  8
0
  6
Continuous
 62
     7
370
    15
100
AcDbLine
 10
1.1742805537
 20
-1.4109595822
 30
0.0
 11
1.1378203183
 21
-1.2689006602
 31
0.0
  0
CIRCLE
  5
AC
330
1F
100
AcDbEntity
  8
0
  6
Continuous
 62
     7
370
    15
100
AcDbCircle
 10
0.0895468104
 20
-2.75
 30
0.0
 40
0.2525000000000005
  0
CIRCLE
  5
AD
330
1F
100
AcDbEntity
  8
0
  6
Continuous
 62
     7
370
    15
100
AcDbCircle
 10
4.4375
 20
0.0
 30
0.0
 40
1.13
  0
CIRCLE
  5
AE
330
1F
100
AcDbEntity
  8
0
  6
Continuous
 62
     7
370
    15
100
AcDbCircle
 10
0.0
 20
0.0
 30
0.0
 40
0.1978503937007871
  0
ARC
  5
AF
330
1F
100
AcDbEntity
  8
0
  6
Continuous
 62
     7
370
    15
100
AcDbCircle
 10
0.0
 20
0.0
 30
0.0
 40
1.002065664999958
100
AcDbArc
 50
132.5475812088
 51
169.1252147438
  0
LINE
  5
B0
330
1F
100
AcDbEntity
  8
0
  6
Continuous
 62
     7
370
    15
100
AcDbLine
 10
-0.9840704042
 20
0.1890529992
 30
0.0
 11
-1.4903899932
 21
-2.4464731488
 31
0.0
  0
ARC
  5
B1
330
1F
100
AcDbEntity
  8
0
  6
Continuous
 62
     7
370
    15
100
AcDbCircle
 10
0.0895468104
 20
-2.75
 30
0.0
 40
1.608828410000001
100
AcDbArc
 50
169.1252147438
 51
274.5818332315
  0
LINE
  5
B2
330
1F
100
AcDbEntity
  8
0
  6
Continuous
 62
     7
370
    15
100
AcDbLine
 10
0.2180646439
 20
-4.3536870079
 30
0.0
 11
4.7572482194
 21
-3.9899214876
 31
0.0
  0
ARC
  5
B3
330
1F
100
AcDbEntity
  8
0
  6
Continuous
 62
     7
370
    15
100
AcDbCircle
 10
4.4375
 20
0.0
 30
0.0
 40
4.00271313
100
AcDbArc
 50
274.5818332315
 51
132.5475812088
  0
LINE
  5
B4
330
1F
100
AcDbEntity
  8
0
  6
Continuous
 62
     7
370
    15
100
AcDbLine
 10
1.7308563929
 20
2.9488629648
 30
0.0
 11
-0.6775990529
 21
0.7382378481
 31
0.0
  0
LINE
  5
B5
330
1F
100
AcDbEntity
  8
0
  6
Continuous
 62
     7
370
    15
100
AcDbLine
 10
1.3879786361
 20
-1.0690424031
 30
0.0
 11
1.3880090688
 21
-1.0689451136
 31
0.0
  0
SPLINE
  5
B6
330
1F
100
AcDbEntity
  8
0
  6
Continuous
 62
     7
370
    15
100
AcDbSpline
210
0.0
220
0.0
230
1.0
 70
     8
 71
     3
 72
    23
 73
    19
 74
     0
 42
0.000000001
 43
0.00000001
 40
0.0
 40
0.0
 40
0.0
 40
0.0
 40
0.0774850984280999
 40
0.1493664452502403
 40
0.2159935029353924
 40
0.2778126305746155
 40
0.3353821294420409
 40
0.3893922469117944
 40
0.4408617420498069
 40
0.4906144041290312
 40
0.5408429356658786
 40
0.5935432753418463
 40
0.6494998727242939
 40
0.70941178001717
 40
0.7741668689503307
 40
0.8438650037248006
 40
0.9189392216335083
 40
1.0
 40
1.0
 40
1.0
 40
1.0
 10
1.573885703425755
 20
-1.24443194117883
 30
0.0
 10
1.573870542417536
 20
-1.236702025017068
 30
0.0
 10
1.573841316850944
 20
-1.221801223152099
 30
0.0
 10
1.571950274315042
 20
-1.200319423721807
 30
0.0
 10
1.568808677161688
 20
-1.180572760117481
 30
0.0
 10
1.564270863256607
 20
-1.162556111774852
 30
0.0
 10
1.558350187519533
 20
-1.146275488321857
 30
0.0
 10
1.55105918456913
 20
-1.13169269070831
 30
0.0
 10
1.54223860498298
 20
-1.11890464942163
 30
0.0
 10
1.531926582467923
 20
-1.107802239161803
 30
0.0
 10
1.520045859826217
 20
-1.098191278650677
 30
0.0
 10
1.506346138037406
 20
-1.090137211127652
 30
0.0
 10
1.490945591981496
 20
-1.083320871260792
 30
0.0
 10
1.473770545403559
 20
-1.077799416420399
 30
0.0
 10
1.454835704853075
 20
-1.07353935592806
 30
0.0
 10
1.434115362292782
 20
-1.070720170569768
 30
0.0
 10
1.411639978087813
 20
-1.069011408955705
 30
0.0
 10
1.396064812172352
 20
-1.069031810939365
 30
0.0
 10
1.387978636091308
 20
-1.069042403059743
 30
0.0
  0
SPLINE
  5
B7
330
1F
100
AcDbEntity
  8
0
  6
Continuous
 62
     7
370
    15
100
AcDbSpline
210
0.0
220
0.0
230
1.0
 70
     8
 71
     3
 72
    23
 73
    19
 74
     0
 42
0.000000001
 43
0.00000001
 40
0.0
 40
0.0
 40
0.0
 40
0.0
 40
0.0816491584065041
 40
0.1572683028780597
 40
0.227427151987655
 40
0.2925805270898024
 40
0.3528265659965707
 40
0.4090566016931442
 40
0.4621394670318566
 40
0.5123229322800359
 40
0.5621969517224954
 40
0.6135022282075617
 40
0.6673202466165489
 40
0.7243853336045859
 40
0.7857006061611637
 40
0.8518406825069796
 40
0.92326382514283
 40
1.0
 40
1.0
 40
1.0
 40
1.0
 10
1.387978636091308
 20
-1.417192096994078
 30
0.0
 10
1.396065136853106
 20
-1.417205493176795
 30
0.0
 10
1.41164092815151
 20
-1.41723129619745
 30
0.0
 10
1.43410752588286
 20
-1.41548555207743
 30
0.0
 10
1.45483110881895
 20
-1.412795086403803
 30
0.0
 10
1.473767240770089
 20
-1.4086288904644
 30
0.0
 10
1.490933553596973
 20
-1.403194736502948
 30
0.0
 10
1.506377486559682
 20
-1.396514391727012
 30
0.0
 10
1.519975568245712
 20
-1.388406692977714
 30
0.0
 10
1.531961484522647
 20
-1.379036230874549
 30
0.0
 10
1.542199575633824
 20
-1.368017981732859
 30
0.0
 10
1.551065879585805
 20
-1.355432328558412
 30
0.0
 10
1.55832687200929
 20
-1.341057624420776
 30
0.0
 10
1.564276745901982
 20
-1.325049173866369
 30
0.0
 10
1.568809095648202
 20
-1.307319616577084
 30
0.0
 10
1.571951807544286
 20
-1.287864457218989
 30
0.0
 10
1.573839021078632
 20
-1.266705963669784
 30
0.0
 10
1.573869775028461
 20
-1.252032019182959
 30
0.0
 10
1.573885703425755
 20
-1.24443194117883
 30
0.0
  0
SPLINE
  5
B8
330
1F
100
AcDbEntity
  8
0
  6
Continuous
 62
     7
370
    15
100
AcDbSpline
210
0.0
220
0.0
230
1.0
 70
     8
 71
     3
 72
    23
 73
    19
 74
     0
 42
0.000000001
 43
0.00000001
 40
0.0
 40
0.0
 40
0.0
 40
0.0
 40
0.0765814536262416
 40
0.1478605875652035
 40
0.2138673073286128
 40
0.2750589514340417
 40
0.3320089795138356
 40
0.3858687922820898
 40
0.4370706232208326
 40
0.4868440829247615
 40
0.5371833323714271
 40
0.5901591680558507
 40
0.6462758285372233
 40
0.7067121325811133
 40
0.7720536488442055
 40
0.8423952565416057
 40
0.9181882690378511
 40
1.0
 40
1.0
 40
1.0
 40
1.0
 10
1.201389877048459
 20
-1.24443194117883
 30
0.0
 10
1.201405731309358
 20
-1.25203205703708
 30
0.0
 10
1.201436342119431
 20
-1.266706074611215
 30
0.0
 10
1.203324547844306
 20
-1.287864061546893
 30
0.0
 10
1.206463893443525
 20
-1.307320939739705
 30
0.0
 10
1.211007490694485
 20
-1.325044754041249
 30
0.0
 10
1.216924692337525
 20
-1.341086545697833
 30
0.0
 10
1.224324510679624
 20
-1.355407350756626
 30
0.0
 10
1.233169980909009
 20
-1.368017147787077
 30
0.0
 10
1.243418156906319
 20
-1.379070003618412
 30
0.0
 10
1.255487275341036
 20
-1.388375079120571
 30
0.0
 10
1.269089208145886
 20
-1.396518126142918
 30
0.0
 10
1.284564080005262
 20
-1.403212726946629
 30
0.0
 10
1.301802804899936
 20
-1.408625333747641
 30
0.0
 10
1.320834506290391
 20
-1.412795480623164
 30
0.0
 10
1.341655389870619
 20
-1.415484941537624
 30
0.0
 10
1.364219066102258
 20
-1.417231255564658
 30
0.0
 10
1.379859681234818
 20
-1.417205477988217
 30
0.0
 10
1.387978636091308
 20
-1.417192096994078
 30
0.0
  0
SPLINE
  5
B9
330
1F
100
AcDbEntity
  8
0
  6
Continuous
 62
     7
370
    15
100
AcDbSpline
210
0.0
220
0.0
230
1.0
 70
     8
 71
     3
 72
    23
 73
    19
 74
     0
 42
0.000000001
 43
0.00000001
 40
0.0
 40
0.0
 40
0.0
 40
0.0
 40
0.0813211707575199
 40
0.1565614729168003
 40
0.2264346876022872
 40
0.2913704347168696
 40
0.3514653041911708
 40
0.4073042308750291
 40
0.4598937474117128
 40
0.5102696926487615
 40
0.5599177302372663
 40
0.6112789905695145
 40
0.6653231430604327
 40
0.7227715794711318
 40
0.784460708141944
 40
0.8509476562995426
 40
0.9226778443898842
 40
1.0
 40
1.0
 40
1.0
 40
1.0
 10
1.388009068756862
 20
-1.068945113632051
 30
0.0
 10
1.379880411876323
 20
-1.068975750062172
 30
0.0
 10
1.36423092623565
 20
-1.069034732053946
 30
0.0
 10
1.34164751235169
 20
-1.070715023414603
 30
0.0
 10
1.320829941982082
 20
-1.073540339473604
 30
0.0
 10
1.30179956659161
 20
-1.077802691019264
 30
0.0
 10
1.284551836657405
 20
-1.083302654093176
 30
0.0
 10
1.269120481969338
 20
-1.090133473594095
 30
0.0
 10
1.255417383266194
 20
-1.098222673893582
 30
0.0
 10
1.243452550693841
 20
-1.107768511429222
 30
0.0
 10
1.233131083562321
 20
-1.118905589091119
 30
0.0
 10
1.224331489442425
 20
-1.131717470323268
 30
0.0
 10
1.216900891711481
 20
-1.146246717069319
 30
0.0
 10
1.211013484742377
 20
-1.16256052713097
 30
0.0
 10
1.206464281643936
 20
-1.180571439836016
 30
0.0
 10
1.203326088960123
 20
-1.200319817943102
 30
0.0
 10
1.201434043370529
 20
-1.221801112232049
 30
0.0
 10
1.201404962825515
 20
-1.236701987130392
 30
0.0
 10
1.201389877048459
 20
-1.24443194117883
 30
0.0
  0
LINE
  5
BA
330
1F
100
AcDbEntity
  8
0
  6
Continuous
 62
     7
370
    15
100
AcDbLine
 10
2.2169157535
 20
-1.0690424031
 30
0.0
 11
2.2169461862
 21
-1.0689451136
 31
0.0
  0
SPLINE
  5
BB
330
1F
100
AcDbEntity
  8
0
  6
Continuous
 62
     7
370
    15
100
AcDbSpline
210
0.0
220
0.0
230
1.0
 70
     8
 71
     3
 72
    23
 73
    19
 74
     0
 42
0.000000001
 43
0.00000001
 40
0.0
 40
0.0
 40
0.0
 40
0.0
 40
0.0774850984281
 40
0.1493664452502404
 40
0.2159935029353924
 40
0.2778126305746154
 40
0.3353821294420408
 40
0.3893922469117942
 40
0.4408617420498073
 40
0.4906144041290317
 40
0.5408429356658784
 40
0.593543275341846
 40
0.6494998727242945
 40
0.7094117800171706
 40
0.7741668689503305
 40
0.8438650037248003
 40
0.9189392216335089
 40
0.9999999999999999
 40
0.9999999999999999
 40
0.9999999999999999
 40
0.9999999999999999
 10
2.402822820843673
 20
-1.24443194117883
 30
0.0
 10
2.402807659835455
 20
-1.236702025017068
 30
0.0
 10
2.402778434268863
 20
-1.221801223152099
 30
0.0
 10
2.40088739173296
 20
-1.200319423721807
 30
0.0
 10
2.397745794579607
 20
-1.180572760117481
 30
0.0
 10
2.393207980674526
 20
-1.162556111774852
 30
0.0
 10
2.387287304937452
 20
-1.146275488321857
 30
0.0
 10
2.379996301987049
 20
-1.13169269070831
 30
0.0
 10
2.371175722400898
 20
-1.118904649421629
 30
0.0
 10
2.360863699885843
 20
-1.107802239161804
 30
0.0
 10
2.348982977244135
 20
-1.098191278650676
 30
0.0
 10
2.335283255455325
 20
-1.090137211127652
 30
0.0
 10
2.319882709399415
 20
-1.083320871260792
 30
0.0
 10
2.302707662821478
 20
-1.0777994164204
 30
0.0
 10
2.283772822270994
 20
-1.07353935592806
 30
0.0
 10
2.263052479710702
 20
-1.070720170569768
 30
0.0
 10
2.240577095505731
 20
-1.069011408955705
 30
0.0
 10
2.225001929590271
 20
-1.069031810939365
 30
0.0
 10
2.216915753509227
 20
-1.069042403059743
 30
0.0
  0
SPLINE
  5
BC
330
1F
100
AcDbEntity
  8
0
  6
Continuous
 62
     7
370
    15
100
AcDbSpline
210
0.0
220
0.0
230
1.0
 70
     8
 71
     3
 72
    23
 73
    19
 74
     0
 42
0.000000001
 43
0.00000001
 40
0.0
 40
0.0
 40
0.0
 40
0.0
 40
0.0816491584065033
 40
0.1572683028780598
 40
0.2274271519876551
 40
0.2925805270898017
 40
0.35282656599657
 40
0.4090566016931444
 40
0.4621394670318568
 40
0.5123229322800354
 40
0.562196951722495
 40
0.6135022282075617
 40
0.6673202466165489
 40
0.724385333604586
 40
0.7857006061611636
 40
0.8518406825069795
 40
0.9232638251428301
 40
1.0
 40
1.0
 40
1.0
 40
1.0
 10
2.216915753509227
 20
-1.417192096994078
 30
0.0
 10
2.225002254271025
 20
-1.417205493176795
 30
0.0
 10
2.240578045569429
 20
-1.41723129619745
 30
0.0
 10
2.26304464330078
 20
-1.41548555207743
 30
0.0
 10
2.283768226236868
 20
-1.412795086403802
 30
0.0
 10
2.302704358188009
 20
-1.4086288904644
 30
0.0
 10
2.319870671014892
 20
-1.403194736502947
 30
0.0
 10
2.335314603977601
 20
-1.396514391727012
 30
0.0
 10
2.348912685663632
 20
-1.388406692977714
 30
0.0
 10
2.360898601940566
 20
-1.379036230874549
 30
0.0
 10
2.371136693051743
 20
-1.368017981732859
 30
0.0
 10
2.380002997003724
 20
-1.355432328558412
 30
0.0
 10
2.387263989427209
 20
-1.341057624420775
 30
0.0
 10
2.3932138633199
 20
-1.325049173866369
 30
0.0
 10
2.39774621306612
 20
-1.307319616577084
 30
0.0
 10
2.400888924962205
 20
-1.287864457218989
 30
0.0
 10
2.40277613849655
 20
-1.266705963669783
 30
0.0
 10
2.40280689244638
 20
-1.252032019182959
 30
0.0
 10
2.402822820843673
 20
-1.24443194117883
 30
0.0
  0
SPLINE
  5
BD
330
1F
100
AcDbEntity
  8
0
  6
Continuous
 62
     7
370
    15
100
AcDbSpline
210
0.0
220
0.0
230
1.0
 70
     8
 71
     3
 72
    23
 73
    19
 74
     0
 42
0.000000001
 43
0.00000001
 40
0.0
 40
0.0
 40
0.0
 40
0.0
 40
0.0765814536262416
 40
0.1478605875652035
 40
0.2138673073286127
 40
0.2750589514340418
 40
0.3320089795138353
 40
0.3858687922820896
 40
0.4370706232208321
 40
0.4868440829247617
 40
0.5371833323714266
 40
0.5901591680558501
 40
0.6462758285372227
 40
0.7067121325811135
 40
0.7720536488442047
 40
0.8423952565416057
 40
0.9181882690378502
 40
1.0
 40
1.0
 40
1.0
 40
1.0
 10
2.030326994466378
 20
-1.24443194117883
 30
0.0
 10
2.030342848727277
 20
-1.25203205703708
 30
0.0
 10
2.03037345953735
 20
-1.266706074611215
 30
0.0
 10
2.032261665262224
 20
-1.287864061546892
 30
0.0
 10
2.035401010861444
 20
-1.307320939739705
 30
0.0
 10
2.039944608112404
 20
-1.325044754041249
 30
0.0
 10
2.045861809755444
 20
-1.341086545697833
 30
0.0
 10
2.053261628097543
 20
-1.355407350756626
 30
0.0
 10
2.062107098326928
 20
-1.368017147787078
 30
0.0
 10
2.072355274324238
 20
-1.379070003618412
 30
0.0
 10
2.084424392758955
 20
-1.388375079120571
 30
0.0
 10
2.098026325563806
 20
-1.396518126142919
 30
0.0
 10
2.113501197423181
 20
-1.403212726946629
 30
0.0
 10
2.130739922317856
 20
-1.40862533374764
 30
0.0
 10
2.14977162370831
 20
-1.412795480623164
 30
0.0
 10
2.170592507288538
 20
-1.415484941537623
 30
0.0
 10
2.193156183520177
 20
-1.417231255564658
 30
0.0
 10
2.208796798652736
 20
-1.417205477988217
 30
0.0
 10
2.216915753509227
 20
-1.417192096994078
 30
0.0
  0
SPLINE
  5
BE
330
1F
100
AcDbEntity
  8
0
  6
Continuous
 62
     7
370
    15
100
AcDbSpline
210
0.0
220
0.0
230
1.0
 70
     8
 71
     3
 72
    23
 73
    19
 74
     0
 42
0.000000001
 43
0.00000001
 40
0.0
 40
0.0
 40
0.0
 40
0.0
 40
0.0813211707575207
 40
0.1565614729168002
 40
0.2264346876022879
 40
0.2913704347168695
 40
0.3514653041911714
 40
0.4073042308750297
 40
0.4598937474117134
 40
0.5102696926487614
 40
0.5599177302372668
 40
0.6112789905695147
 40
0.6653231430604332
 40
0.7227715794711318
 40
0.7844607081419442
 40
0.8509476562995426
 40
0.9226778443898842
 40
1.0
 40
1.0
 40
1.0
 40
1.0
 10
2.216946186174781
 20
-1.068945113632051
 30
0.0
 10
2.208817529294242
 20
-1.068975750062172
 30
0.0
 10
2.193168043653569
 20
-1.069034732053946
 30
0.0
 10
2.170584629769609
 20
-1.070715023414603
 30
0.0
 10
2.149767059400001
 20
-1.073540339473604
 30
0.0
 10
2.13073668400953
 20
-1.077802691019264
 30
0.0
 10
2.113488954075323
 20
-1.083302654093176
 30
0.0
 10
2.098057599387257
 20
-1.090133473594095
 30
0.0
 10
2.084354500684113
 20
-1.098222673893582
 30
0.0
 10
2.072389668111762
 20
-1.107768511429223
 30
0.0
 10
2.062068200980238
 20
-1.118905589091119
 30
0.0
 10
2.053268606860345
 20
-1.131717470323268
 30
0.0
 10
2.045838009129401
 20
-1.14624671706932
 30
0.0
 10
2.039950602160295
 20
-1.162560527130969
 30
0.0
 10
2.035401399061855
 20
-1.180571439836016
 30
0.0
 10
2.032263206378041
 20
-1.200319817943102
 30
0.0
 10
2.030371160788448
 20
-1.221801112232049
 30
0.0
 10
2.030342080243434
 20
-1.236701987130392
 30
0.0
 10
2.030326994466378
 20
-1.24443194117883
 30
0.0
  0
LINE
  5
BF
330
1F
100
AcDbEntity
  8
0
  6
Continuous
 62
     7
370
    15
100
AcDbLine
 10
2.7675278848
 20
-1.3890479679
 30
0.0
 11
2.7547509204
 21
-1.3012347016
 31
0.0
  0
SPLINE
  5
C0
330
1F
100
AcDbEntity
  8
0
  6
Continuous
 62
     7
370
    15
100
AcDbSpline
210
0.0
220
0.0
230
1.0
 70
     8
 71
     3
 72
    15
 73
    11
 74
     0
 42
0.000000001
 43
0.00000001
 40
0.0
 40
0.0
 40
0.0
 40
0.0
 40
0.1305022631384123
 40
0.2605753467102055
 40
0.3897728758053176
 40
0.5190414422356063
 40
0.6456023426796277
 40
0.7676993171286138
 40
0.8858058662481236
 40
1.0
 40
1.0
 40
1.0
 40
1.0
 10
2.620769398473056
 20
-1.417192096994078
 30
0.0
 10
2.627328528751022
 20
-1.417158732174599
 30
0.0
 10
2.640425218457358
 20
-1.417092112261699
 30
0.0
 10
2.659981374752346
 20
-1.415847096360228
 30
0.0
 10
2.679416448211438
 20
-1.413933387307215
 30
0.0
 10
2.698568468121296
 20
-1.411142100033003
 30
0.0
 10
2.71721610269381
 20
-1.407459280448281
 30
0.0
 10
2.734962767691718
 20
-1.402437396211135
 30
0.0
 10
2.75178545916553
 20
-1.396511997457454
 30
0.0
 10
2.762339661013885
 20
-1.391507884604091
 30
0.0
 10
2.767527884839222
 20
-1.389047967890016
 30
0.0
  0
SPLINE
  5
C1
330
1F
100
AcDbEntity
  8
0
  6
Continuous
 62
     7
370
    15
100
AcDbSpline
210
0.0
220
0.0
230
1.0
 70
     8
 71
     3
 72
    23
 73
    19
 74
     0
 42
0.000000001
 43
0.00000001
 40
0.0
 40
0.0
 40
0.0
 40
0.0
 40
0.0778749800312233
 40
0.1503030663264321
 40
0.2173190395512785
 40
0.2797033150013506
 40
0.3379004075368665
 40
0.3923668889833486
 40
0.4440504357788966
 40
0.4940405844214306
 40
0.5441015594855867
 40
0.5964450135450263
 40
0.6521287902238366
 40
0.7114760242979535
 40
0.7757235786415918
 40
0.8447129465261134
 40
0.9194633923757861
 40
0.9999999999999999
 40
0.9999999999999999
 40
0.9999999999999999
 40
0.9999999999999999
 10
2.441679248222639
 20
-1.242776404172709
 30
0.0
 10
2.4417139424294
 20
-1.250375331178719
 30
0.0
 10
2.441780904188593
 20
-1.26504168524181
 30
0.0
 10
2.443415197595038
 20
-1.286199957428701
 30
0.0
 10
2.446373093557171
 20
-1.305688798794786
 30
0.0
 10
2.450756233856746
 20
-1.323480822272087
 30
0.0
 10
2.456318565706249
 20
-1.339661717155285
 30
0.0
 10
2.463381805221425
 20
-1.354100218513981
 30
0.0
 10
2.471679741322033
 20
-1.366921541165609
 30
0.0
 10
2.481438575895366
 20
-1.378131882019625
 30
0.0
 10
2.492888847356575
 20
-1.387695411270171
 30
0.0
 10
2.505969465862428
 20
-1.395955248017798
 30
0.0
 10
2.520891328639844
 20
-1.402685015077534
 30
0.0
 10
2.537495540421117
 20
-1.408260926930482
 30
0.0
 10
2.555834864697514
 20
-1.412457526074042
 30
0.0
 10
2.575916694181332
 20
-1.415471884364248
 30
0.0
 10
2.597759331230857
 20
-1.417087481658718
 30
0.0
 10
2.612911184635384
 20
-1.417156369602789
 30
0.0
 10
2.620769398473056
 20
-1.417192096994078
 30
0.0
  0
SPLINE
  5
C2
330
1F
100
AcDbEntity
  8
0
  6
Continuous
 62
     7
370
    15
100
AcDbSpline
210
0.0
220
0.0
230
1.0
 70
     8
 71
     3
 72
    23
 73
    19
 74
     0
 42
0.000000001
 43
0.00000001
 40
0.0
 40
0.0
 40
0.0
 40
0.0
 40
0.0807271387357503
 40
0.156008610643089
 40
0.2254852048526869
 40
0.2896198073672613
 40
0.349492571873885
 40
0.4050784524617206
 40
0.4574353562798909
 40
0.5076626823560271
 40
0.5575361934377038
 40
0.6093114005783655
 40
0.6635317507317763
 40
0.7214248628459943
 40
0.7836994622455322
 40
0.8505976165614787
 40
0.9225940465146265
 40
1.0
 40
1.0
 40
1.0
 40
1.0
 10
2.622132781889862
 20
-1.069042403059743
 30
0.0
 10
2.614241438314763
 20
-1.069074624689653
 30
0.0
 10
2.59899108302485
 20
-1.06913689435254
 30
0.0
 10
2.577000928054221
 20
-1.070807805184635
 30
0.0
 10
2.556760317251277
 20
-1.073618487416907
 30
0.0
 10
2.538324072435967
 20
-1.077928412103129
 30
0.0
 10
2.521615154982458
 20
-1.083393991996553
 30
0.0
 10
2.506669420910364
 20
-1.09023289982416
 30
0.0
 10
2.493441955095984
 20
-1.09832141770827
 30
0.0
 10
2.481969948077209
 20
-1.107911374258376
 30
0.0
 10
2.472035546734024
 20
-1.119015619018069
 30
0.0
 10
2.463705148805414
 20
-1.131822533515359
 30
0.0
 10
2.456513468287786
 20
-1.1461723536884
 30
0.0
 10
2.450816184770506
 20
-1.162275506239097
 30
0.0
 10
2.446472705443969
 20
-1.180061276004536
 30
0.0
 10
2.443547714541533
 20
-1.199519962597129
 30
0.0
 10
2.441744399536004
 20
-1.220602939563646
 30
0.0
 10
2.44170148329389
 20
-1.235208965544055
 30
0.0
 10
2.441679248222639
 20
-1.242776404172709
 30
0.0
  0
SPLINE
  5
C3
330
1F
100
AcDbEntity
  8
0
  6
Continuous
 62
     7
370
    15
100
AcDbSpline
210
0.0
220
0.0
230
1.0
 70
     8
 71
     3
 72
    15
 73
    11
 74
     0
 42
0.000000001
 43
0.00000001
 40
0.0
 40
0.0
 40
0.0
 40
0.0
 40
0.1215284844658721
 40
0.2459372117933862
 40
0.3748503562475716
 40
0.5074242228453947
 40
0.6397800544035249
 40
0.7662427865007062
 40
0.8862416587618845
 40
1.0
 40
1.0
 40
1.0
 40
1.0
 10
2.762828510665251
 20
-1.093624673966984
 30
0.0
 10
2.757445390153502
 20
-1.09138934325493
 30
0.0
 10
2.746551568386316
 20
-1.086865704165913
 30
0.0
 10
2.729392366541118
 20
-1.081451788076355
 30
0.0
 10
2.711407688553239
 20
-1.07705025751322
 30
0.0
 10
2.692764375643109
 20
-1.073971462126033
 30
0.0
 10
2.674133881138877
 20
-1.07171795787289
 30
0.0
 10
2.656049358054011
 20
-1.070013380958011
 30
0.0
 10
2.638795309850905
 20
-1.069110474779856
 30
0.0
 10
2.627587218434766
 20
-1.069064686165807
 30
0.0
 10
2.622132781889862
 20
-1.069042403059743
 30
0.0
  0
LINE
  5
C4
330
1F
100
AcDbEntity
  8
0
  6
Continuous
 62
     7
370
    15
100
AcDbLine
 10
2.7486927277
 20
-1.1803530157
 30
0.0
 11
2.7628285107
 21
-1.093624674
 31
0.0
  0
LINE
  5
C5
330
1F
100
AcDbEntity
  8
0
  6
Continuous
 62
     7
370
    15
100
AcDbLine
 10
2.6462841453
 20
-1.1804503051
 30
0.0
 11
2.7486927277
 21
-1.1803530157
 31
0.0
  0
SPLINE
  5
C6
330
1F
100
AcDbEntity
  8
0
  6
Continuous
 62
     7
370
    15
100
AcDbSpline
210
0.0
220
0.0
230
1.0
 70
     8
 71
     3
 72
    23
 73
    19
 74
     0
 42
0.000000001
 43
0.00000001
 40
0.0
 40
0.0
 40
0.0
 40
0.0
 40
0.0877396867938662
 40
0.1687968594824994
 40
0.2434012481016156
 40
0.311079679252277
 40
0.3718715817917979
 40
0.4278116033020372
 40
0.4784743878260099
 40
0.5256704285665468
 40
0.572624229688411
 40
0.6204801072951086
 40
0.6723660905234635
 40
0.7278541157341114
 40
0.7877007639729219
 40
0.8526346625052047
 40
0.9239636315701212
 40
1.0
 40
1.0
 40
1.0
 40
1.0
 10
2.58980111800561
 20
-1.242776404172709
 30
0.0
 10
2.589802221747449
 20
-1.239853920862013
 30
0.0
 10
2.589804345166883
 20
-1.234231539215104
 30
0.0
 10
2.590309473771924
 20
-1.226139361253399
 30
0.0
 10
2.591103995135853
 20
-1.218735575277503
 30
0.0
 10
2.592518180652316
 20
-1.212116129390366
 30
0.0
 10
2.594108240345542
 20
-1.206176721177574
 30
0.0
 10
2.596242808744904
 20
-1.201007322790831
 30
0.0
 10
2.598796908577813
 20
-1.196554868666938
 30
0.0
 10
2.601758217680866
 20
-1.192717272842616
 30
0.0
 10
2.605344154048639
 20
-1.18959802501172
 30
0.0
 10
2.609435032394575
 20
-1.186905649511035
 30
0.0
 10
2.614120610364182
 20
-1.184684272018406
 30
0.0
 10
2.619421447757348
 20
-1.182936843820942
 30
0.0
 10
2.625307079523238
 20
-1.18171008849803
 30
0.0
 10
2.631783132030012
 20
-1.180846827581576
 30
0.0
 10
2.638842739159664
 20
-1.180339390180668
 30
0.0
 10
2.643751409479927
 20
-1.180412554426273
 30
0.0
 10
2.646284145273278
 20
-1.18045030511873
 30
0.0
  0
SPLINE
  5
C7
330
1F
100
AcDbEntity
  8
0
  6
Continuous
 62
     7
370
    15
100
AcDbSpline
210
0.0
220
0.0
230
1.0
 70
     8
 71
     3
 72
    23
 73
    19
 74
     0
 42
0.000000001
 43
0.00000001
 40
0.0
 40
0.0
 40
0.0
 40
0.0
 40
0.0755921490179285
 40
0.1465044002233871
 40
0.2110589421554367
 40
0.2707686836976836
 40
0.3259325369569568
 40
0.3775153920713026
 40
0.4250916862332924
 40
0.471771174018606
 40
0.5186914862111185
 40
0.5698997199370215
 40
0.6255129288446472
 40
0.686882667770066
 40
0.7551152094065352
 40
0.8292837445212581
 40
0.9108347625075315
 40
1.0
 40
1.0
 40
1.0
 40
1.0
 10
2.646284145273278
 20
-1.305784194935091
 30
0.0
 10
2.643751166886425
 20
-1.305823022122448
 30
0.0
 10
2.638842026398081
 20
-1.305898272712225
 30
0.0
 10
2.631785680162691
 20
-1.305376365278097
 30
0.0
 10
2.625291662527981
 20
-1.304560525992103
 30
0.0
 10
2.619435268010494
 20
-1.303171343756346
 30
0.0
 10
2.614118839597906
 20
-1.301460393814071
 30
0.0
 10
2.609435707488904
 20
-1.299229526552338
 30
0.0
 10
2.605343126321096
 20
-1.296540062893611
 30
0.0
 10
2.601761644923777
 20
-1.293417812121689
 30
0.0
 10
2.598766326244865
 20
-1.289567305729504
 30
0.0
 10
2.596273156461214
 20
-1.285047795749987
 30
0.0
 10
2.594084708856874
 20
-1.279838963657757
 30
0.0
 10
2.592523790900916
 20
-1.273823040639125
 30
0.0
 10
2.59111251477411
 20
-1.267140542433943
 30
0.0
 10
2.590303036857781
 20
-1.259673582638998
 30
0.0
 10
2.589804045451206
 20
-1.251483413164875
 30
0.0
 10
2.589802122411036
 20
-1.245763775515544
 30
0.0
 10
2.58980111800561
 20
-1.242776404172709
 30
0.0
  0
SPLINE
  5
C8
330
1F
100
AcDbEntity
  8
0
  6
Continuous
 62
     7
370
    15
100
AcDbSpline
210
0.0
220
0.0
230
1.0
 70
     8
 71
     3
 72
    13
 73
     9
 74
     0
 42
0.000000001
 43
0.00000001
 40
0.0
 40
0.0
 40
0.0
 40
0.0
 40
0.2922675058996379
 40
0.5678045564285813
 40
0.6951477578886985
 40
0.8099243953602288
 40
0.9112382789653913
 40
0.9999999999999999
 40
0.9999999999999999
 40
0.9999999999999999
 40
0.9999999999999999
 10
2.75475092041066
 20
-1.301234701638972
 30
0.0
 10
2.744214313821244
 20
-1.302226391072931
 30
0.0
 10
2.723744254338064
 20
-1.304153002029666
 30
0.0
 10
2.69858830474863
 20
-1.30523691502137
 30
0.0
 10
2.679849915247531
 20
-1.305575121542907
 30
0.0
 10
2.667417423684571
 20
-1.305830749463237
 30
0.0
 10
2.656379608277504
 20
-1.305774752424379
 30
0.0
 10
2.649497813560798
 20
-1.305781189119784
 30
0.0
 10
2.646284145273278
 20
-1.305784194935091
 30
0.0
  0
LINE
  5
C9
330
1F
100
AcDbEntity
  8
0
  6
Continuous
 62
     7
370
    15
100
AcDbLine
 10
0.9568573228
 20
-1.1380880347
 30
0.0
 11
0.9073859817
 21
-1.1380880347
 31
0.0
  0
SPLINE
  5
CA
330
1F
100
AcDbEntity
  8
0
  6
Continuous
 62
     7
370
    15
100
AcDbSpline
210
0.0
220
0.0
230
1.0
 70
     8
 71
     3
 72
    15
 73
    11
 74
     0
 42
0.000000001
 43
0.00000001
 40
0.0
 40
0.0
 40
0.0
 40
0.0
 40
0.1536438527909479
 40
0.2835167104851463
 40
0.3911076735191995
 40
0.4848851155127734
 40
0.5807255726208973
 40
0.6958820848347878
 40
0.8347554316350709
 40
1.0
 40
1.0
 40
1.0
 40
1.0
 10
1.008373739040669
 20
-1.090466999609548
 30
0.0
 10
1.008365527923836
 20
-1.09475799005345
 30
0.0
 10
1.008350376072387
 20
-1.102676090734208
 30
0.0
 10
1.006615421633273
 20
-1.113513456195452
 30
0.0
 10
1.003361415049024
 20
-1.122240451576861
 30
0.0
 10
0.9983587137870134
 20
-1.129061288011286
 30
0.0
 10
0.9909782081655403
 20
-1.133609810360334
 30
0.0
 10
0.9815852271486183
 20
-1.136440440736954
 30
0.0
 10
0.96997031039479
 20
-1.138181274908077
 30
0.0
 10
0.961473903904123
 20
-1.138120860988296
 30
0.0
 10
0.9568573227913643
 20
-1.138088034667979
 30
0.0
  0
SPLINE
  5
CB
330
1F
100
AcDbEntity
  8
0
  6
Continuous
 62
     7
370
    15
100
AcDbSpline
210
0.0
220
0.0
230
1.0
 70
     8
 71
     3
 72
    15
 73
    11
 74
     0
 42
0.000000001
 43
0.00000001
 40
0.0
 40
0.0
 40
0.0
 40
0.0
 40
0.164286796477571
 40
0.3031260640103362
 40
0.4182543170249159
 40
0.5140712550586307
 40
0.6078256842379655
 40
0.7153902446447596
 40
0.8452312317751481
 40
1.0
 40
1.0
 40
1.0
 40
1.0
 10
0.9569365428238837
 20
-1.042651385695733
 30
0.0
 10
0.9615264252287348
 20
-1.042661548854663
 30
0.0
 10
0.9699952311065265
 20
-1.042680300929877
 30
0.0
 10
0.9815853282751563
 20
-1.044391880018016
 30
0.0
 10
0.9909781859229913
 20
-1.047227666327133
 30
0.0
 10
0.9983587249662706
 20
-1.051775119596914
 30
0.0
 10
1.003361388843133
 20
-1.058596228416549
 30
0.0
 10
1.006615539346527
 20
-1.067323128081287
 30
0.0
 10
1.008354953539178
 20
-1.078192796519415
 30
0.0
 10
1.008367121946819
 20
-1.086143476289102
 30
0.0
 10
1.008373739040669
 20
-1.090466999609548
 30
0.0
  0
LINE
  5
CC
330
1F
100
AcDbEntity
  8
0
  6
Continuous
 62
     7
370
    15
100
AcDbLine
 10
0.9073859817
 20
-1.0426513857
 30
0.0
 11
0.9569365428
 21
-1.0426513857
 31
0.0
  0
LINE
  5
CD
330
1F
100
AcDbEntity
  8
0
  6
Continuous
 62
     7
370
    15
100
AcDbLine
 10
0.9073859817
 20
-1.1380880347
 30
0.0
 11
0.9073859817
 21
-1.0426513857
 31
0.0
  0
LINE
  5
CE
330
1F
100
AcDbEntity
  8
0
  6
Continuous
 62
     7
370
    15
100
AcDbLine
 10
1.3879786361
 20
-1.1617524754
 30
0.0
 11
1.3880090688
 21
-1.161655186
 31
0.0
  0
SPLINE
  5
CF
330
1F
100
AcDbEntity
  8
0
  6
Continuous
 62
     7
370
    15
100
AcDbSpline
210
0.0
220
0.0
230
1.0
 70
     8
 71
     3
 72
    23
 73
    19
 74
     0
 42
0.000000001
 43
0.00000001
 40
0.0
 40
0.0
 40
0.0
 40
0.0
 40
0.1157673685372462
 40
0.2204579448379007
 40
0.3159625858792152
 40
0.4014888977490526
 40
0.4771947380461335
 40
0.5433083460215089
 40
0.5999241524253666
 40
0.6477348142268158
 40
0.6904678729221583
 40
0.7312600621501909
 40
0.7712559706990563
 40
0.8123936408155922
 40
0.8540184095253401
 40
0.8987232046721912
 40
0.9472019565461747
 40
1.0
 40
1.0
 40
1.0
 40
1.0
 10
1.349511746831431
 20
-1.24443194117883
 30
0.0
 10
1.349485898778907
 20
-1.240373959963145
 30
0.0
 10
1.349436675853574
 20
-1.232646271148029
 30
0.0
 10
1.349769159793471
 20
-1.22157542870453
 30
0.0
 10
1.350200682783533
 20
-1.211568650664146
 30
0.0
 10
1.35097095458736
 20
-1.202600619409765
 30
0.0
 10
1.352001227051365
 20
-1.194693606534693
 30
0.0
 10
1.353373984057272
 20
-1.187872132925127
 30
0.0
 10
1.354864168066438
 20
-1.182075397060939
 30
0.0
 10
1.356732832437882
 20
-1.177253557485715
 30
0.0
 10
1.359002269800077
 20
-1.173220956448867
 30
0.0
 10
1.361797739647086
 20
-1.169894335559339
 30
0.0
 10
1.364934897757697
 20
-1.166965176048324
 30
0.0
 10
1.368656117355112
 20
-1.16473836578921
 30
0.0
 10
1.372863856997377
 20
-1.163184033931685
 30
0.0
 10
1.377478260373343
 20
-1.162138237393825
 30
0.0
 10
1.382574780703655
 20
-1.161495044082506
 30
0.0
 10
1.386126854231067
 20
-1.161664259376293
 30
0.0
 10
1.387978636091308
 20
-1.161752475402536
 30
0.0
  0
SPLINE
  5
D0
330
1F
100
AcDbEntity
  8
0
  6
Continuous
 62
     7
370
    15
100
AcDbSpline
210
0.0
220
0.0
230
1.0
 70
     8
 71
     3
 72
    19
 73
    15
 74
     0
 42
0.000000001
 43
0.00000001
 40
0.0
 40
0.0
 40
0.0
 40
0.0
 40
0.1034480526559408
 40
0.1916567975650233
 40
0.2726959262966375
 40
0.3563780893338835
 40
0.4044587194495681
 40
0.4606084401216347
 40
0.5264540929862189
 40
0.60116336110043
 40
0.6859136230485025
 40
0.7808747324299218
 40
0.8852404175824757
 40
1.0
 40
1.0
 40
1.0
 40
1.0
 10
1.387978636091308
 20
-1.324482024651284
 30
0.0
 10
1.384422368341007
 20
-1.324546531150991
 30
0.0
 10
1.377833719537986
 20
-1.324666041464029
 30
0.0
 10
1.368722347727947
 20
-1.321988545670339
 30
0.0
 10
1.361447143241185
 20
-1.31700157845522
 30
0.0
 10
1.357228529898253
 20
-1.310871356957981
 30
0.0
 10
1.354883018512525
 20
-1.304870480892844
 30
0.0
 10
1.353365386960724
 20
-1.299242440739484
 30
0.0
 10
1.352010547355528
 20
-1.292644117826586
 30
0.0
 10
1.350966580527196
 20
-1.284998726178725
 30
0.0
 10
1.350200514921704
 20
-1.276321671862972
 30
0.0
 10
1.349768510297911
 20
-1.266606926350711
 30
0.0
 10
1.349437277570977
 20
-1.255860572131835
 30
0.0
 10
1.349486150997319
 20
-1.248360076629778
 30
0.0
 10
1.349511746831431
 20
-1.24443194117883
 30
0.0
  0
SPLINE
  5
D1
330
1F
100
AcDbEntity
  8
0
  6
Continuous
 62
     7
370
    15
100
AcDbSpline
210
0.0
220
0.0
230
1.0
 70
     8
 71
     3
 72
    19
 73
    15
 74
     0
 42
0.000000001
 43
0.00000001
 40
0.0
 40
0.0
 40
0.0
 40
0.0
 40
0.1154211788692307
 40
0.2203668653906987
 40
0.3159278160887964
 40
0.4011666688055421
 40
0.4763066407063368
 40
0.5423461518732178
 40
0.5990848085893388
 40
0.6474426266627541
 40
0.7310594787119957
 40
0.8110103681758342
 40
0.8988152653421726
 40
1.0
 40
1.0
 40
1.0
 40
1.0
 10
1.425763833642783
 20
-1.24443194117883
 30
0.0
 10
1.425772491390331
 20
-1.248359531377299
 30
0.0
 10
1.425789021118299
 20
-1.255858248242394
 30
0.0
 10
1.425676984666892
 20
-1.266612703541923
 30
0.0
 10
1.425031553284037
 20
-1.276316834649133
 30
0.0
 10
1.42433446266881
 20
-1.285002861756734
 30
0.0
 10
1.423211617267438
 20
-1.292626264707858
 30
0.0
 10
1.422071567317659
 20
-1.299274063581745
 30
0.0
 10
1.420365324403241
 20
-1.304854232232683
 30
0.0
 10
1.418059659817152
 20
-1.310853520702041
 30
0.0
 10
1.413941407438639
 20
-1.316956332605246
 30
0.0
 10
1.406840840157343
 20
-1.322015489182736
 30
0.0
 10
1.397892696251852
 20
-1.324645114038801
 30
0.0
 10
1.391435700748288
 20
-1.32453889444513
 30
0.0
 10
1.387978636091308
 20
-1.324482024651284
 30
0.0
  0
SPLINE
  5
D2
330
1F
100
AcDbEntity
  8
0
  6
Continuous
 62
     7
370
    15
100
AcDbSpline
210
0.0
220
0.0
230
1.0
 70
     8
 71
     3
 72
    23
 73
    19
 74
     0
 42
0.000000001
 43
0.00000001
 40
0.0
 40
0.0
 40
0.0
 40
0.0
 40
0.0509551492114306
 40
0.0988021888031705
 40
0.1428711688671949
 40
0.1847481814008188
 40
0.2245526143732765
 40
0.2647908959424469
 40
0.3052443570221908
 40
0.3482363757181616
 40
0.3963367675176063
 40
0.4535466008215137
 40
0.5198844142921071
 40
0.5960490278445892
 40
0.6820936244909374
 40
0.7782267007850672
 40
0.8835310875353024
 40
1.0
 40
1.0
 40
1.0
 40
1.0
 10
1.388009068756862
 20
-1.161655185974845
 30
0.0
 10
1.38978555195554
 20
-1.16161056283648
 30
0.0
 10
1.393230158263592
 20
-1.161524038435906
 30
0.0
 10
1.398190874824126
 20
-1.162126211550321
 30
0.0
 10
1.402725409896029
 20
-1.163212591813438
 30
0.0
 10
1.40688376579592
 20
-1.164680193561538
 30
0.0
 10
1.410455091066172
 20
-1.167036650188209
 30
0.0
 10
1.413587181225519
 20
-1.169854774836016
 30
0.0
 10
1.416258430479791
 20
-1.173259269234108
 30
0.0
 10
1.418557243357187
 20
-1.17724544825447
 30
0.0
 10
1.420378786560329
 20
-1.182094454723646
 30
0.0
 10
1.422065313195095
 20
-1.187840263340765
 30
0.0
 10
1.423219630685305
 20
-1.194711452280693
 30
0.0
 10
1.424330566800604
 20
-1.202596442736201
 30
0.0
 10
1.425031111196259
 20
-1.211573399232499
 30
0.0
 10
1.425676291159569
 20
-1.221569809500777
 30
0.0
 10
1.425789362902874
 20
-1.232648541861595
 30
0.0
 10
1.425772624281728
 20
-1.240374494602897
 30
0.0
 10
1.425763833642783
 20
-1.24443194117883
 30
0.0
  0
LINE
  5
D3
330
1F
100
AcDbEntity
  8
0
  6
Continuous
 62
     7
370
    15
100
AcDbLine
 10
1.7606692315
 20
-1.3188337219
 30
0.0
 11
1.7606692315
 21
-1.182702893
 31
0.0
  0
SPLINE
  5
D4
330
1F
100
AcDbEntity
  8
0
  6
Continuous
 62
     7
370
    15
100
AcDbSpline
210
0.0
220
0.0
230
1.0
 70
     8
 71
     3
 72
    11
 73
     7
 74
     0
 42
0.000000001
 43
0.00000001
 40
0.0
 40
0.0
 40
0.0
 40
0.0
 40
0.2097653144033035
 40
0.46164185242383
 40
0.7317206092221353
 40
1.0
 40
1.0
 40
1.0
 40
1.0
 10
1.808192882056807
 20
-1.324482024651284
 30
0.0
 10
1.804885038938838
 20
-1.323970646254297
 30
0.0
 10
1.797605290002029
 20
-1.322845228207246
 30
0.0
 10
1.785992190502351
 20
-1.321624625453837
 30
0.0
 10
1.773452275900314
 20
-1.320325165609326
 30
0.0
 10
1.764920741274953
 20
-1.319329760831852
 30
0.0
 10
1.760669231528148
 20
-1.318833721924517
 30
0.0
  0
SPLINE
  5
D5
330
1F
100
AcDbEntity
  8
0
  6
Continuous
 62
     7
370
    15
100
AcDbSpline
210
0.0
220
0.0
230
1.0
 70
     8
 71
     3
 72
    19
 73
    15
 74
     0
 42
0.000000001
 43
0.00000001
 40
0.0
 40
0.0
 40
0.0
 40
0.0
 40
0.111785680124878
 40
0.2143668176184016
 40
0.3069745809755339
 40
0.3906297726109611
 40
0.4655045601664874
 40
0.5309392461707317
 40
0.5882010009107248
 40
0.6369799407287471
 40
0.724191401552799
 40
0.8093681349179019
 40
0.898792479894217
 40
1.0
 40
1.0
 40
1.0
 40
1.0
 10
1.849191769090752
 20
-1.241413020755903
 30
0.0
 10
1.849169314620155
 20
-1.245340800079645
 30
0.0
 10
1.849126254602112
 20
-1.252872941522067
 30
0.0
 10
1.848906498722286
 20
-1.26366001492652
 30
0.0
 10
1.848204507900996
 20
-1.273436616526701
 30
0.0
 10
1.847255192621743
 20
-1.282211763050678
 30
0.0
 10
1.846026519159069
 20
-1.289990399351783
 30
0.0
 10
1.844477663418362
 20
-1.296762289158538
 30
0.0
 10
1.842685987368299
 20
-1.302527520394527
 30
0.0
 10
1.839884813490487
 20
-1.308728365314858
 30
0.0
 10
1.835261852927164
 20
-1.315123916028577
 30
0.0
 10
1.827753454709376
 20
-1.32066657279765
 30
0.0
 10
1.81847975785429
 20
-1.323986258780393
 30
0.0
 10
1.811760286738767
 20
-1.324310097088068
 30
0.0
 10
1.808192882056807
 20
-1.324482024651284
 30
0.0
  0
SPLINE
  5
D6
330
1F
100
AcDbEntity
  8
0
  6
Continuous
 62
     7
370
    15
100
AcDbSpline
210
0.0
220
0.0
230
1.0
 70
     8
 71
     3
 72
    19
 73
    15
 74
     0
 42
0.000000001
 43
0.00000001
 40
0.0
 40
0.0
 40
0.0
 40
0.0
 40
0.1233812197181039
 40
0.2288248222266998
 40
0.3212008377589311
 40
0.4084082161383863
 40
0.4549350610406596
 40
0.5093205737173352
 40
0.570157979069407
 40
0.6382751651143092
 40
0.7160276751445536
 40
0.8016217732529641
 40
0.8962117841826847
 40
1.0
 40
1.0
 40
1.0
 40
1.0
 10
1.805271346163651
 20
-1.174217695213332
 30
0.0
 10
1.809180160920107
 20
-1.174187628605091
 30
0.0
 10
1.816429512513539
 20
-1.174131866583111
 30
0.0
 10
1.826410831213463
 20
-1.176369845285282
 30
0.0
 10
1.834654609640697
 20
-1.180314213045617
 30
0.0
 10
1.839684029076543
 20
-1.185604098267171
 30
0.0
 10
1.842689093006741
 20
-1.190747757057084
 30
0.0
 10
1.844584346145087
 20
-1.195512828876322
 30
0.0
 10
1.84609820362159
 20
-1.201109487431992
 30
0.0
 10
1.84737278514993
 20
-1.207518780649889
 30
0.0
 10
1.848295787121957
 20
-1.214775952047173
 30
0.0
 10
1.848999625191461
 20
-1.222896580217961
 30
0.0
 10
1.849247477936245
 20
-1.231867935057542
 30
0.0
 10
1.84921090398088
 20
-1.238134471999632
 30
0.0
 10
1.849191769090752
 20
-1.241413020755903
 30
0.0
  0
SPLINE
  5
D7
330
1F
100
AcDbEntity
  8
0
  6
Continuous
 62
     7
370
    15
100
AcDbSpline
210
0.0
220
0.0
230
1.0
 70
     8
 71
     3
 72
    11
 73
     7
 74
     0
 42
0.000000001
 43
0.00000001
 40
0.0
 40
0.0
 40
0.0
 40
0.0
 40
0.222093476163328
 40
0.4611500129134458
 40
0.7200133710320897
 40
1.0
 40
1.0
 40
1.0
 40
1.0
 10
1.760669231528148
 20
-1.182702892982183
 30
0.0
 10
1.763826246598626
 20
-1.181484588859469
 30
0.0
 10
1.770381403308625
 20
-1.178954928953976
 30
0.0
 10
1.781105218427428
 20
-1.176578479465526
 30
0.0
 10
1.792810657417885
 20
-1.174728306257381
 30
0.0
 10
1.801010635091208
 20
-1.174392289585559
 30
0.0
 10
1.805271346163651
 20
-1.174217695213332
 30
0.0
  0
LINE
  5
D8
330
1F
100
AcDbEntity
  8
0
  6
Continuous
 62
     7
370
    15
100
AcDbLine
 10
2.2169157535
 20
-1.1617524754
 30
0.0
 11
2.2169461862
 21
-1.161655186
 31
0.0
  0
SPLINE
  5
D9
330
1F
100
AcDbEntity
  8
0
  6
Continuous
 62
     7
370
    15
100
AcDbSpline
210
0.0
220
0.0
230
1.0
 70
     8
 71
     3
 72
    23
 73
    19
 74
     0
 42
0.000000001
 43
0.00000001
 40
0.0
 40
0.0
 40
0.0
 40
0.0
 40
0.115767368537246
 40
0.2204579448379005
 40
0.3159625858792149
 40
0.4014888977490518
 40
0.4771947380461327
 40
0.543308346021508
 40
0.5999241524253656
 40
0.6477348142268157
 40
0.6904678729221568
 40
0.731260062150191
 40
0.7712559706990545
 40
0.8123936408155924
 40
0.8540184095253402
 40
0.8987232046721914
 40
0.9472019565461747
 40
1.0
 40
1.0
 40
1.0
 40
1.0
 10
2.178448864249349
 20
-1.24443194117883
 30
0.0
 10
2.178423016196826
 20
-1.240373959963146
 30
0.0
 10
2.178373793271493
 20
-1.23264627114803
 30
0.0
 10
2.178706277211389
 20
-1.221575428704529
 30
0.0
 10
2.179137800201453
 20
-1.211568650664147
 30
0.0
 10
2.179908072005278
 20
-1.202600619409765
 30
0.0
 10
2.180938344469284
 20
-1.194693606534693
 30
0.0
 10
2.18231110147519
 20
-1.187872132925127
 30
0.0
 10
2.183801285484356
 20
-1.182075397060939
 30
0.0
 10
2.185669949855802
 20
-1.177253557485716
 30
0.0
 10
2.187939387217995
 20
-1.173220956448866
 30
0.0
 10
2.190734857065005
 20
-1.169894335559339
 30
0.0
 10
2.193872015175616
 20
-1.166965176048323
 30
0.0
 10
2.19759323477303
 20
-1.164738365789209
 30
0.0
 10
2.201800974415297
 20
-1.163184033931686
 30
0.0
 10
2.206415377791262
 20
-1.162138237393825
 30
0.0
 10
2.211511898121574
 20
-1.161495044082506
 30
0.0
 10
2.215063971648985
 20
-1.161664259376293
 30
0.0
 10
2.216915753509227
 20
-1.161752475402536
 30
0.0
  0
SPLINE
  5
DA
330
1F
100
AcDbEntity
  8
0
  6
Continuous
 62
     7
370
    15
100
AcDbSpline
210
0.0
220
0.0
230
1.0
 70
     8
 71
     3
 72
    19
 73
    15
 74
     0
 42
0.000000001
 43
0.00000001
 40
0.0
 40
0.0
 40
0.0
 40
0.0
 40
0.1034480526559406
 40
0.1916567975650231
 40
0.2726959262966372
 40
0.3563780893338831
 40
0.4044587194495687
 40
0.4606084401216352
 40
0.5264540929862194
 40
0.6011633611004304
 40
0.6859136230485025
 40
0.7808747324299218
 40
0.8852404175824758
 40
0.9999999999999999
 40
0.9999999999999999
 40
0.9999999999999999
 40
0.9999999999999999
 10
2.216915753509227
 20
-1.324482024651284
 30
0.0
 10
2.213359485758926
 20
-1.324546531150991
 30
0.0
 10
2.206770836955906
 20
-1.324666041464029
 30
0.0
 10
2.197659465145867
 20
-1.321988545670339
 30
0.0
 10
2.190384260659105
 20
-1.31700157845522
 30
0.0
 10
2.186165647316172
 20
-1.310871356957981
 30
0.0
 10
2.183820135930444
 20
-1.304870480892844
 30
0.0
 10
2.182302504378642
 20
-1.299242440739483
 30
0.0
 10
2.180947664773447
 20
-1.292644117826586
 30
0.0
 10
2.179903697945115
 20
-1.284998726178725
 30
0.0
 10
2.179137632339624
 20
-1.276321671862972
 30
0.0
 10
2.178705627715829
 20
-1.26660692635071
 30
0.0
 10
2.178374394988896
 20
-1.255860572131835
 30
0.0
 10
2.178423268415238
 20
-1.248360076629779
 30
0.0
 10
2.178448864249349
 20
-1.24443194117883
 30
0.0
  0
SPLINE
  5
DB
330
1F
100
AcDbEntity
  8
0
  6
Continuous
 62
     7
370
    15
100
AcDbSpline
210
0.0
220
0.0
230
1.0
 70
     8
 71
     3
 72
    19
 73
    15
 74
     0
 42
0.000000001
 43
0.00000001
 40
0.0
 40
0.0
 40
0.0
 40
0.0
 40
0.1154211788692308
 40
0.2203668653906989
 40
0.3159278160887967
 40
0.4011666688055427
 40
0.4763066407063372
 40
0.5423461518732187
 40
0.5990848085893389
 40
0.6474426266627553
 40
0.7310594787119955
 40
0.811010368175834
 40
0.898815265342175
 40
0.9999999999999999
 40
0.9999999999999999
 40
0.9999999999999999
 40
0.9999999999999999
 10
2.254700951060702
 20
-1.24443194117883
 30
0.0
 10
2.254709608808251
 20
-1.248359531377299
 30
0.0
 10
2.254726138536219
 20
-1.255858248242395
 30
0.0
 10
2.254614102084811
 20
-1.266612703541923
 30
0.0
 10
2.253968670701958
 20
-1.276316834649134
 30
0.0
 10
2.253271580086727
 20
-1.285002861756733
 30
0.0
 10
2.252148734685358
 20
-1.292626264707859
 30
0.0
 10
2.251008684735578
 20
-1.299274063581745
 30
0.0
 10
2.249302441821161
 20
-1.304854232232683
 30
0.0
 10
2.246996777235069
 20
-1.310853520702041
 30
0.0
 10
2.242878524856559
 20
-1.316956332605246
 30
0.0
 10
2.235777957575261
 20
-1.322015489182735
 30
0.0
 10
2.226829813669771
 20
-1.324645114038801
 30
0.0
 10
2.220372818166207
 20
-1.324538894445131
 30
0.0
 10
2.216915753509227
 20
-1.324482024651284
 30
0.0
  0
SPLINE
  5
DC
330
1F
100
AcDbEntity
  8
0
  6
Continuous
 62
     7
370
    15
100
AcDbSpline
210
0.0
220
0.0
230
1.0
 70
     8
 71
     3
 72
    23
 73
    19
 74
     0
 42
0.000000001
 43
0.00000001
 40
0.0
 40
0.0
 40
0.0
 40
0.0
 40
0.0509551492114306
 40
0.098802188803168
 40
0.1428711688671924
 40
0.1847481814008188
 40
0.2245526143732744
 40
0.2647908959424468
 40
0.3052443570221907
 40
0.3482363757181602
 40
0.3963367675176059
 40
0.4535466008215127
 40
0.5198844142921066
 40
0.5960490278445886
 40
0.682093624490937
 40
0.778226700785067
 40
0.8835310875353023
 40
1.0
 40
1.0
 40
1.0
 40
1.0
 10
2.216946186174781
 20
-1.161655185974845
 30
0.0
 10
2.218722669373459
 20
-1.16161056283648
 30
0.0
 10
2.222167275681511
 20
-1.161524038435906
 30
0.0
 10
2.227127992242044
 20
-1.162126211550321
 30
0.0
 10
2.231662527313948
 20
-1.163212591813438
 30
0.0
 10
2.235820883213839
 20
-1.164680193561538
 30
0.0
 10
2.239392208484092
 20
-1.167036650188209
 30
0.0
 10
2.242524298643437
 20
-1.169854774836016
 30
0.0
 10
2.245195547897711
 20
-1.173259269234108
 30
0.0
 10
2.247494360775105
 20
-1.17724544825447
 30
0.0
 10
2.249315903978249
 20
-1.182094454723646
 30
0.0
 10
2.251002430613012
 20
-1.187840263340765
 30
0.0
 10
2.252156748103225
 20
-1.194711452280693
 30
0.0
 10
2.253267684218523
 20
-1.202596442736201
 30
0.0
 10
2.253968228614178
 20
-1.211573399232499
 30
0.0
 10
2.254613408577488
 20
-1.221569809500778
 30
0.0
 10
2.254726480320792
 20
-1.232648541861595
 30
0.0
 10
2.254709741699646
 20
-1.240374494602897
 30
0.0
 10
2.254700951060702
 20
-1.24443194117883
 30
0.0
  0
LINE
  5
DD
330
1F
100
AcDbEntity
  8
0
  6
Continuous
 62
     7
370
    15
100
AcDbLine
 10
2.926751591
 20
-1.3044208115
 30
0.0
 11
2.926751591
 21
-1.2944761772
 31
0.0
  0
SPLINE
  5
DE
330
1F
100
AcDbEntity
  8
0
  6
Continuous
 62
     7
370
    15
100
AcDbSpline
210
0.0
220
0.0
230
1.0
 70
     8
 71
     3
 72
    15
 73
    11
 74
     0
 42
0.000000001
 43
0.00000001
 40
0.0
 40
0.0
 40
0.0
 40
0.0
 40
0.173702177158502
 40
0.3276520218046718
 40
0.4610210659456341
 40
0.5777567701518709
 40
0.6848545171349537
 40
0.7863100237874676
 40
0.8896229937116693
 40
1.0
 40
1.0
 40
1.0
 40
1.0
 10
2.956259103537051
 20
-1.324482024651284
 30
0.0
 10
2.953948027164773
 20
-1.324340995332767
 30
0.0
 10
2.949588675668384
 20
-1.324074973673729
 30
0.0
 10
2.943549631031702
 20
-1.322893545916801
 30
0.0
 10
2.938388686913802
 20
-1.321310953141512
 30
0.0
 10
2.934161357889777
 20
-1.319046792075985
 30
0.0
 10
2.930875497191893
 20
-1.316172890539516
 30
0.0
 10
2.928409221702566
 20
-1.312774134217104
 30
0.0
 10
2.927032873163347
 20
-1.308738530936677
 30
0.0
 10
2.92684739553501
 20
-1.305891423981539
 30
0.0
 10
2.926751591016183
 20
-1.304420811518285
 30
0.0
  0
SPLINE
  5
DF
330
1F
100
AcDbEntity
  8
0
  6
Continuous
 62
     7
370
    15
100
AcDbSpline
210
0.0
220
0.0
230
1.0
 70
     8
 71
     3
 72
    11
 73
     7
 74
     0
 42
0.000000001
 43
0.00000001
 40
0.0
 40
0.0
 40
0.0
 40
0.0
 40
0.2751388746760765
 40
0.5279132215663104
 40
0.7703512973783442
 40
1.0
 40
1.0
 40
1.0
 40
1.0
 10
3.009138808101082
 20
-1.308250477171979
 30
0.0
 10
3.004615026323334
 20
-1.310663761567011
 30
0.0
 10
2.99593517613944
 20
-1.315294167724764
 30
0.0
 10
2.982410853143781
 20
-1.320131995240067
 30
0.0
 10
2.969314367333709
 20
-1.32359104667773
 30
0.0
 10
2.960531545894928
 20
-1.32419044478791
 30
0.0
 10
2.956259103537051
 20
-1.324482024651284
 30
0.0
  0
LINE
  5
E0
330
1F
100
AcDbEntity
  8
0
  6
Continuous
 62
     7
370
    15
100
AcDbLine
 10
3.0091388081
 20
-1.2738421643
 30
0.0
 11
3.0091388081
 21
-1.3082504772
 31
0.0
  0
LINE
  5
E1
330
1F
100
AcDbEntity
  8
0
  6
Continuous
 62
     7
370
    15
100
AcDbLine
 10
2.9534349522
 20
-1.2739394537
 30
0.0
 11
3.0091388081
 21
-1.2738421643
 31
0.0
  0
SPLINE
  5
E2
330
1F
100
AcDbEntity
  8
0
  6
Continuous
 62
     7
370
    15
100
AcDbSpline
210
0.0
220
0.0
230
1.0
 70
     8
 71
     3
 72
    15
 73
    11
 74
     0
 42
0.000000001
 43
0.00000001
 40
0.0
 40
0.0
 40
0.0
 40
0.0
 40
0.1213197355333923
 40
0.229544294544446
 40
0.3345709188532758
 40
0.4437396244484076
 40
0.5602430885759604
 40
0.6897459913975105
 40
0.8345975017748849
 40
1.0
 40
1.0
 40
1.0
 40
1.0
 10
2.926751591016183
 20
-1.294476177231974
 30
0.0
 10
2.926845420990207
 20
-1.292943248199264
 30
0.0
 10
2.92702295298943
 20
-1.290042853536737
 30
0.0
 10
2.928353631323916
 20
-1.285988249492667
 30
0.0
 10
2.93044703769732
 20
-1.282466235619448
 30
0.0
 10
2.933425433798591
 20
-1.279465086907955
 30
0.0
 10
2.937375841748208
 20
-1.277274106713759
 30
0.0
 10
2.941991361424504
 20
-1.275507666099753
 30
0.0
 10
2.947443861669705
 20
-1.274349997943435
 30
0.0
 10
2.951351639274077
 20
-1.27408221437378
 30
0.0
 10
2.953434952173668
 20
-1.273939453699698
 30
0.0
  0
MTEXT
  5
E4
330
1F
100
AcDbEntity
  8
0
  6
Continuous
 62
     7
100
AcDbMText
 10
-1.5192815996
 20
-4.3989688191
 30
0.0
 40
0.1903
 41
0.0
 71
     1
 72
     1
  1
SolidWorks Educational Edition.
  7
SLDTEXTSTYLE0
 73
     1
 44
1.0
  0
MTEXT
  5
E5
330
1F
100
AcDbEntity
  8
0
  6
Continuous
 62
     7
100
AcDbMText
 10
-1.5192815996
 20
-4.6844188191
 30
0.0
 40
0.1903
 41
0.0
 71
     1
 72
     1
  1
For Instructional Use Only.
  7
SLDTEXTSTYLE0
 73
     1
 44
1.0
  0
ENDSEC
  0
SECTION
  2
OBJECTS
  0
DICTIONARY
  5
C
330
0
100
AcDbDictionary
281
     1
  3
ACAD_GROUP
350
D
  3
ACAD_LAYOUT
350
1A
  3
ACAD_MLINESTYLE
350
17
  3
ACAD_PLOTSETTINGS
350
19
  3
ACAD_PLOTSTYLENAME
350
E
  3
ACAD_SCALELIST
350
47
  0
DICTIONARY
  5
D
102
{ACAD_REACTORS
330
C
102
}
330
C
100
AcDbDictionary
281
     1
  0
DICTIONARY
  5
1A
102
{ACAD_REACTORS
330
C
102
}
330
C
100
AcDbDictionary
281
     1
  3
Layout1
350
1E
  3
Layout2
350
26
  3
Model
350
22
  0
DICTIONARY
  5
17
102
{ACAD_REACTORS
330
C
102
}
330
C
100
AcDbDictionary
281
     1
  3
Standard
350
18
  0
DICTIONARY
  5
19
102
{ACAD_REACTORS
330
C
102
}
330
C
100
AcDbDictionary
281
     1
  0
ACDBDICTIONARYWDFLT
  5
E
102
{ACAD_REACTORS
330
C
102
}
330
C
100
AcDbDictionary
281
     1
  3
Normal
350
F
100
AcDbDictionaryWithDefault
340
F
  0
DICTIONARY
  5
47
102
{ACAD_REACTORS
330
C
102
}
330
C
100
AcDbDictionary
281
     1
  3
A0
350
48
  3
A1
350
49
  3
A2
350
4A
  3
A3
350
4B
  3
A4
350
4C
  3
A5
350
4D
  3
A6
350
4E
  3
A7
350
4F
  3
A8
350
50
  3
A9
350
51
  3
B0
350
52
  3
B1
350
53
  3
B2
350
54
  3
B3
350
55
  3
B4
350
56
  3
B5
350
57
  3
B6
350
58
  3
B7
350
59
  3
B8
350
5A
  3
B9
350
5B
  3
C0
350
5C
  3
C1
350
5D
  3
C2
350
5E
  3
C3
350
5F
  3
C4
350
60
  3
C5
350
61
  3
C6
350
62
  3
C7
350
63
  3
C8
350
64
  3
C9
350
65
  3
D0
350
66
  3
D1
350
67
  3
D2
350
68
  0
LAYOUT
  5
1E
102
{ACAD_REACTORS
330
1A
102
}
330
1A
100
AcDbPlotSettings
  1

  2
none_device
  4

  6

 40
0.0
 41
0.0
 42
0.0
 43
0.0
 44
0.0
 45
0.0
 46
0.0
 47
0.0
 48
0.0
 49
0.0
140
0.0
141
0.0
142
1.0
143
1.0
 70
   688
 72
     0
 73
     0
 74
     5
  7

 75
    16
147
1.0
148
0.0
149
0.0
100
AcDbLayout
  1
Layout1
 70
     1
 71
     1
 10
0.0
 20
0.0
 11
12.0
 21
9.0
 12
0.0
 22
0.0
 32
0.0
 14
1.0000000000E+20
 24
1.0000000000E+20
 34
1.0000000000E+20
 15
-1.0000000000E+20
 25
-1.0000000000E+20
 35
-1.0000000000E+20
146
0.0
 13
0.0
 23
0.0
 33
0.0
 16
1.0
 26
0.0
 36
0.0
 17
0.0
 27
1.0
 37
0.0
 76
     0
330
1B
  0
LAYOUT
  5
26
102
{ACAD_REACTORS
330
1A
102
}
330
1A
100
AcDbPlotSettings
  1

  2
none_device
  4

  6

 40
0.0
 41
0.0
 42
0.0
 43
0.0
 44
0.0
 45
0.0
 46
0.0
 47
0.0
 48
0.0
 49
0.0
140
0.0
141
0.0
142
1.0
143
1.0
 70
   688
 72
     0
 73
     0
 74
     5
  7

 75
    16
147
1.0
148
0.0
149
0.0
100
AcDbLayout
  1
Layout2
 70
     1
 71
     2
 10
0.0
 20
0.0
 11
0.0
 21
0.0
 12
0.0
 22
0.0
 32
0.0
 14
0.0
 24
0.0
 34
0.0
 15
0.0
 25
0.0
 35
0.0
146
0.0
 13
0.0
 23
0.0
 33
0.0
 16
1.0
 26
0.0
 36
0.0
 17
0.0
 27
1.0
 37
0.0
 76
     0
330
23
  0
LAYOUT
  5
22
102
{ACAD_REACTORS
330
1A
102
}
330
1A
100
AcDbPlotSettings
  1

  2
none_device
  4
ANSI_A_(11.00_x_8.50_Inches)
  6

 40
6.35
 41
19.05
 42
6.35000508
 43
19.05000254
 44
279.4
 45
215.9
 46
44.892216131
 47
93.4515778676
 48
0.0
 49
0.0
140
0.0
141
0.0
142
1.0063933737
143
1.0
 70
  1696
 72
     0
 73
     0
 74
     0
  7

 75
     0
147
0.5913241897
148
-39.4088153714
149
0.0
100
AcDbLayout
  1
Model
 70
     1
 71
     0
 10
0.0
 20
0.0
 11
12.0
 21
9.0
 12
0.0
 22
0.0
 32
0.0
 14
-1.5192815996
 24
-4.35882841
 34
0.0
 15
8.44021313
 25
4.00271313
 35
0.0
146
0.0
 13
0.0
 23
0.0
 33
0.0
 16
1.0
 26
0.0
 36
0.0
 17
0.0
 27
1.0
 37
0.0
 76
     0
330
1F
331
29
  0
MLINESTYLE
  5
18
102
{ACAD_REACTORS
330
17
102
}
330
17
100
AcDbMlineStyle
  2
Standard
 70
     0
  3

 62
   256
 51
90.0
 52
90.0
 71
     2
 49
0.5
 62
   256
  6
BYLAYER
 49
-0.5
 62
   256
  6
BYLAYER
  0
ACDBPLACEHOLDER
  5
F
102
{ACAD_REACTORS
330
E
102
}
330
E
  0
SCALE
  5
48
102
{ACAD_REACTORS
330
47
102
}
330
47
100
AcDbScale
 70
     0
300
1:1
140
1.0
141
1.0
290
     1
  0
SCALE
  5
49
102
{ACAD_REACTORS
330
47
102
}
330
47
100
AcDbScale
 70
     0
300
1:2
140
1.0
141
2.0
290
     0
  0
SCALE
  5
4A
102
{ACAD_REACTORS
330
47
102
}
330
47
100
AcDbScale
 70
     0
300
1:4
140
1.0
141
4.0
290
     0
  0
SCALE
  5
4B
102
{ACAD_REACTORS
330
47
102
}
330
47
100
AcDbScale
 70
     0
300
1:5
140
1.0
141
5.0
290
     0
  0
SCALE
  5
4C
102
{ACAD_REACTORS
330
47
102
}
330
47
100
AcDbScale
 70
     0
300
1:8
140
1.0
141
8.0
290
     0
  0
SCALE
  5
4D
102
{ACAD_REACTORS
330
47
102
}
330
47
100
AcDbScale
 70
     0
300
1:10
140
1.0
141
10.0
290
     0
  0
SCALE
  5
4E
102
{ACAD_REACTORS
330
47
102
}
330
47
100
AcDbScale
 70
     0
300
1:16
140
1.0
141
16.0
290
     0
  0
SCALE
  5
4F
102
{ACAD_REACTORS
330
47
102
}
330
47
100
AcDbScale
 70
     0
300
1:20
140
1.0
141
20.0
290
     0
  0
SCALE
  5
50
102
{ACAD_REACTORS
330
47
102
}
330
47
100
AcDbScale
 70
     0
300
1:30
140
1.0
141
30.0
290
     0
  0
SCALE
  5
51
102
{ACAD_REACTORS
330
47
102
}
330
47
100
AcDbScale
 70
     0
300
1:40
140
1.0
141
40.0
290
     0
  0
SCALE
  5
52
102
{ACAD_REACTORS
330
47
102
}
330
47
100
AcDbScale
 70
     0
300
1:50
140
1.0
141
50.0
290
     0
  0
SCALE
  5
53
102
{ACAD_REACTORS
330
47
102
}
330
47
100
AcDbScale
 70
     0
300
1:100
140
1.0
141
100.0
290
     0
  0
SCALE
  5
54
102
{ACAD_REACTORS
330
47
102
}
330
47
100
AcDbScale
 70
     0
300
2:1
140
2.0
141
1.0
290
     0
  0
SCALE
  5
55
102
{ACAD_REACTORS
330
47
102
}
330
47
100
AcDbScale
 70
     0
300
4:1
140
4.0
141
1.0
290
     0
  0
SCALE
  5
56
102
{ACAD_REACTORS
330
47
102
}
330
47
100
AcDbScale
 70
     0
300
8:1
140
8.0
141
1.0
290
     0
  0
SCALE
  5
57
102
{ACAD_REACTORS
330
47
102
}
330
47
100
AcDbScale
 70
     0
300
10:1
140
10.0
141
1.0
290
     0
  0
SCALE
  5
58
102
{ACAD_REACTORS
330
47
102
}
330
47
100
AcDbScale
 70
     0
300
100:1
140
100.0
141
1.0
290
     0
  0
SCALE
  5
59
102
{ACAD_REACTORS
330
47
102
}
330
47
100
AcDbScale
 70
     0
300
1/128" = 1'-0"
140
0.0078125
141
12.0
290
     0
  0
SCALE
  5
5A
102
{ACAD_REACTORS
330
47
102
}
330
47
100
AcDbScale
 70
     0
300
1/64" = 1'-0"
140
0.015625
141
12.0
290
     0
  0
SCALE
  5
5B
102
{ACAD_REACTORS
330
47
102
}
330
47
100
AcDbScale
 70
     0
300
1/32" = 1'-0"
140
0.03125
141
12.0
290
     0
  0
SCALE
  5
5C
102
{ACAD_REACTORS
330
47
102
}
330
47
100
AcDbScale
 70
     0
300
1/16" = 1'-0"
140
0.0625
141
12.0
290
     0
  0
SCALE
  5
5D
102
{ACAD_REACTORS
330
47
102
}
330
47
100
AcDbScale
 70
     0
300
3/32" = 1'-0"
140
0.09375
141
12.0
290
     0
  0
SCALE
  5
5E
102
{ACAD_REACTORS
330
47
102
}
330
47
100
AcDbScale
 70
     0
300
1/8" = 1'-0"
140
0.125
141
12.0
290
     0
  0
SCALE
  5
5F
102
{ACAD_REACTORS
330
47
102
}
330
47
100
AcDbScale
 70
     0
300
3/16" = 1'-0"
140
0.1875
141
12.0
290
     0
  0
SCALE
  5
60
102
{ACAD_REACTORS
330
47
102
}
330
47
100
AcDbScale
 70
     0
300
1/4" = 1'-0"
140
0.25
141
12.0
290
     0
  0
SCALE
  5
61
102
{ACAD_REACTORS
330
47
102
}
330
47
100
AcDbScale
 70
     0
300
3/8" = 1'-0"
140
0.375
141
12.0
290
     0
  0
SCALE
  5
62
102
{ACAD_REACTORS
330
47
102
}
330
47
100
AcDbScale
 70
     0
300
1/2" = 1'-0"
140
0.5
141
12.0
290
     0
  0
SCALE
  5
63
102
{ACAD_REACTORS
330
47
102
}
330
47
100
AcDbScale
 70
     0
300
3/4" = 1'-0"
140
0.75
141
12.0
290
     0
  0
SCALE
  5
64
102
{ACAD_REACTORS
330
47
102
}
330
47
100
AcDbScale
 70
     0
300
1" = 1'-0"
140
1.0
141
12.0
290
     0
  0
SCALE
  5
65
102
{ACAD_REACTORS
330
47
102
}
330
47
100
AcDbScale
 70
     0
300
1-1/2" = 1'-0"
140
1.5
141
12.0
290
     0
  0
SCALE
  5
66
102
{ACAD_REACTORS
330
47
102
}
330
47
100
AcDbScale
 70
     0
300
3" = 1'-0"
140
3.0
141
12.0
290
     0
  0
SCALE
  5
67
102
{ACAD_REACTORS
330
47
102
}
330
47
100
AcDbScale
 70
     0
300
6" = 1'-0"
140
6.0
141
12.0
290
     0
  0
SCALE
  5
68
102
{ACAD_REACTORS
330
47
102
}
330
47
100
AcDbScale
 70
     0
300
1'-0" = 1'-0"
140
12.0
141
12.0
290
     0
  0
ENDSEC
  0
EOF
