solid ascii
  facet normal 8.715574e-002 9.961947e-001 -0.000000e+000
    outer loop
      vertex   1.000000e+001 1.125000e+001 0.000000e+000
      vertex   1.000000e+001 1.125000e+001 1.000000e+001
      vertex   1.021706e+001 1.123101e+001 0.000000e+000
    endloop
  endfacet
  facet normal 8.715574e-002 9.961947e-001 0.000000e+000
    outer loop
      vertex   1.021706e+001 1.123101e+001 0.000000e+000
      vertex   1.000000e+001 1.125000e+001 1.000000e+001
      vertex   1.021706e+001 1.123101e+001 1.000000e+001
    endloop
  endfacet
  facet normal 2.588190e-001 9.659258e-001 0.000000e+000
    outer loop
      vertex   1.042753e+001 1.117462e+001 0.000000e+000
      vertex   1.021706e+001 1.123101e+001 1.000000e+001
      vertex   1.042753e+001 1.117462e+001 1.000000e+001
    endloop
  endfacet
  facet normal 4.226183e-001 9.063078e-001 0.000000e+000
    outer loop
      vertex   1.062500e+001 1.108253e+001 0.000000e+000
      vertex   1.042753e+001 1.117462e+001 1.000000e+001
      vertex   1.062500e+001 1.108253e+001 1.000000e+001
    endloop
  endfacet
  facet normal 5.735764e-001 8.191520e-001 0.000000e+000
    outer loop
      vertex   1.080348e+001 1.095756e+001 0.000000e+000
      vertex   1.062500e+001 1.108253e+001 1.000000e+001
      vertex   1.080348e+001 1.095756e+001 1.000000e+001
    endloop
  endfacet
  facet normal 7.071068e-001 7.071068e-001 0.000000e+000
    outer loop
      vertex   1.095756e+001 1.080348e+001 0.000000e+000
      vertex   1.080348e+001 1.095756e+001 1.000000e+001
      vertex   1.095756e+001 1.080348e+001 1.000000e+001
    endloop
  endfacet
  facet normal 8.191520e-001 5.735764e-001 0.000000e+000
    outer loop
      vertex   1.108253e+001 1.062500e+001 0.000000e+000
      vertex   1.095756e+001 1.080348e+001 1.000000e+001
      vertex   1.108253e+001 1.062500e+001 1.000000e+001
    endloop
  endfacet
  facet normal 9.063078e-001 4.226183e-001 0.000000e+000
    outer loop
      vertex   1.117462e+001 1.042753e+001 0.000000e+000
      vertex   1.108253e+001 1.062500e+001 1.000000e+001
      vertex   1.117462e+001 1.042753e+001 1.000000e+001
    endloop
  endfacet
  facet normal 9.659258e-001 2.588190e-001 0.000000e+000
    outer loop
      vertex   1.123101e+001 1.021706e+001 0.000000e+000
      vertex   1.117462e+001 1.042753e+001 1.000000e+001
      vertex   1.123101e+001 1.021706e+001 1.000000e+001
    endloop
  endfacet
  facet normal 9.961947e-001 8.715574e-002 0.000000e+000
    outer loop
      vertex   1.125000e+001 1.000000e+001 0.000000e+000
      vertex   1.123101e+001 1.021706e+001 1.000000e+001
      vertex   1.125000e+001 1.000000e+001 1.000000e+001
    endloop
  endfacet
  facet normal 9.961947e-001 8.715574e-002 -0.000000e+000
    outer loop
      vertex   1.125000e+001 1.000000e+001 0.000000e+000
      vertex   1.123101e+001 1.021706e+001 0.000000e+000
      vertex   1.123101e+001 1.021706e+001 1.000000e+001
    endloop
  endfacet
  facet normal 9.659258e-001 2.588190e-001 -0.000000e+000
    outer loop
      vertex   1.123101e+001 1.021706e+001 0.000000e+000
      vertex   1.117462e+001 1.042753e+001 0.000000e+000
      vertex   1.117462e+001 1.042753e+001 1.000000e+001
    endloop
  endfacet
  facet normal 9.063078e-001 4.226183e-001 -0.000000e+000
    outer loop
      vertex   1.117462e+001 1.042753e+001 0.000000e+000
      vertex   1.108253e+001 1.062500e+001 0.000000e+000
      vertex   1.108253e+001 1.062500e+001 1.000000e+001
    endloop
  endfacet
  facet normal 8.191520e-001 5.735764e-001 -0.000000e+000
    outer loop
      vertex   1.108253e+001 1.062500e+001 0.000000e+000
      vertex   1.095756e+001 1.080348e+001 0.000000e+000
      vertex   1.095756e+001 1.080348e+001 1.000000e+001
    endloop
  endfacet
  facet normal 7.071068e-001 7.071068e-001 -0.000000e+000
    outer loop
      vertex   1.095756e+001 1.080348e+001 0.000000e+000
      vertex   1.080348e+001 1.095756e+001 0.000000e+000
      vertex   1.080348e+001 1.095756e+001 1.000000e+001
    endloop
  endfacet
  facet normal 5.735764e-001 8.191520e-001 -0.000000e+000
    outer loop
      vertex   1.080348e+001 1.095756e+001 0.000000e+000
      vertex   1.062500e+001 1.108253e+001 0.000000e+000
      vertex   1.062500e+001 1.108253e+001 1.000000e+001
    endloop
  endfacet
  facet normal 4.226183e-001 9.063078e-001 -0.000000e+000
    outer loop
      vertex   1.062500e+001 1.108253e+001 0.000000e+000
      vertex   1.042753e+001 1.117462e+001 0.000000e+000
      vertex   1.042753e+001 1.117462e+001 1.000000e+001
    endloop
  endfacet
  facet normal 2.588190e-001 9.659258e-001 -0.000000e+000
    outer loop
      vertex   1.042753e+001 1.117462e+001 0.000000e+000
      vertex   1.021706e+001 1.123101e+001 0.000000e+000
      vertex   1.021706e+001 1.123101e+001 1.000000e+001
    endloop
  endfacet
  facet normal 1.000000e+000 2.220446e-016 0.000000e+000
    outer loop
      vertex   1.125000e+001 1.000000e+001 1.000000e+001
      vertex   1.125000e+001 -1.000000e+001 1.000000e+001
      vertex   1.125000e+001 1.000000e+001 0.000000e+000
    endloop
  endfacet
  facet normal 1.000000e+000 2.220446e-016 0.000000e+000
    outer loop
      vertex   1.125000e+001 1.000000e+001 0.000000e+000
      vertex   1.125000e+001 -1.000000e+001 1.000000e+001
      vertex   1.125000e+001 -1.000000e+001 0.000000e+000
    endloop
  endfacet
  facet normal 9.961947e-001 -8.715574e-002 0.000000e+000
    outer loop
      vertex   1.125000e+001 -1.000000e+001 0.000000e+000
      vertex   1.125000e+001 -1.000000e+001 1.000000e+001
      vertex   1.123101e+001 -1.021706e+001 0.000000e+000
    endloop
  endfacet
  facet normal 9.961947e-001 -8.715574e-002 0.000000e+000
    outer loop
      vertex   1.123101e+001 -1.021706e+001 0.000000e+000
      vertex   1.125000e+001 -1.000000e+001 1.000000e+001
      vertex   1.123101e+001 -1.021706e+001 1.000000e+001
    endloop
  endfacet
  facet normal 9.659258e-001 -2.588190e-001 0.000000e+000
    outer loop
      vertex   1.117462e+001 -1.042753e+001 0.000000e+000
      vertex   1.123101e+001 -1.021706e+001 1.000000e+001
      vertex   1.117462e+001 -1.042753e+001 1.000000e+001
    endloop
  endfacet
  facet normal 9.063078e-001 -4.226183e-001 0.000000e+000
    outer loop
      vertex   1.108253e+001 -1.062500e+001 0.000000e+000
      vertex   1.117462e+001 -1.042753e+001 1.000000e+001
      vertex   1.108253e+001 -1.062500e+001 1.000000e+001
    endloop
  endfacet
  facet normal 8.191520e-001 -5.735764e-001 0.000000e+000
    outer loop
      vertex   1.095756e+001 -1.080348e+001 0.000000e+000
      vertex   1.108253e+001 -1.062500e+001 1.000000e+001
      vertex   1.095756e+001 -1.080348e+001 1.000000e+001
    endloop
  endfacet
  facet normal 7.071068e-001 -7.071068e-001 0.000000e+000
    outer loop
      vertex   1.080348e+001 -1.095756e+001 0.000000e+000
      vertex   1.095756e+001 -1.080348e+001 1.000000e+001
      vertex   1.080348e+001 -1.095756e+001 1.000000e+001
    endloop
  endfacet
  facet normal 5.735764e-001 -8.191520e-001 0.000000e+000
    outer loop
      vertex   1.062500e+001 -1.108253e+001 0.000000e+000
      vertex   1.080348e+001 -1.095756e+001 1.000000e+001
      vertex   1.062500e+001 -1.108253e+001 1.000000e+001
    endloop
  endfacet
  facet normal 4.226183e-001 -9.063078e-001 0.000000e+000
    outer loop
      vertex   1.042753e+001 -1.117462e+001 0.000000e+000
      vertex   1.062500e+001 -1.108253e+001 1.000000e+001
      vertex   1.042753e+001 -1.117462e+001 1.000000e+001
    endloop
  endfacet
  facet normal 2.588190e-001 -9.659258e-001 0.000000e+000
    outer loop
      vertex   1.021706e+001 -1.123101e+001 0.000000e+000
      vertex   1.042753e+001 -1.117462e+001 1.000000e+001
      vertex   1.021706e+001 -1.123101e+001 1.000000e+001
    endloop
  endfacet
  facet normal 8.715574e-002 -9.961947e-001 0.000000e+000
    outer loop
      vertex   1.000000e+001 -1.125000e+001 0.000000e+000
      vertex   1.021706e+001 -1.123101e+001 1.000000e+001
      vertex   1.000000e+001 -1.125000e+001 1.000000e+001
    endloop
  endfacet
  facet normal 8.715574e-002 -9.961947e-001 0.000000e+000
    outer loop
      vertex   1.000000e+001 -1.125000e+001 0.000000e+000
      vertex   1.021706e+001 -1.123101e+001 0.000000e+000
      vertex   1.021706e+001 -1.123101e+001 1.000000e+001
    endloop
  endfacet
  facet normal 2.588190e-001 -9.659258e-001 0.000000e+000
    outer loop
      vertex   1.021706e+001 -1.123101e+001 0.000000e+000
      vertex   1.042753e+001 -1.117462e+001 0.000000e+000
      vertex   1.042753e+001 -1.117462e+001 1.000000e+001
    endloop
  endfacet
  facet normal 4.226183e-001 -9.063078e-001 0.000000e+000
    outer loop
      vertex   1.042753e+001 -1.117462e+001 0.000000e+000
      vertex   1.062500e+001 -1.108253e+001 0.000000e+000
      vertex   1.062500e+001 -1.108253e+001 1.000000e+001
    endloop
  endfacet
  facet normal 5.735764e-001 -8.191520e-001 0.000000e+000
    outer loop
      vertex   1.062500e+001 -1.108253e+001 0.000000e+000
      vertex   1.080348e+001 -1.095756e+001 0.000000e+000
      vertex   1.080348e+001 -1.095756e+001 1.000000e+001
    endloop
  endfacet
  facet normal 7.071068e-001 -7.071068e-001 0.000000e+000
    outer loop
      vertex   1.080348e+001 -1.095756e+001 0.000000e+000
      vertex   1.095756e+001 -1.080348e+001 0.000000e+000
      vertex   1.095756e+001 -1.080348e+001 1.000000e+001
    endloop
  endfacet
  facet normal 8.191520e-001 -5.735764e-001 0.000000e+000
    outer loop
      vertex   1.095756e+001 -1.080348e+001 0.000000e+000
      vertex   1.108253e+001 -1.062500e+001 0.000000e+000
      vertex   1.108253e+001 -1.062500e+001 1.000000e+001
    endloop
  endfacet
  facet normal 9.063078e-001 -4.226183e-001 0.000000e+000
    outer loop
      vertex   1.108253e+001 -1.062500e+001 0.000000e+000
      vertex   1.117462e+001 -1.042753e+001 0.000000e+000
      vertex   1.117462e+001 -1.042753e+001 1.000000e+001
    endloop
  endfacet
  facet normal 9.659258e-001 -2.588190e-001 0.000000e+000
    outer loop
      vertex   1.117462e+001 -1.042753e+001 0.000000e+000
      vertex   1.123101e+001 -1.021706e+001 0.000000e+000
      vertex   1.123101e+001 -1.021706e+001 1.000000e+001
    endloop
  endfacet
  facet normal -2.220446e-016 -1.000000e+000 0.000000e+000
    outer loop
      vertex   1.000000e+001 -1.125000e+001 1.000000e+001
      vertex   -1.000000e+001 -1.125000e+001 1.000000e+001
      vertex   1.000000e+001 -1.125000e+001 0.000000e+000
    endloop
  endfacet
  facet normal -2.220446e-016 -1.000000e+000 -0.000000e+000
    outer loop
      vertex   1.000000e+001 -1.125000e+001 0.000000e+000
      vertex   -1.000000e+001 -1.125000e+001 1.000000e+001
      vertex   -1.000000e+001 -1.125000e+001 0.000000e+000
    endloop
  endfacet
  facet normal -8.715574e-002 -9.961947e-001 0.000000e+000
    outer loop
      vertex   -1.000000e+001 -1.125000e+001 0.000000e+000
      vertex   -1.000000e+001 -1.125000e+001 1.000000e+001
      vertex   -1.021706e+001 -1.123101e+001 0.000000e+000
    endloop
  endfacet
  facet normal -8.715574e-002 -9.961947e-001 0.000000e+000
    outer loop
      vertex   -1.021706e+001 -1.123101e+001 0.000000e+000
      vertex   -1.000000e+001 -1.125000e+001 1.000000e+001
      vertex   -1.021706e+001 -1.123101e+001 1.000000e+001
    endloop
  endfacet
  facet normal -2.588190e-001 -9.659258e-001 5.722319e-017
    outer loop
      vertex   -1.042753e+001 -1.117462e+001 0.000000e+000
      vertex   -1.021706e+001 -1.123101e+001 1.000000e+001
      vertex   -1.042753e+001 -1.117462e+001 1.000000e+001
    endloop
  endfacet
  facet normal -4.226183e-001 -9.063078e-001 0.000000e+000
    outer loop
      vertex   -1.062500e+001 -1.108253e+001 0.000000e+000
      vertex   -1.042753e+001 -1.117462e+001 1.000000e+001
      vertex   -1.062500e+001 -1.108253e+001 1.000000e+001
    endloop
  endfacet
  facet normal -5.735764e-001 -8.191520e-001 1.281302e-016
    outer loop
      vertex   -1.080348e+001 -1.095756e+001 0.000000e+000
      vertex   -1.062500e+001 -1.108253e+001 1.000000e+001
      vertex   -1.080348e+001 -1.095756e+001 1.000000e+001
    endloop
  endfacet
  facet normal -7.071068e-001 -7.071068e-001 0.000000e+000
    outer loop
      vertex   -1.095756e+001 -1.080348e+001 0.000000e+000
      vertex   -1.080348e+001 -1.095756e+001 1.000000e+001
      vertex   -1.095756e+001 -1.080348e+001 1.000000e+001
    endloop
  endfacet
  facet normal -8.191520e-001 -5.735764e-001 0.000000e+000
    outer loop
      vertex   -1.108253e+001 -1.062500e+001 0.000000e+000
      vertex   -1.095756e+001 -1.080348e+001 1.000000e+001
      vertex   -1.108253e+001 -1.062500e+001 1.000000e+001
    endloop
  endfacet
  facet normal -9.063078e-001 -4.226183e-001 0.000000e+000
    outer loop
      vertex   -1.117462e+001 -1.042753e+001 0.000000e+000
      vertex   -1.108253e+001 -1.062500e+001 1.000000e+001
      vertex   -1.117462e+001 -1.042753e+001 1.000000e+001
    endloop
  endfacet
  facet normal -9.659258e-001 -2.588190e-001 0.000000e+000
    outer loop
      vertex   -1.123101e+001 -1.021706e+001 0.000000e+000
      vertex   -1.117462e+001 -1.042753e+001 1.000000e+001
      vertex   -1.123101e+001 -1.021706e+001 1.000000e+001
    endloop
  endfacet
  facet normal -9.961947e-001 -8.715574e-002 0.000000e+000
    outer loop
      vertex   -1.125000e+001 -1.000000e+001 0.000000e+000
      vertex   -1.123101e+001 -1.021706e+001 1.000000e+001
      vertex   -1.125000e+001 -1.000000e+001 1.000000e+001
    endloop
  endfacet
  facet normal -9.961947e-001 -8.715574e-002 0.000000e+000
    outer loop
      vertex   -1.125000e+001 -1.000000e+001 0.000000e+000
      vertex   -1.123101e+001 -1.021706e+001 0.000000e+000
      vertex   -1.123101e+001 -1.021706e+001 1.000000e+001
    endloop
  endfacet
  facet normal -9.659258e-001 -2.588190e-001 0.000000e+000
    outer loop
      vertex   -1.123101e+001 -1.021706e+001 0.000000e+000
      vertex   -1.117462e+001 -1.042753e+001 0.000000e+000
      vertex   -1.117462e+001 -1.042753e+001 1.000000e+001
    endloop
  endfacet
  facet normal -9.063078e-001 -4.226183e-001 0.000000e+000
    outer loop
      vertex   -1.117462e+001 -1.042753e+001 0.000000e+000
      vertex   -1.108253e+001 -1.062500e+001 0.000000e+000
      vertex   -1.108253e+001 -1.062500e+001 1.000000e+001
    endloop
  endfacet
  facet normal -8.191520e-001 -5.735764e-001 0.000000e+000
    outer loop
      vertex   -1.108253e+001 -1.062500e+001 0.000000e+000
      vertex   -1.095756e+001 -1.080348e+001 0.000000e+000
      vertex   -1.095756e+001 -1.080348e+001 1.000000e+001
    endloop
  endfacet
  facet normal -7.071068e-001 -7.071068e-001 1.570092e-016
    outer loop
      vertex   -1.095756e+001 -1.080348e+001 0.000000e+000
      vertex   -1.080348e+001 -1.095756e+001 0.000000e+000
      vertex   -1.080348e+001 -1.095756e+001 1.000000e+001
    endloop
  endfacet
  facet normal -5.735764e-001 -8.191520e-001 0.000000e+000
    outer loop
      vertex   -1.080348e+001 -1.095756e+001 0.000000e+000
      vertex   -1.062500e+001 -1.108253e+001 0.000000e+000
      vertex   -1.062500e+001 -1.108253e+001 1.000000e+001
    endloop
  endfacet
  facet normal -4.226183e-001 -9.063078e-001 9.384010e-017
    outer loop
      vertex   -1.062500e+001 -1.108253e+001 0.000000e+000
      vertex   -1.042753e+001 -1.117462e+001 0.000000e+000
      vertex   -1.042753e+001 -1.117462e+001 1.000000e+001
    endloop
  endfacet
  facet normal -2.588190e-001 -9.659258e-001 0.000000e+000
    outer loop
      vertex   -1.042753e+001 -1.117462e+001 0.000000e+000
      vertex   -1.021706e+001 -1.123101e+001 0.000000e+000
      vertex   -1.021706e+001 -1.123101e+001 1.000000e+001
    endloop
  endfacet
  facet normal -1.000000e+000 0.000000e+000 -0.000000e+000
    outer loop
      vertex   -1.125000e+001 -1.000000e+001 1.000000e+001
      vertex   -1.125000e+001 1.000000e+001 1.000000e+001
      vertex   -1.125000e+001 -1.000000e+001 0.000000e+000
    endloop
  endfacet
  facet normal -1.000000e+000 0.000000e+000 0.000000e+000
    outer loop
      vertex   -1.125000e+001 -1.000000e+001 0.000000e+000
      vertex   -1.125000e+001 1.000000e+001 1.000000e+001
      vertex   -1.125000e+001 1.000000e+001 0.000000e+000
    endloop
  endfacet
  facet normal -9.961947e-001 8.715574e-002 0.000000e+000
    outer loop
      vertex   -1.125000e+001 1.000000e+001 0.000000e+000
      vertex   -1.125000e+001 1.000000e+001 1.000000e+001
      vertex   -1.123101e+001 1.021706e+001 0.000000e+000
    endloop
  endfacet
  facet normal -9.961947e-001 8.715574e-002 0.000000e+000
    outer loop
      vertex   -1.123101e+001 1.021706e+001 0.000000e+000
      vertex   -1.125000e+001 1.000000e+001 1.000000e+001
      vertex   -1.123101e+001 1.021706e+001 1.000000e+001
    endloop
  endfacet
  facet normal -9.659258e-001 2.588190e-001 0.000000e+000
    outer loop
      vertex   -1.117462e+001 1.042753e+001 0.000000e+000
      vertex   -1.123101e+001 1.021706e+001 1.000000e+001
      vertex   -1.117462e+001 1.042753e+001 1.000000e+001
    endloop
  endfacet
  facet normal -9.063078e-001 4.226183e-001 0.000000e+000
    outer loop
      vertex   -1.108253e+001 1.062500e+001 0.000000e+000
      vertex   -1.117462e+001 1.042753e+001 1.000000e+001
      vertex   -1.108253e+001 1.062500e+001 1.000000e+001
    endloop
  endfacet
  facet normal -8.191520e-001 5.735764e-001 0.000000e+000
    outer loop
      vertex   -1.095756e+001 1.080348e+001 0.000000e+000
      vertex   -1.108253e+001 1.062500e+001 1.000000e+001
      vertex   -1.095756e+001 1.080348e+001 1.000000e+001
    endloop
  endfacet
  facet normal -7.071068e-001 7.071068e-001 0.000000e+000
    outer loop
      vertex   -1.080348e+001 1.095756e+001 0.000000e+000
      vertex   -1.095756e+001 1.080348e+001 1.000000e+001
      vertex   -1.080348e+001 1.095756e+001 1.000000e+001
    endloop
  endfacet
  facet normal -5.735764e-001 8.191520e-001 0.000000e+000
    outer loop
      vertex   -1.062500e+001 1.108253e+001 0.000000e+000
      vertex   -1.080348e+001 1.095756e+001 1.000000e+001
      vertex   -1.062500e+001 1.108253e+001 1.000000e+001
    endloop
  endfacet
  facet normal -4.226183e-001 9.063078e-001 0.000000e+000
    outer loop
      vertex   -1.042753e+001 1.117462e+001 0.000000e+000
      vertex   -1.062500e+001 1.108253e+001 1.000000e+001
      vertex   -1.042753e+001 1.117462e+001 1.000000e+001
    endloop
  endfacet
  facet normal -2.588190e-001 9.659258e-001 0.000000e+000
    outer loop
      vertex   -1.021706e+001 1.123101e+001 0.000000e+000
      vertex   -1.042753e+001 1.117462e+001 1.000000e+001
      vertex   -1.021706e+001 1.123101e+001 1.000000e+001
    endloop
  endfacet
  facet normal -8.715574e-002 9.961947e-001 0.000000e+000
    outer loop
      vertex   -1.000000e+001 1.125000e+001 0.000000e+000
      vertex   -1.021706e+001 1.123101e+001 1.000000e+001
      vertex   -1.000000e+001 1.125000e+001 1.000000e+001
    endloop
  endfacet
  facet normal -8.715574e-002 9.961947e-001 0.000000e+000
    outer loop
      vertex   -1.000000e+001 1.125000e+001 0.000000e+000
      vertex   -1.021706e+001 1.123101e+001 0.000000e+000
      vertex   -1.021706e+001 1.123101e+001 1.000000e+001
    endloop
  endfacet
  facet normal -2.588190e-001 9.659258e-001 0.000000e+000
    outer loop
      vertex   -1.021706e+001 1.123101e+001 0.000000e+000
      vertex   -1.042753e+001 1.117462e+001 0.000000e+000
      vertex   -1.042753e+001 1.117462e+001 1.000000e+001
    endloop
  endfacet
  facet normal -4.226183e-001 9.063078e-001 0.000000e+000
    outer loop
      vertex   -1.042753e+001 1.117462e+001 0.000000e+000
      vertex   -1.062500e+001 1.108253e+001 0.000000e+000
      vertex   -1.062500e+001 1.108253e+001 1.000000e+001
    endloop
  endfacet
  facet normal -5.735764e-001 8.191520e-001 0.000000e+000
    outer loop
      vertex   -1.062500e+001 1.108253e+001 0.000000e+000
      vertex   -1.080348e+001 1.095756e+001 0.000000e+000
      vertex   -1.080348e+001 1.095756e+001 1.000000e+001
    endloop
  endfacet
  facet normal -7.071068e-001 7.071068e-001 0.000000e+000
    outer loop
      vertex   -1.080348e+001 1.095756e+001 0.000000e+000
      vertex   -1.095756e+001 1.080348e+001 0.000000e+000
      vertex   -1.095756e+001 1.080348e+001 1.000000e+001
    endloop
  endfacet
  facet normal -8.191520e-001 5.735764e-001 0.000000e+000
    outer loop
      vertex   -1.095756e+001 1.080348e+001 0.000000e+000
      vertex   -1.108253e+001 1.062500e+001 0.000000e+000
      vertex   -1.108253e+001 1.062500e+001 1.000000e+001
    endloop
  endfacet
  facet normal -9.063078e-001 4.226183e-001 0.000000e+000
    outer loop
      vertex   -1.108253e+001 1.062500e+001 0.000000e+000
      vertex   -1.117462e+001 1.042753e+001 0.000000e+000
      vertex   -1.117462e+001 1.042753e+001 1.000000e+001
    endloop
  endfacet
  facet normal -9.659258e-001 2.588190e-001 0.000000e+000
    outer loop
      vertex   -1.117462e+001 1.042753e+001 0.000000e+000
      vertex   -1.123101e+001 1.021706e+001 0.000000e+000
      vertex   -1.123101e+001 1.021706e+001 1.000000e+001
    endloop
  endfacet
  facet normal -0.000000e+000 1.000000e+000 0.000000e+000
    outer loop
      vertex   -1.000000e+001 1.125000e+001 1.000000e+001
      vertex   1.000000e+001 1.125000e+001 1.000000e+001
      vertex   -1.000000e+001 1.125000e+001 0.000000e+000
    endloop
  endfacet
  facet normal -0.000000e+000 1.000000e+000 0.000000e+000
    outer loop
      vertex   -1.000000e+001 1.125000e+001 0.000000e+000
      vertex   1.000000e+001 1.125000e+001 1.000000e+001
      vertex   1.000000e+001 1.125000e+001 0.000000e+000
    endloop
  endfacet
  facet normal 8.715574e-002 -9.961947e-001 0.000000e+000
    outer loop
      vertex   -1.000000e+001 1.100000e+001 0.000000e+000
      vertex   -1.000000e+001 1.100000e+001 1.000000e+001
      vertex   -1.017365e+001 1.098481e+001 0.000000e+000
    endloop
  endfacet
  facet normal 8.715574e-002 -9.961947e-001 0.000000e+000
    outer loop
      vertex   -1.017365e+001 1.098481e+001 0.000000e+000
      vertex   -1.000000e+001 1.100000e+001 1.000000e+001
      vertex   -1.017365e+001 1.098481e+001 1.000000e+001
    endloop
  endfacet
  facet normal 2.588190e-001 -9.659258e-001 0.000000e+000
    outer loop
      vertex   -1.034202e+001 1.093969e+001 0.000000e+000
      vertex   -1.017365e+001 1.098481e+001 1.000000e+001
      vertex   -1.034202e+001 1.093969e+001 1.000000e+001
    endloop
  endfacet
  facet normal 4.226183e-001 -9.063078e-001 0.000000e+000
    outer loop
      vertex   -1.050000e+001 1.086603e+001 0.000000e+000
      vertex   -1.034202e+001 1.093969e+001 1.000000e+001
      vertex   -1.050000e+001 1.086603e+001 1.000000e+001
    endloop
  endfacet
  facet normal 5.735764e-001 -8.191520e-001 0.000000e+000
    outer loop
      vertex   -1.064279e+001 1.076604e+001 0.000000e+000
      vertex   -1.050000e+001 1.086603e+001 1.000000e+001
      vertex   -1.064279e+001 1.076604e+001 1.000000e+001
    endloop
  endfacet
  facet normal 7.071068e-001 -7.071068e-001 0.000000e+000
    outer loop
      vertex   -1.076604e+001 1.064279e+001 0.000000e+000
      vertex   -1.064279e+001 1.076604e+001 1.000000e+001
      vertex   -1.076604e+001 1.064279e+001 1.000000e+001
    endloop
  endfacet
  facet normal 8.191520e-001 -5.735764e-001 0.000000e+000
    outer loop
      vertex   -1.086603e+001 1.050000e+001 0.000000e+000
      vertex   -1.076604e+001 1.064279e+001 1.000000e+001
      vertex   -1.086603e+001 1.050000e+001 1.000000e+001
    endloop
  endfacet
  facet normal 9.063078e-001 -4.226183e-001 0.000000e+000
    outer loop
      vertex   -1.093969e+001 1.034202e+001 0.000000e+000
      vertex   -1.086603e+001 1.050000e+001 1.000000e+001
      vertex   -1.093969e+001 1.034202e+001 1.000000e+001
    endloop
  endfacet
  facet normal 9.659258e-001 -2.588190e-001 0.000000e+000
    outer loop
      vertex   -1.098481e+001 1.017365e+001 0.000000e+000
      vertex   -1.093969e+001 1.034202e+001 1.000000e+001
      vertex   -1.098481e+001 1.017365e+001 1.000000e+001
    endloop
  endfacet
  facet normal 9.961947e-001 -8.715574e-002 0.000000e+000
    outer loop
      vertex   -1.100000e+001 1.000000e+001 0.000000e+000
      vertex   -1.098481e+001 1.017365e+001 1.000000e+001
      vertex   -1.100000e+001 1.000000e+001 1.000000e+001
    endloop
  endfacet
  facet normal 9.961947e-001 -8.715574e-002 0.000000e+000
    outer loop
      vertex   -1.100000e+001 1.000000e+001 0.000000e+000
      vertex   -1.098481e+001 1.017365e+001 0.000000e+000
      vertex   -1.098481e+001 1.017365e+001 1.000000e+001
    endloop
  endfacet
  facet normal 9.659258e-001 -2.588190e-001 0.000000e+000
    outer loop
      vertex   -1.098481e+001 1.017365e+001 0.000000e+000
      vertex   -1.093969e+001 1.034202e+001 0.000000e+000
      vertex   -1.093969e+001 1.034202e+001 1.000000e+001
    endloop
  endfacet
  facet normal 9.063078e-001 -4.226183e-001 0.000000e+000
    outer loop
      vertex   -1.093969e+001 1.034202e+001 0.000000e+000
      vertex   -1.086603e+001 1.050000e+001 0.000000e+000
      vertex   -1.086603e+001 1.050000e+001 1.000000e+001
    endloop
  endfacet
  facet normal 8.191520e-001 -5.735764e-001 0.000000e+000
    outer loop
      vertex   -1.086603e+001 1.050000e+001 0.000000e+000
      vertex   -1.076604e+001 1.064279e+001 0.000000e+000
      vertex   -1.076604e+001 1.064279e+001 1.000000e+001
    endloop
  endfacet
  facet normal 7.071068e-001 -7.071068e-001 0.000000e+000
    outer loop
      vertex   -1.076604e+001 1.064279e+001 0.000000e+000
      vertex   -1.064279e+001 1.076604e+001 0.000000e+000
      vertex   -1.064279e+001 1.076604e+001 1.000000e+001
    endloop
  endfacet
  facet normal 5.735764e-001 -8.191520e-001 0.000000e+000
    outer loop
      vertex   -1.064279e+001 1.076604e+001 0.000000e+000
      vertex   -1.050000e+001 1.086603e+001 0.000000e+000
      vertex   -1.050000e+001 1.086603e+001 1.000000e+001
    endloop
  endfacet
  facet normal 4.226183e-001 -9.063078e-001 0.000000e+000
    outer loop
      vertex   -1.050000e+001 1.086603e+001 0.000000e+000
      vertex   -1.034202e+001 1.093969e+001 0.000000e+000
      vertex   -1.034202e+001 1.093969e+001 1.000000e+001
    endloop
  endfacet
  facet normal 2.588190e-001 -9.659258e-001 0.000000e+000
    outer loop
      vertex   -1.034202e+001 1.093969e+001 0.000000e+000
      vertex   -1.017365e+001 1.098481e+001 0.000000e+000
      vertex   -1.017365e+001 1.098481e+001 1.000000e+001
    endloop
  endfacet
  facet normal 1.000000e+000 -3.330669e-016 0.000000e+000
    outer loop
      vertex   -1.100000e+001 1.000000e+001 1.000000e+001
      vertex   -1.100000e+001 -1.000000e+001 1.000000e+001
      vertex   -1.100000e+001 1.000000e+001 0.000000e+000
    endloop
  endfacet
  facet normal 1.000000e+000 -3.330669e-016 0.000000e+000
    outer loop
      vertex   -1.100000e+001 1.000000e+001 0.000000e+000
      vertex   -1.100000e+001 -1.000000e+001 1.000000e+001
      vertex   -1.100000e+001 -1.000000e+001 0.000000e+000
    endloop
  endfacet
  facet normal 9.961947e-001 8.715574e-002 -0.000000e+000
    outer loop
      vertex   -1.100000e+001 -1.000000e+001 0.000000e+000
      vertex   -1.100000e+001 -1.000000e+001 1.000000e+001
      vertex   -1.098481e+001 -1.017365e+001 0.000000e+000
    endloop
  endfacet
  facet normal 9.961947e-001 8.715574e-002 0.000000e+000
    outer loop
      vertex   -1.098481e+001 -1.017365e+001 0.000000e+000
      vertex   -1.100000e+001 -1.000000e+001 1.000000e+001
      vertex   -1.098481e+001 -1.017365e+001 1.000000e+001
    endloop
  endfacet
  facet normal 9.659258e-001 2.588190e-001 0.000000e+000
    outer loop
      vertex   -1.093969e+001 -1.034202e+001 0.000000e+000
      vertex   -1.098481e+001 -1.017365e+001 1.000000e+001
      vertex   -1.093969e+001 -1.034202e+001 1.000000e+001
    endloop
  endfacet
  facet normal 9.063078e-001 4.226183e-001 0.000000e+000
    outer loop
      vertex   -1.086603e+001 -1.050000e+001 0.000000e+000
      vertex   -1.093969e+001 -1.034202e+001 1.000000e+001
      vertex   -1.086603e+001 -1.050000e+001 1.000000e+001
    endloop
  endfacet
  facet normal 8.191520e-001 5.735764e-001 0.000000e+000
    outer loop
      vertex   -1.076604e+001 -1.064279e+001 0.000000e+000
      vertex   -1.086603e+001 -1.050000e+001 1.000000e+001
      vertex   -1.076604e+001 -1.064279e+001 1.000000e+001
    endloop
  endfacet
  facet normal 7.071068e-001 7.071068e-001 0.000000e+000
    outer loop
      vertex   -1.064279e+001 -1.076604e+001 0.000000e+000
      vertex   -1.076604e+001 -1.064279e+001 1.000000e+001
      vertex   -1.064279e+001 -1.076604e+001 1.000000e+001
    endloop
  endfacet
  facet normal 5.735764e-001 8.191520e-001 0.000000e+000
    outer loop
      vertex   -1.050000e+001 -1.086603e+001 0.000000e+000
      vertex   -1.064279e+001 -1.076604e+001 1.000000e+001
      vertex   -1.050000e+001 -1.086603e+001 1.000000e+001
    endloop
  endfacet
  facet normal 4.226183e-001 9.063078e-001 0.000000e+000
    outer loop
      vertex   -1.034202e+001 -1.093969e+001 0.000000e+000
      vertex   -1.050000e+001 -1.086603e+001 1.000000e+001
      vertex   -1.034202e+001 -1.093969e+001 1.000000e+001
    endloop
  endfacet
  facet normal 2.588190e-001 9.659258e-001 0.000000e+000
    outer loop
      vertex   -1.017365e+001 -1.098481e+001 0.000000e+000
      vertex   -1.034202e+001 -1.093969e+001 1.000000e+001
      vertex   -1.017365e+001 -1.098481e+001 1.000000e+001
    endloop
  endfacet
  facet normal 8.715574e-002 9.961947e-001 0.000000e+000
    outer loop
      vertex   -1.000000e+001 -1.100000e+001 0.000000e+000
      vertex   -1.017365e+001 -1.098481e+001 1.000000e+001
      vertex   -1.000000e+001 -1.100000e+001 1.000000e+001
    endloop
  endfacet
  facet normal 8.715574e-002 9.961947e-001 -0.000000e+000
    outer loop
      vertex   -1.000000e+001 -1.100000e+001 0.000000e+000
      vertex   -1.017365e+001 -1.098481e+001 0.000000e+000
      vertex   -1.017365e+001 -1.098481e+001 1.000000e+001
    endloop
  endfacet
  facet normal 2.588190e-001 9.659258e-001 -0.000000e+000
    outer loop
      vertex   -1.017365e+001 -1.098481e+001 0.000000e+000
      vertex   -1.034202e+001 -1.093969e+001 0.000000e+000
      vertex   -1.034202e+001 -1.093969e+001 1.000000e+001
    endloop
  endfacet
  facet normal 4.226183e-001 9.063078e-001 -0.000000e+000
    outer loop
      vertex   -1.034202e+001 -1.093969e+001 0.000000e+000
      vertex   -1.050000e+001 -1.086603e+001 0.000000e+000
      vertex   -1.050000e+001 -1.086603e+001 1.000000e+001
    endloop
  endfacet
  facet normal 5.735764e-001 8.191520e-001 -0.000000e+000
    outer loop
      vertex   -1.050000e+001 -1.086603e+001 0.000000e+000
      vertex   -1.064279e+001 -1.076604e+001 0.000000e+000
      vertex   -1.064279e+001 -1.076604e+001 1.000000e+001
    endloop
  endfacet
  facet normal 7.071068e-001 7.071068e-001 -0.000000e+000
    outer loop
      vertex   -1.064279e+001 -1.076604e+001 0.000000e+000
      vertex   -1.076604e+001 -1.064279e+001 0.000000e+000
      vertex   -1.076604e+001 -1.064279e+001 1.000000e+001
    endloop
  endfacet
  facet normal 8.191520e-001 5.735764e-001 -0.000000e+000
    outer loop
      vertex   -1.076604e+001 -1.064279e+001 0.000000e+000
      vertex   -1.086603e+001 -1.050000e+001 0.000000e+000
      vertex   -1.086603e+001 -1.050000e+001 1.000000e+001
    endloop
  endfacet
  facet normal 9.063078e-001 4.226183e-001 -0.000000e+000
    outer loop
      vertex   -1.086603e+001 -1.050000e+001 0.000000e+000
      vertex   -1.093969e+001 -1.034202e+001 0.000000e+000
      vertex   -1.093969e+001 -1.034202e+001 1.000000e+001
    endloop
  endfacet
  facet normal 9.659258e-001 2.588190e-001 -0.000000e+000
    outer loop
      vertex   -1.093969e+001 -1.034202e+001 0.000000e+000
      vertex   -1.098481e+001 -1.017365e+001 0.000000e+000
      vertex   -1.098481e+001 -1.017365e+001 1.000000e+001
    endloop
  endfacet
  facet normal 2.220446e-016 1.000000e+000 0.000000e+000
    outer loop
      vertex   -1.000000e+001 -1.100000e+001 1.000000e+001
      vertex   1.000000e+001 -1.100000e+001 1.000000e+001
      vertex   -1.000000e+001 -1.100000e+001 0.000000e+000
    endloop
  endfacet
  facet normal 2.220446e-016 1.000000e+000 0.000000e+000
    outer loop
      vertex   -1.000000e+001 -1.100000e+001 0.000000e+000
      vertex   1.000000e+001 -1.100000e+001 1.000000e+001
      vertex   1.000000e+001 -1.100000e+001 0.000000e+000
    endloop
  endfacet
  facet normal -8.715574e-002 9.961947e-001 0.000000e+000
    outer loop
      vertex   1.000000e+001 -1.100000e+001 0.000000e+000
      vertex   1.000000e+001 -1.100000e+001 1.000000e+001
      vertex   1.017365e+001 -1.098481e+001 0.000000e+000
    endloop
  endfacet
  facet normal -8.715574e-002 9.961947e-001 0.000000e+000
    outer loop
      vertex   1.017365e+001 -1.098481e+001 0.000000e+000
      vertex   1.000000e+001 -1.100000e+001 1.000000e+001
      vertex   1.017365e+001 -1.098481e+001 1.000000e+001
    endloop
  endfacet
  facet normal -2.588190e-001 9.659258e-001 0.000000e+000
    outer loop
      vertex   1.034202e+001 -1.093969e+001 0.000000e+000
      vertex   1.017365e+001 -1.098481e+001 1.000000e+001
      vertex   1.034202e+001 -1.093969e+001 1.000000e+001
    endloop
  endfacet
  facet normal -4.226183e-001 9.063078e-001 0.000000e+000
    outer loop
      vertex   1.050000e+001 -1.086603e+001 0.000000e+000
      vertex   1.034202e+001 -1.093969e+001 1.000000e+001
      vertex   1.050000e+001 -1.086603e+001 1.000000e+001
    endloop
  endfacet
  facet normal -5.735764e-001 8.191520e-001 0.000000e+000
    outer loop
      vertex   1.064279e+001 -1.076604e+001 0.000000e+000
      vertex   1.050000e+001 -1.086603e+001 1.000000e+001
      vertex   1.064279e+001 -1.076604e+001 1.000000e+001
    endloop
  endfacet
  facet normal -7.071068e-001 7.071068e-001 0.000000e+000
    outer loop
      vertex   1.076604e+001 -1.064279e+001 0.000000e+000
      vertex   1.064279e+001 -1.076604e+001 1.000000e+001
      vertex   1.076604e+001 -1.064279e+001 1.000000e+001
    endloop
  endfacet
  facet normal -8.191520e-001 5.735764e-001 0.000000e+000
    outer loop
      vertex   1.086603e+001 -1.050000e+001 0.000000e+000
      vertex   1.076604e+001 -1.064279e+001 1.000000e+001
      vertex   1.086603e+001 -1.050000e+001 1.000000e+001
    endloop
  endfacet
  facet normal -9.063078e-001 4.226183e-001 0.000000e+000
    outer loop
      vertex   1.093969e+001 -1.034202e+001 0.000000e+000
      vertex   1.086603e+001 -1.050000e+001 1.000000e+001
      vertex   1.093969e+001 -1.034202e+001 1.000000e+001
    endloop
  endfacet
  facet normal -9.659258e-001 2.588190e-001 0.000000e+000
    outer loop
      vertex   1.098481e+001 -1.017365e+001 0.000000e+000
      vertex   1.093969e+001 -1.034202e+001 1.000000e+001
      vertex   1.098481e+001 -1.017365e+001 1.000000e+001
    endloop
  endfacet
  facet normal -9.961947e-001 8.715574e-002 0.000000e+000
    outer loop
      vertex   1.100000e+001 -1.000000e+001 0.000000e+000
      vertex   1.098481e+001 -1.017365e+001 1.000000e+001
      vertex   1.100000e+001 -1.000000e+001 1.000000e+001
    endloop
  endfacet
  facet normal -9.961947e-001 8.715574e-002 0.000000e+000
    outer loop
      vertex   1.100000e+001 -1.000000e+001 0.000000e+000
      vertex   1.098481e+001 -1.017365e+001 0.000000e+000
      vertex   1.098481e+001 -1.017365e+001 1.000000e+001
    endloop
  endfacet
  facet normal -9.659258e-001 2.588190e-001 0.000000e+000
    outer loop
      vertex   1.098481e+001 -1.017365e+001 0.000000e+000
      vertex   1.093969e+001 -1.034202e+001 0.000000e+000
      vertex   1.093969e+001 -1.034202e+001 1.000000e+001
    endloop
  endfacet
  facet normal -9.063078e-001 4.226183e-001 0.000000e+000
    outer loop
      vertex   1.093969e+001 -1.034202e+001 0.000000e+000
      vertex   1.086603e+001 -1.050000e+001 0.000000e+000
      vertex   1.086603e+001 -1.050000e+001 1.000000e+001
    endloop
  endfacet
  facet normal -8.191520e-001 5.735764e-001 0.000000e+000
    outer loop
      vertex   1.086603e+001 -1.050000e+001 0.000000e+000
      vertex   1.076604e+001 -1.064279e+001 0.000000e+000
      vertex   1.076604e+001 -1.064279e+001 1.000000e+001
    endloop
  endfacet
  facet normal -7.071068e-001 7.071068e-001 0.000000e+000
    outer loop
      vertex   1.076604e+001 -1.064279e+001 0.000000e+000
      vertex   1.064279e+001 -1.076604e+001 0.000000e+000
      vertex   1.064279e+001 -1.076604e+001 1.000000e+001
    endloop
  endfacet
  facet normal -5.735764e-001 8.191520e-001 0.000000e+000
    outer loop
      vertex   1.064279e+001 -1.076604e+001 0.000000e+000
      vertex   1.050000e+001 -1.086603e+001 0.000000e+000
      vertex   1.050000e+001 -1.086603e+001 1.000000e+001
    endloop
  endfacet
  facet normal -4.226183e-001 9.063078e-001 0.000000e+000
    outer loop
      vertex   1.050000e+001 -1.086603e+001 0.000000e+000
      vertex   1.034202e+001 -1.093969e+001 0.000000e+000
      vertex   1.034202e+001 -1.093969e+001 1.000000e+001
    endloop
  endfacet
  facet normal -2.588190e-001 9.659258e-001 0.000000e+000
    outer loop
      vertex   1.034202e+001 -1.093969e+001 0.000000e+000
      vertex   1.017365e+001 -1.098481e+001 0.000000e+000
      vertex   1.017365e+001 -1.098481e+001 1.000000e+001
    endloop
  endfacet
  facet normal -1.000000e+000 -2.220446e-016 0.000000e+000
    outer loop
      vertex   1.100000e+001 -1.000000e+001 1.000000e+001
      vertex   1.100000e+001 1.000000e+001 1.000000e+001
      vertex   1.100000e+001 -1.000000e+001 0.000000e+000
    endloop
  endfacet
  facet normal -1.000000e+000 -2.220446e-016 -0.000000e+000
    outer loop
      vertex   1.100000e+001 -1.000000e+001 0.000000e+000
      vertex   1.100000e+001 1.000000e+001 1.000000e+001
      vertex   1.100000e+001 1.000000e+001 0.000000e+000
    endloop
  endfacet
  facet normal -9.961947e-001 -8.715574e-002 0.000000e+000
    outer loop
      vertex   1.100000e+001 1.000000e+001 0.000000e+000
      vertex   1.100000e+001 1.000000e+001 1.000000e+001
      vertex   1.098481e+001 1.017365e+001 0.000000e+000
    endloop
  endfacet
  facet normal -9.961947e-001 -8.715574e-002 0.000000e+000
    outer loop
      vertex   1.098481e+001 1.017365e+001 0.000000e+000
      vertex   1.100000e+001 1.000000e+001 1.000000e+001
      vertex   1.098481e+001 1.017365e+001 1.000000e+001
    endloop
  endfacet
  facet normal -9.659258e-001 -2.588190e-001 0.000000e+000
    outer loop
      vertex   1.093969e+001 1.034202e+001 0.000000e+000
      vertex   1.098481e+001 1.017365e+001 1.000000e+001
      vertex   1.093969e+001 1.034202e+001 1.000000e+001
    endloop
  endfacet
  facet normal -9.063078e-001 -4.226183e-001 0.000000e+000
    outer loop
      vertex   1.086603e+001 1.050000e+001 0.000000e+000
      vertex   1.093969e+001 1.034202e+001 1.000000e+001
      vertex   1.086603e+001 1.050000e+001 1.000000e+001
    endloop
  endfacet
  facet normal -8.191520e-001 -5.735764e-001 0.000000e+000
    outer loop
      vertex   1.076604e+001 1.064279e+001 0.000000e+000
      vertex   1.086603e+001 1.050000e+001 1.000000e+001
      vertex   1.076604e+001 1.064279e+001 1.000000e+001
    endloop
  endfacet
  facet normal -7.071068e-001 -7.071068e-001 0.000000e+000
    outer loop
      vertex   1.064279e+001 1.076604e+001 0.000000e+000
      vertex   1.076604e+001 1.064279e+001 1.000000e+001
      vertex   1.064279e+001 1.076604e+001 1.000000e+001
    endloop
  endfacet
  facet normal -5.735764e-001 -8.191520e-001 0.000000e+000
    outer loop
      vertex   1.050000e+001 1.086603e+001 0.000000e+000
      vertex   1.064279e+001 1.076604e+001 1.000000e+001
      vertex   1.050000e+001 1.086603e+001 1.000000e+001
    endloop
  endfacet
  facet normal -4.226183e-001 -9.063078e-001 0.000000e+000
    outer loop
      vertex   1.034202e+001 1.093969e+001 0.000000e+000
      vertex   1.050000e+001 1.086603e+001 1.000000e+001
      vertex   1.034202e+001 1.093969e+001 1.000000e+001
    endloop
  endfacet
  facet normal -2.588190e-001 -9.659258e-001 0.000000e+000
    outer loop
      vertex   1.017365e+001 1.098481e+001 0.000000e+000
      vertex   1.034202e+001 1.093969e+001 1.000000e+001
      vertex   1.017365e+001 1.098481e+001 1.000000e+001
    endloop
  endfacet
  facet normal -8.715574e-002 -9.961947e-001 0.000000e+000
    outer loop
      vertex   1.000000e+001 1.100000e+001 0.000000e+000
      vertex   1.017365e+001 1.098481e+001 1.000000e+001
      vertex   1.000000e+001 1.100000e+001 1.000000e+001
    endloop
  endfacet
  facet normal -8.715574e-002 -9.961947e-001 0.000000e+000
    outer loop
      vertex   1.000000e+001 1.100000e+001 0.000000e+000
      vertex   1.017365e+001 1.098481e+001 0.000000e+000
      vertex   1.017365e+001 1.098481e+001 1.000000e+001
    endloop
  endfacet
  facet normal -2.588190e-001 -9.659258e-001 0.000000e+000
    outer loop
      vertex   1.017365e+001 1.098481e+001 0.000000e+000
      vertex   1.034202e+001 1.093969e+001 0.000000e+000
      vertex   1.034202e+001 1.093969e+001 1.000000e+001
    endloop
  endfacet
  facet normal -4.226183e-001 -9.063078e-001 0.000000e+000
    outer loop
      vertex   1.034202e+001 1.093969e+001 0.000000e+000
      vertex   1.050000e+001 1.086603e+001 0.000000e+000
      vertex   1.050000e+001 1.086603e+001 1.000000e+001
    endloop
  endfacet
  facet normal -5.735764e-001 -8.191520e-001 0.000000e+000
    outer loop
      vertex   1.050000e+001 1.086603e+001 0.000000e+000
      vertex   1.064279e+001 1.076604e+001 0.000000e+000
      vertex   1.064279e+001 1.076604e+001 1.000000e+001
    endloop
  endfacet
  facet normal -7.071068e-001 -7.071068e-001 0.000000e+000
    outer loop
      vertex   1.064279e+001 1.076604e+001 0.000000e+000
      vertex   1.076604e+001 1.064279e+001 0.000000e+000
      vertex   1.076604e+001 1.064279e+001 1.000000e+001
    endloop
  endfacet
  facet normal -8.191520e-001 -5.735764e-001 0.000000e+000
    outer loop
      vertex   1.076604e+001 1.064279e+001 0.000000e+000
      vertex   1.086603e+001 1.050000e+001 0.000000e+000
      vertex   1.086603e+001 1.050000e+001 1.000000e+001
    endloop
  endfacet
  facet normal -9.063078e-001 -4.226183e-001 0.000000e+000
    outer loop
      vertex   1.086603e+001 1.050000e+001 0.000000e+000
      vertex   1.093969e+001 1.034202e+001 0.000000e+000
      vertex   1.093969e+001 1.034202e+001 1.000000e+001
    endloop
  endfacet
  facet normal -9.659258e-001 -2.588190e-001 0.000000e+000
    outer loop
      vertex   1.093969e+001 1.034202e+001 0.000000e+000
      vertex   1.098481e+001 1.017365e+001 0.000000e+000
      vertex   1.098481e+001 1.017365e+001 1.000000e+001
    endloop
  endfacet
  facet normal -2.220446e-016 -1.000000e+000 0.000000e+000
    outer loop
      vertex   1.000000e+001 1.100000e+001 1.000000e+001
      vertex   -1.000000e+001 1.100000e+001 1.000000e+001
      vertex   1.000000e+001 1.100000e+001 0.000000e+000
    endloop
  endfacet
  facet normal -2.220446e-016 -1.000000e+000 -0.000000e+000
    outer loop
      vertex   1.000000e+001 1.100000e+001 0.000000e+000
      vertex   -1.000000e+001 1.100000e+001 1.000000e+001
      vertex   -1.000000e+001 1.100000e+001 0.000000e+000
    endloop
  endfacet
  facet normal 0.000000e+000 -0.000000e+000 1.000000e+000
    outer loop
      vertex   -1.100000e+001 -1.000000e+001 1.000000e+001
      vertex   -1.100000e+001 1.000000e+001 1.000000e+001
      vertex   -1.125000e+001 1.000000e+001 1.000000e+001
    endloop
  endfacet
  facet normal -0.000000e+000 -0.000000e+000 1.000000e+000
    outer loop
      vertex   -1.125000e+001 -1.000000e+001 1.000000e+001
      vertex   -1.100000e+001 -1.000000e+001 1.000000e+001
      vertex   -1.125000e+001 1.000000e+001 1.000000e+001
    endloop
  endfacet
  facet normal -0.000000e+000 -0.000000e+000 1.000000e+000
    outer loop
      vertex   -1.125000e+001 -1.000000e+001 1.000000e+001
      vertex   -1.098481e+001 -1.017365e+001 1.000000e+001
      vertex   -1.100000e+001 -1.000000e+001 1.000000e+001
    endloop
  endfacet
  facet normal -0.000000e+000 0.000000e+000 1.000000e+000
    outer loop
      vertex   -1.125000e+001 -1.000000e+001 1.000000e+001
      vertex   -1.123101e+001 -1.021706e+001 1.000000e+001
      vertex   -1.098481e+001 -1.017365e+001 1.000000e+001
    endloop
  endfacet
  facet normal 0.000000e+000 0.000000e+000 1.000000e+000
    outer loop
      vertex   -1.098481e+001 -1.017365e+001 1.000000e+001
      vertex   -1.123101e+001 -1.021706e+001 1.000000e+001
      vertex   -1.093969e+001 -1.034202e+001 1.000000e+001
    endloop
  endfacet
  facet normal 0.000000e+000 0.000000e+000 1.000000e+000
    outer loop
      vertex   -1.093969e+001 -1.034202e+001 1.000000e+001
      vertex   -1.123101e+001 -1.021706e+001 1.000000e+001
      vertex   -1.117462e+001 -1.042753e+001 1.000000e+001
    endloop
  endfacet
  facet normal 0.000000e+000 0.000000e+000 1.000000e+000
    outer loop
      vertex   -1.086603e+001 -1.050000e+001 1.000000e+001
      vertex   -1.117462e+001 -1.042753e+001 1.000000e+001
      vertex   -1.108253e+001 -1.062500e+001 1.000000e+001
    endloop
  endfacet
  facet normal 0.000000e+000 0.000000e+000 1.000000e+000
    outer loop
      vertex   -1.076604e+001 -1.064279e+001 1.000000e+001
      vertex   -1.108253e+001 -1.062500e+001 1.000000e+001
      vertex   -1.095756e+001 -1.080348e+001 1.000000e+001
    endloop
  endfacet
  facet normal 0.000000e+000 0.000000e+000 1.000000e+000
    outer loop
      vertex   -1.064279e+001 -1.076604e+001 1.000000e+001
      vertex   -1.095756e+001 -1.080348e+001 1.000000e+001
      vertex   -1.080348e+001 -1.095756e+001 1.000000e+001
    endloop
  endfacet
  facet normal 0.000000e+000 0.000000e+000 1.000000e+000
    outer loop
      vertex   -1.050000e+001 -1.086603e+001 1.000000e+001
      vertex   -1.080348e+001 -1.095756e+001 1.000000e+001
      vertex   -1.062500e+001 -1.108253e+001 1.000000e+001
    endloop
  endfacet
  facet normal -0.000000e+000 0.000000e+000 1.000000e+000
    outer loop
      vertex   -1.034202e+001 -1.093969e+001 1.000000e+001
      vertex   -1.062500e+001 -1.108253e+001 1.000000e+001
      vertex   -1.017365e+001 -1.098481e+001 1.000000e+001
    endloop
  endfacet
  facet normal 0.000000e+000 0.000000e+000 1.000000e+000
    outer loop
      vertex   -1.034202e+001 -1.093969e+001 1.000000e+001
      vertex   -1.050000e+001 -1.086603e+001 1.000000e+001
      vertex   -1.062500e+001 -1.108253e+001 1.000000e+001
    endloop
  endfacet
  facet normal 0.000000e+000 0.000000e+000 1.000000e+000
    outer loop
      vertex   -1.034202e+001 1.093969e+001 1.000000e+001
      vertex   -1.062500e+001 1.108253e+001 1.000000e+001
      vertex   -1.050000e+001 1.086603e+001 1.000000e+001
    endloop
  endfacet
  facet normal 0.000000e+000 -0.000000e+000 1.000000e+000
    outer loop
      vertex   -1.034202e+001 1.093969e+001 1.000000e+001
      vertex   -1.017365e+001 1.098481e+001 1.000000e+001
      vertex   -1.062500e+001 1.108253e+001 1.000000e+001
    endloop
  endfacet
  facet normal -0.000000e+000 0.000000e+000 1.000000e+000
    outer loop
      vertex   -1.062500e+001 1.108253e+001 1.000000e+001
      vertex   -1.017365e+001 1.098481e+001 1.000000e+001
      vertex   -1.000000e+001 1.100000e+001 1.000000e+001
    endloop
  endfacet
  facet normal 0.000000e+000 0.000000e+000 1.000000e+000
    outer loop
      vertex   1.000000e+001 1.100000e+001 1.000000e+001
      vertex   -1.062500e+001 1.108253e+001 1.000000e+001
      vertex   -1.000000e+001 1.100000e+001 1.000000e+001
    endloop
  endfacet
  facet normal 0.000000e+000 -0.000000e+000 1.000000e+000
    outer loop
      vertex   1.000000e+001 1.100000e+001 1.000000e+001
      vertex   1.062500e+001 1.108253e+001 1.000000e+001
      vertex   -1.062500e+001 1.108253e+001 1.000000e+001
    endloop
  endfacet
  facet normal -0.000000e+000 0.000000e+000 1.000000e+000
    outer loop
      vertex   1.000000e+001 1.100000e+001 1.000000e+001
      vertex   1.017365e+001 1.098481e+001 1.000000e+001
      vertex   1.062500e+001 1.108253e+001 1.000000e+001
    endloop
  endfacet
  facet normal 0.000000e+000 0.000000e+000 1.000000e+000
    outer loop
      vertex   1.062500e+001 1.108253e+001 1.000000e+001
      vertex   1.017365e+001 1.098481e+001 1.000000e+001
      vertex   1.034202e+001 1.093969e+001 1.000000e+001
    endloop
  endfacet
  facet normal 0.000000e+000 -0.000000e+000 1.000000e+000
    outer loop
      vertex   1.050000e+001 1.086603e+001 1.000000e+001
      vertex   1.062500e+001 1.108253e+001 1.000000e+001
      vertex   1.034202e+001 1.093969e+001 1.000000e+001
    endloop
  endfacet
  facet normal 0.000000e+000 -0.000000e+000 1.000000e+000
    outer loop
      vertex   1.050000e+001 1.086603e+001 1.000000e+001
      vertex   1.080348e+001 1.095756e+001 1.000000e+001
      vertex   1.062500e+001 1.108253e+001 1.000000e+001
    endloop
  endfacet
  facet normal -0.000000e+000 0.000000e+000 1.000000e+000
    outer loop
      vertex   1.050000e+001 1.086603e+001 1.000000e+001
      vertex   1.064279e+001 1.076604e+001 1.000000e+001
      vertex   1.080348e+001 1.095756e+001 1.000000e+001
    endloop
  endfacet
  facet normal -0.000000e+000 0.000000e+000 1.000000e+000
    outer loop
      vertex   1.080348e+001 1.095756e+001 1.000000e+001
      vertex   1.064279e+001 1.076604e+001 1.000000e+001
      vertex   1.095756e+001 1.080348e+001 1.000000e+001
    endloop
  endfacet
  facet normal 0.000000e+000 0.000000e+000 1.000000e+000
    outer loop
      vertex   1.095756e+001 1.080348e+001 1.000000e+001
      vertex   1.064279e+001 1.076604e+001 1.000000e+001
      vertex   1.076604e+001 1.064279e+001 1.000000e+001
    endloop
  endfacet
  facet normal 0.000000e+000 0.000000e+000 1.000000e+000
    outer loop
      vertex   1.108253e+001 1.062500e+001 1.000000e+001
      vertex   1.076604e+001 1.064279e+001 1.000000e+001
      vertex   1.086603e+001 1.050000e+001 1.000000e+001
    endloop
  endfacet
  facet normal 0.000000e+000 0.000000e+000 1.000000e+000
    outer loop
      vertex   1.117462e+001 1.042753e+001 1.000000e+001
      vertex   1.086603e+001 1.050000e+001 1.000000e+001
      vertex   1.093969e+001 1.034202e+001 1.000000e+001
    endloop
  endfacet
  facet normal 0.000000e+000 0.000000e+000 1.000000e+000
    outer loop
      vertex   1.123101e+001 1.021706e+001 1.000000e+001
      vertex   1.093969e+001 1.034202e+001 1.000000e+001
      vertex   1.098481e+001 1.017365e+001 1.000000e+001
    endloop
  endfacet
  facet normal 0.000000e+000 0.000000e+000 1.000000e+000
    outer loop
      vertex   1.125000e+001 1.000000e+001 1.000000e+001
      vertex   1.098481e+001 1.017365e+001 1.000000e+001
      vertex   1.100000e+001 1.000000e+001 1.000000e+001
    endloop
  endfacet
  facet normal 0.000000e+000 0.000000e+000 1.000000e+000
    outer loop
      vertex   1.125000e+001 -1.000000e+001 1.000000e+001
      vertex   1.100000e+001 1.000000e+001 1.000000e+001
      vertex   1.100000e+001 -1.000000e+001 1.000000e+001
    endloop
  endfacet
  facet normal 0.000000e+000 0.000000e+000 1.000000e+000
    outer loop
      vertex   1.123101e+001 -1.021706e+001 1.000000e+001
      vertex   1.100000e+001 -1.000000e+001 1.000000e+001
      vertex   1.098481e+001 -1.017365e+001 1.000000e+001
    endloop
  endfacet
  facet normal 0.000000e+000 -0.000000e+000 1.000000e+000
    outer loop
      vertex   1.093969e+001 -1.034202e+001 1.000000e+001
      vertex   1.123101e+001 -1.021706e+001 1.000000e+001
      vertex   1.098481e+001 -1.017365e+001 1.000000e+001
    endloop
  endfacet
  facet normal -0.000000e+000 0.000000e+000 1.000000e+000
    outer loop
      vertex   1.093969e+001 -1.034202e+001 1.000000e+001
      vertex   1.117462e+001 -1.042753e+001 1.000000e+001
      vertex   1.123101e+001 -1.021706e+001 1.000000e+001
    endloop
  endfacet
  facet normal -0.000000e+000 0.000000e+000 1.000000e+000
    outer loop
      vertex   1.093969e+001 -1.034202e+001 1.000000e+001
      vertex   1.086603e+001 -1.050000e+001 1.000000e+001
      vertex   1.117462e+001 -1.042753e+001 1.000000e+001
    endloop
  endfacet
  facet normal 0.000000e+000 0.000000e+000 1.000000e+000
    outer loop
      vertex   1.117462e+001 -1.042753e+001 1.000000e+001
      vertex   1.086603e+001 -1.050000e+001 1.000000e+001
      vertex   1.108253e+001 -1.062500e+001 1.000000e+001
    endloop
  endfacet
  facet normal 0.000000e+000 0.000000e+000 1.000000e+000
    outer loop
      vertex   1.108253e+001 -1.062500e+001 1.000000e+001
      vertex   1.086603e+001 -1.050000e+001 1.000000e+001
      vertex   1.076604e+001 -1.064279e+001 1.000000e+001
    endloop
  endfacet
  facet normal 0.000000e+000 0.000000e+000 1.000000e+000
    outer loop
      vertex   1.095756e+001 -1.080348e+001 1.000000e+001
      vertex   1.076604e+001 -1.064279e+001 1.000000e+001
      vertex   1.064279e+001 -1.076604e+001 1.000000e+001
    endloop
  endfacet
  facet normal 0.000000e+000 0.000000e+000 1.000000e+000
    outer loop
      vertex   1.080348e+001 -1.095756e+001 1.000000e+001
      vertex   1.064279e+001 -1.076604e+001 1.000000e+001
      vertex   1.050000e+001 -1.086603e+001 1.000000e+001
    endloop
  endfacet
  facet normal 0.000000e+000 0.000000e+000 1.000000e+000
    outer loop
      vertex   1.062500e+001 -1.108253e+001 1.000000e+001
      vertex   1.050000e+001 -1.086603e+001 1.000000e+001
      vertex   1.034202e+001 -1.093969e+001 1.000000e+001
    endloop
  endfacet
  facet normal -0.000000e+000 -0.000000e+000 1.000000e+000
    outer loop
      vertex   1.017365e+001 -1.098481e+001 1.000000e+001
      vertex   1.062500e+001 -1.108253e+001 1.000000e+001
      vertex   1.034202e+001 -1.093969e+001 1.000000e+001
    endloop
  endfacet
  facet normal 0.000000e+000 0.000000e+000 1.000000e+000
    outer loop
      vertex   1.017365e+001 -1.098481e+001 1.000000e+001
      vertex   1.000000e+001 -1.100000e+001 1.000000e+001
      vertex   1.062500e+001 -1.108253e+001 1.000000e+001
    endloop
  endfacet
  facet normal 0.000000e+000 0.000000e+000 1.000000e+000
    outer loop
      vertex   1.062500e+001 -1.108253e+001 1.000000e+001
      vertex   1.000000e+001 -1.100000e+001 1.000000e+001
      vertex   -1.000000e+001 -1.100000e+001 1.000000e+001
    endloop
  endfacet
  facet normal 0.000000e+000 -0.000000e+000 1.000000e+000
    outer loop
      vertex   -1.062500e+001 -1.108253e+001 1.000000e+001
      vertex   -1.000000e+001 -1.100000e+001 1.000000e+001
      vertex   -1.017365e+001 -1.098481e+001 1.000000e+001
    endloop
  endfacet
  facet normal -0.000000e+000 -0.000000e+000 1.000000e+000
    outer loop
      vertex   -1.062500e+001 -1.108253e+001 1.000000e+001
      vertex   1.062500e+001 -1.108253e+001 1.000000e+001
      vertex   -1.000000e+001 -1.100000e+001 1.000000e+001
    endloop
  endfacet
  facet normal -0.000000e+000 0.000000e+000 1.000000e+000
    outer loop
      vertex   -1.062500e+001 -1.108253e+001 1.000000e+001
      vertex   1.042753e+001 -1.117462e+001 1.000000e+001
      vertex   1.062500e+001 -1.108253e+001 1.000000e+001
    endloop
  endfacet
  facet normal 0.000000e+000 0.000000e+000 1.000000e+000
    outer loop
      vertex   -1.062500e+001 -1.108253e+001 1.000000e+001
      vertex   -1.042753e+001 -1.117462e+001 1.000000e+001
      vertex   1.042753e+001 -1.117462e+001 1.000000e+001
    endloop
  endfacet
  facet normal 0.000000e+000 0.000000e+000 1.000000e+000
    outer loop
      vertex   1.042753e+001 -1.117462e+001 1.000000e+001
      vertex   -1.042753e+001 -1.117462e+001 1.000000e+001
      vertex   1.021706e+001 -1.123101e+001 1.000000e+001
    endloop
  endfacet
  facet normal 0.000000e+000 0.000000e+000 1.000000e+000
    outer loop
      vertex   1.021706e+001 -1.123101e+001 1.000000e+001
      vertex   -1.042753e+001 -1.117462e+001 1.000000e+001
      vertex   -1.021706e+001 -1.123101e+001 1.000000e+001
    endloop
  endfacet
  facet normal 0.000000e+000 0.000000e+000 1.000000e+000
    outer loop
      vertex   1.000000e+001 -1.125000e+001 1.000000e+001
      vertex   -1.021706e+001 -1.123101e+001 1.000000e+001
      vertex   -1.000000e+001 -1.125000e+001 1.000000e+001
    endloop
  endfacet
  facet normal 0.000000e+000 -0.000000e+000 1.000000e+000
    outer loop
      vertex   1.000000e+001 -1.125000e+001 1.000000e+001
      vertex   1.021706e+001 -1.123101e+001 1.000000e+001
      vertex   -1.021706e+001 -1.123101e+001 1.000000e+001
    endloop
  endfacet
  facet normal 0.000000e+000 0.000000e+000 1.000000e+000
    outer loop
      vertex   -1.050000e+001 1.086603e+001 1.000000e+001
      vertex   -1.080348e+001 1.095756e+001 1.000000e+001
      vertex   -1.064279e+001 1.076604e+001 1.000000e+001
    endloop
  endfacet
  facet normal 0.000000e+000 0.000000e+000 1.000000e+000
    outer loop
      vertex   -1.050000e+001 1.086603e+001 1.000000e+001
      vertex   -1.062500e+001 1.108253e+001 1.000000e+001
      vertex   -1.080348e+001 1.095756e+001 1.000000e+001
    endloop
  endfacet
  facet normal 0.000000e+000 0.000000e+000 1.000000e+000
    outer loop
      vertex   -1.064279e+001 1.076604e+001 1.000000e+001
      vertex   -1.095756e+001 1.080348e+001 1.000000e+001
      vertex   -1.076604e+001 1.064279e+001 1.000000e+001
    endloop
  endfacet
  facet normal 0.000000e+000 0.000000e+000 1.000000e+000
    outer loop
      vertex   -1.064279e+001 1.076604e+001 1.000000e+001
      vertex   -1.080348e+001 1.095756e+001 1.000000e+001
      vertex   -1.095756e+001 1.080348e+001 1.000000e+001
    endloop
  endfacet
  facet normal 0.000000e+000 0.000000e+000 1.000000e+000
    outer loop
      vertex   -1.050000e+001 -1.086603e+001 1.000000e+001
      vertex   -1.064279e+001 -1.076604e+001 1.000000e+001
      vertex   -1.080348e+001 -1.095756e+001 1.000000e+001
    endloop
  endfacet
  facet normal 0.000000e+000 0.000000e+000 1.000000e+000
    outer loop
      vertex   -1.064279e+001 -1.076604e+001 1.000000e+001
      vertex   -1.076604e+001 -1.064279e+001 1.000000e+001
      vertex   -1.095756e+001 -1.080348e+001 1.000000e+001
    endloop
  endfacet
  facet normal 0.000000e+000 0.000000e+000 1.000000e+000
    outer loop
      vertex   -1.076604e+001 -1.064279e+001 1.000000e+001
      vertex   -1.086603e+001 -1.050000e+001 1.000000e+001
      vertex   -1.108253e+001 -1.062500e+001 1.000000e+001
    endloop
  endfacet
  facet normal 0.000000e+000 0.000000e+000 1.000000e+000
    outer loop
      vertex   -1.086603e+001 -1.050000e+001 1.000000e+001
      vertex   -1.093969e+001 -1.034202e+001 1.000000e+001
      vertex   -1.117462e+001 -1.042753e+001 1.000000e+001
    endloop
  endfacet
  facet normal 0.000000e+000 0.000000e+000 1.000000e+000
    outer loop
      vertex   1.125000e+001 1.000000e+001 1.000000e+001
      vertex   1.123101e+001 1.021706e+001 1.000000e+001
      vertex   1.098481e+001 1.017365e+001 1.000000e+001
    endloop
  endfacet
  facet normal 0.000000e+000 0.000000e+000 1.000000e+000
    outer loop
      vertex   1.123101e+001 1.021706e+001 1.000000e+001
      vertex   1.117462e+001 1.042753e+001 1.000000e+001
      vertex   1.093969e+001 1.034202e+001 1.000000e+001
    endloop
  endfacet
  facet normal 0.000000e+000 0.000000e+000 1.000000e+000
    outer loop
      vertex   1.117462e+001 1.042753e+001 1.000000e+001
      vertex   1.108253e+001 1.062500e+001 1.000000e+001
      vertex   1.086603e+001 1.050000e+001 1.000000e+001
    endloop
  endfacet
  facet normal 0.000000e+000 0.000000e+000 1.000000e+000
    outer loop
      vertex   1.108253e+001 1.062500e+001 1.000000e+001
      vertex   1.095756e+001 1.080348e+001 1.000000e+001
      vertex   1.076604e+001 1.064279e+001 1.000000e+001
    endloop
  endfacet
  facet normal 0.000000e+000 -0.000000e+000 1.000000e+000
    outer loop
      vertex   -1.062500e+001 1.108253e+001 1.000000e+001
      vertex   1.062500e+001 1.108253e+001 1.000000e+001
      vertex   -1.042753e+001 1.117462e+001 1.000000e+001
    endloop
  endfacet
  facet normal -0.000000e+000 -0.000000e+000 1.000000e+000
    outer loop
      vertex   -1.042753e+001 1.117462e+001 1.000000e+001
      vertex   1.062500e+001 1.108253e+001 1.000000e+001
      vertex   1.042753e+001 1.117462e+001 1.000000e+001
    endloop
  endfacet
  facet normal -0.000000e+000 -0.000000e+000 1.000000e+000
    outer loop
      vertex   -1.021706e+001 1.123101e+001 1.000000e+001
      vertex   1.042753e+001 1.117462e+001 1.000000e+001
      vertex   1.021706e+001 1.123101e+001 1.000000e+001
    endloop
  endfacet
  facet normal -0.000000e+000 -0.000000e+000 1.000000e+000
    outer loop
      vertex   -1.000000e+001 1.125000e+001 1.000000e+001
      vertex   1.021706e+001 1.123101e+001 1.000000e+001
      vertex   1.000000e+001 1.125000e+001 1.000000e+001
    endloop
  endfacet
  facet normal -0.000000e+000 0.000000e+000 1.000000e+000
    outer loop
      vertex   -1.000000e+001 1.125000e+001 1.000000e+001
      vertex   -1.021706e+001 1.123101e+001 1.000000e+001
      vertex   1.021706e+001 1.123101e+001 1.000000e+001
    endloop
  endfacet
  facet normal -0.000000e+000 0.000000e+000 1.000000e+000
    outer loop
      vertex   -1.021706e+001 1.123101e+001 1.000000e+001
      vertex   -1.042753e+001 1.117462e+001 1.000000e+001
      vertex   1.042753e+001 1.117462e+001 1.000000e+001
    endloop
  endfacet
  facet normal -0.000000e+000 0.000000e+000 1.000000e+000
    outer loop
      vertex   -1.095756e+001 1.080348e+001 1.000000e+001
      vertex   -1.108253e+001 1.062500e+001 1.000000e+001
      vertex   -1.076604e+001 1.064279e+001 1.000000e+001
    endloop
  endfacet
  facet normal 0.000000e+000 0.000000e+000 1.000000e+000
    outer loop
      vertex   -1.076604e+001 1.064279e+001 1.000000e+001
      vertex   -1.108253e+001 1.062500e+001 1.000000e+001
      vertex   -1.086603e+001 1.050000e+001 1.000000e+001
    endloop
  endfacet
  facet normal 0.000000e+000 0.000000e+000 1.000000e+000
    outer loop
      vertex   -1.086603e+001 1.050000e+001 1.000000e+001
      vertex   -1.108253e+001 1.062500e+001 1.000000e+001
      vertex   -1.117462e+001 1.042753e+001 1.000000e+001
    endloop
  endfacet
  facet normal 0.000000e+000 0.000000e+000 1.000000e+000
    outer loop
      vertex   -1.093969e+001 1.034202e+001 1.000000e+001
      vertex   -1.117462e+001 1.042753e+001 1.000000e+001
      vertex   -1.123101e+001 1.021706e+001 1.000000e+001
    endloop
  endfacet
  facet normal 0.000000e+000 0.000000e+000 1.000000e+000
    outer loop
      vertex   -1.098481e+001 1.017365e+001 1.000000e+001
      vertex   -1.123101e+001 1.021706e+001 1.000000e+001
      vertex   -1.125000e+001 1.000000e+001 1.000000e+001
    endloop
  endfacet
  facet normal 0.000000e+000 -0.000000e+000 1.000000e+000
    outer loop
      vertex   -1.100000e+001 1.000000e+001 1.000000e+001
      vertex   -1.098481e+001 1.017365e+001 1.000000e+001
      vertex   -1.125000e+001 1.000000e+001 1.000000e+001
    endloop
  endfacet
  facet normal 0.000000e+000 -0.000000e+000 1.000000e+000
    outer loop
      vertex   1.062500e+001 -1.108253e+001 1.000000e+001
      vertex   1.080348e+001 -1.095756e+001 1.000000e+001
      vertex   1.050000e+001 -1.086603e+001 1.000000e+001
    endloop
  endfacet
  facet normal 0.000000e+000 -0.000000e+000 1.000000e+000
    outer loop
      vertex   1.080348e+001 -1.095756e+001 1.000000e+001
      vertex   1.095756e+001 -1.080348e+001 1.000000e+001
      vertex   1.064279e+001 -1.076604e+001 1.000000e+001
    endloop
  endfacet
  facet normal 0.000000e+000 -0.000000e+000 1.000000e+000
    outer loop
      vertex   1.095756e+001 -1.080348e+001 1.000000e+001
      vertex   1.108253e+001 -1.062500e+001 1.000000e+001
      vertex   1.076604e+001 -1.064279e+001 1.000000e+001
    endloop
  endfacet
  facet normal 0.000000e+000 -0.000000e+000 1.000000e+000
    outer loop
      vertex   1.123101e+001 -1.021706e+001 1.000000e+001
      vertex   1.125000e+001 -1.000000e+001 1.000000e+001
      vertex   1.100000e+001 -1.000000e+001 1.000000e+001
    endloop
  endfacet
  facet normal 0.000000e+000 0.000000e+000 1.000000e+000
    outer loop
      vertex   1.125000e+001 -1.000000e+001 1.000000e+001
      vertex   1.125000e+001 1.000000e+001 1.000000e+001
      vertex   1.100000e+001 1.000000e+001 1.000000e+001
    endloop
  endfacet
  facet normal -0.000000e+000 0.000000e+000 1.000000e+000
    outer loop
      vertex   -1.123101e+001 1.021706e+001 1.000000e+001
      vertex   -1.098481e+001 1.017365e+001 1.000000e+001
      vertex   -1.093969e+001 1.034202e+001 1.000000e+001
    endloop
  endfacet
  facet normal -0.000000e+000 0.000000e+000 1.000000e+000
    outer loop
      vertex   -1.117462e+001 1.042753e+001 1.000000e+001
      vertex   -1.093969e+001 1.034202e+001 1.000000e+001
      vertex   -1.086603e+001 1.050000e+001 1.000000e+001
    endloop
  endfacet
  facet normal 0.000000e+000 0.000000e+000 -1.000000e+000
    outer loop
      vertex   1.017365e+001 1.098481e+001 0.000000e+000
      vertex   1.000000e+001 1.100000e+001 0.000000e+000
      vertex   1.062500e+001 1.108253e+001 0.000000e+000
    endloop
  endfacet
  facet normal 0.000000e+000 -0.000000e+000 -1.000000e+000
    outer loop
      vertex   1.034202e+001 1.093969e+001 0.000000e+000
      vertex   1.062500e+001 1.108253e+001 0.000000e+000
      vertex   1.050000e+001 1.086603e+001 0.000000e+000
    endloop
  endfacet
  facet normal 0.000000e+000 0.000000e+000 -1.000000e+000
    outer loop
      vertex   1.034202e+001 1.093969e+001 0.000000e+000
      vertex   1.017365e+001 1.098481e+001 0.000000e+000
      vertex   1.062500e+001 1.108253e+001 0.000000e+000
    endloop
  endfacet
  facet normal 0.000000e+000 0.000000e+000 -1.000000e+000
    outer loop
      vertex   -1.017365e+001 1.098481e+001 0.000000e+000
      vertex   -1.062500e+001 1.108253e+001 0.000000e+000
      vertex   -1.000000e+001 1.100000e+001 0.000000e+000
    endloop
  endfacet
  facet normal -0.000000e+000 0.000000e+000 -1.000000e+000
    outer loop
      vertex   -1.017365e+001 1.098481e+001 0.000000e+000
      vertex   -1.034202e+001 1.093969e+001 0.000000e+000
      vertex   -1.062500e+001 1.108253e+001 0.000000e+000
    endloop
  endfacet
  facet normal 0.000000e+000 -0.000000e+000 -1.000000e+000
    outer loop
      vertex   -1.062500e+001 1.108253e+001 0.000000e+000
      vertex   -1.034202e+001 1.093969e+001 0.000000e+000
      vertex   -1.050000e+001 1.086603e+001 0.000000e+000
    endloop
  endfacet
  facet normal 0.000000e+000 -0.000000e+000 -1.000000e+000
    outer loop
      vertex   -1.080348e+001 1.095756e+001 0.000000e+000
      vertex   -1.050000e+001 1.086603e+001 0.000000e+000
      vertex   -1.064279e+001 1.076604e+001 0.000000e+000
    endloop
  endfacet
  facet normal 0.000000e+000 -0.000000e+000 -1.000000e+000
    outer loop
      vertex   -1.095756e+001 1.080348e+001 0.000000e+000
      vertex   -1.064279e+001 1.076604e+001 0.000000e+000
      vertex   -1.076604e+001 1.064279e+001 0.000000e+000
    endloop
  endfacet
  facet normal 0.000000e+000 -0.000000e+000 -1.000000e+000
    outer loop
      vertex   -1.108253e+001 1.062500e+001 0.000000e+000
      vertex   -1.076604e+001 1.064279e+001 0.000000e+000
      vertex   -1.086603e+001 1.050000e+001 0.000000e+000
    endloop
  endfacet
  facet normal 0.000000e+000 -0.000000e+000 -1.000000e+000
    outer loop
      vertex   -1.117462e+001 1.042753e+001 0.000000e+000
      vertex   -1.086603e+001 1.050000e+001 0.000000e+000
      vertex   -1.093969e+001 1.034202e+001 0.000000e+000
    endloop
  endfacet
  facet normal 0.000000e+000 -0.000000e+000 -1.000000e+000
    outer loop
      vertex   -1.123101e+001 1.021706e+001 0.000000e+000
      vertex   -1.093969e+001 1.034202e+001 0.000000e+000
      vertex   -1.098481e+001 1.017365e+001 0.000000e+000
    endloop
  endfacet
  facet normal 0.000000e+000 -0.000000e+000 -1.000000e+000
    outer loop
      vertex   -1.125000e+001 1.000000e+001 0.000000e+000
      vertex   -1.098481e+001 1.017365e+001 0.000000e+000
      vertex   -1.100000e+001 1.000000e+001 0.000000e+000
    endloop
  endfacet
  facet normal 0.000000e+000 -0.000000e+000 -1.000000e+000
    outer loop
      vertex   -1.125000e+001 -1.000000e+001 0.000000e+000
      vertex   -1.100000e+001 1.000000e+001 0.000000e+000
      vertex   -1.100000e+001 -1.000000e+001 0.000000e+000
    endloop
  endfacet
  facet normal 0.000000e+000 0.000000e+000 -1.000000e+000
    outer loop
      vertex   -1.123101e+001 -1.021706e+001 0.000000e+000
      vertex   -1.100000e+001 -1.000000e+001 0.000000e+000
      vertex   -1.098481e+001 -1.017365e+001 0.000000e+000
    endloop
  endfacet
  facet normal 0.000000e+000 0.000000e+000 -1.000000e+000
    outer loop
      vertex   -1.093969e+001 -1.034202e+001 0.000000e+000
      vertex   -1.123101e+001 -1.021706e+001 0.000000e+000
      vertex   -1.098481e+001 -1.017365e+001 0.000000e+000
    endloop
  endfacet
  facet normal -0.000000e+000 0.000000e+000 -1.000000e+000
    outer loop
      vertex   -1.093969e+001 -1.034202e+001 0.000000e+000
      vertex   -1.117462e+001 -1.042753e+001 0.000000e+000
      vertex   -1.123101e+001 -1.021706e+001 0.000000e+000
    endloop
  endfacet
  facet normal -0.000000e+000 -0.000000e+000 -1.000000e+000
    outer loop
      vertex   -1.093969e+001 -1.034202e+001 0.000000e+000
      vertex   -1.086603e+001 -1.050000e+001 0.000000e+000
      vertex   -1.117462e+001 -1.042753e+001 0.000000e+000
    endloop
  endfacet
  facet normal 0.000000e+000 -0.000000e+000 -1.000000e+000
    outer loop
      vertex   -1.117462e+001 -1.042753e+001 0.000000e+000
      vertex   -1.086603e+001 -1.050000e+001 0.000000e+000
      vertex   -1.108253e+001 -1.062500e+001 0.000000e+000
    endloop
  endfacet
  facet normal 0.000000e+000 0.000000e+000 -1.000000e+000
    outer loop
      vertex   -1.108253e+001 -1.062500e+001 0.000000e+000
      vertex   -1.086603e+001 -1.050000e+001 0.000000e+000
      vertex   -1.076604e+001 -1.064279e+001 0.000000e+000
    endloop
  endfacet
  facet normal 0.000000e+000 0.000000e+000 -1.000000e+000
    outer loop
      vertex   -1.095756e+001 -1.080348e+001 0.000000e+000
      vertex   -1.076604e+001 -1.064279e+001 0.000000e+000
      vertex   -1.064279e+001 -1.076604e+001 0.000000e+000
    endloop
  endfacet
  facet normal 0.000000e+000 0.000000e+000 -1.000000e+000
    outer loop
      vertex   -1.080348e+001 -1.095756e+001 0.000000e+000
      vertex   -1.064279e+001 -1.076604e+001 0.000000e+000
      vertex   -1.050000e+001 -1.086603e+001 0.000000e+000
    endloop
  endfacet
  facet normal 0.000000e+000 0.000000e+000 -1.000000e+000
    outer loop
      vertex   -1.062500e+001 -1.108253e+001 0.000000e+000
      vertex   -1.050000e+001 -1.086603e+001 0.000000e+000
      vertex   -1.034202e+001 -1.093969e+001 0.000000e+000
    endloop
  endfacet
  facet normal -0.000000e+000 0.000000e+000 -1.000000e+000
    outer loop
      vertex   -1.017365e+001 -1.098481e+001 0.000000e+000
      vertex   -1.062500e+001 -1.108253e+001 0.000000e+000
      vertex   -1.034202e+001 -1.093969e+001 0.000000e+000
    endloop
  endfacet
  facet normal 0.000000e+000 -0.000000e+000 -1.000000e+000
    outer loop
      vertex   -1.017365e+001 -1.098481e+001 0.000000e+000
      vertex   -1.000000e+001 -1.100000e+001 0.000000e+000
      vertex   -1.062500e+001 -1.108253e+001 0.000000e+000
    endloop
  endfacet
  facet normal 0.000000e+000 0.000000e+000 -1.000000e+000
    outer loop
      vertex   -1.062500e+001 -1.108253e+001 0.000000e+000
      vertex   -1.000000e+001 -1.100000e+001 0.000000e+000
      vertex   1.000000e+001 -1.100000e+001 0.000000e+000
    endloop
  endfacet
  facet normal 0.000000e+000 0.000000e+000 -1.000000e+000
    outer loop
      vertex   1.062500e+001 -1.108253e+001 0.000000e+000
      vertex   1.000000e+001 -1.100000e+001 0.000000e+000
      vertex   1.017365e+001 -1.098481e+001 0.000000e+000
    endloop
  endfacet
  facet normal -0.000000e+000 -0.000000e+000 -1.000000e+000
    outer loop
      vertex   1.034202e+001 -1.093969e+001 0.000000e+000
      vertex   1.062500e+001 -1.108253e+001 0.000000e+000
      vertex   1.017365e+001 -1.098481e+001 0.000000e+000
    endloop
  endfacet
  facet normal 0.000000e+000 0.000000e+000 -1.000000e+000
    outer loop
      vertex   1.034202e+001 -1.093969e+001 0.000000e+000
      vertex   1.050000e+001 -1.086603e+001 0.000000e+000
      vertex   1.062500e+001 -1.108253e+001 0.000000e+000
    endloop
  endfacet
  facet normal 0.000000e+000 0.000000e+000 -1.000000e+000
    outer loop
      vertex   1.062500e+001 -1.108253e+001 0.000000e+000
      vertex   1.050000e+001 -1.086603e+001 0.000000e+000
      vertex   1.080348e+001 -1.095756e+001 0.000000e+000
    endloop
  endfacet
  facet normal 0.000000e+000 0.000000e+000 -1.000000e+000
    outer loop
      vertex   1.080348e+001 -1.095756e+001 0.000000e+000
      vertex   1.050000e+001 -1.086603e+001 0.000000e+000
      vertex   1.064279e+001 -1.076604e+001 0.000000e+000
    endloop
  endfacet
  facet normal 0.000000e+000 0.000000e+000 -1.000000e+000
    outer loop
      vertex   1.095756e+001 -1.080348e+001 0.000000e+000
      vertex   1.064279e+001 -1.076604e+001 0.000000e+000
      vertex   1.076604e+001 -1.064279e+001 0.000000e+000
    endloop
  endfacet
  facet normal -0.000000e+000 0.000000e+000 -1.000000e+000
    outer loop
      vertex   1.108253e+001 -1.062500e+001 0.000000e+000
      vertex   1.076604e+001 -1.064279e+001 0.000000e+000
      vertex   1.086603e+001 -1.050000e+001 0.000000e+000
    endloop
  endfacet
  facet normal -0.000000e+000 0.000000e+000 -1.000000e+000
    outer loop
      vertex   1.117462e+001 -1.042753e+001 0.000000e+000
      vertex   1.086603e+001 -1.050000e+001 0.000000e+000
      vertex   1.093969e+001 -1.034202e+001 0.000000e+000
    endloop
  endfacet
  facet normal -0.000000e+000 0.000000e+000 -1.000000e+000
    outer loop
      vertex   1.123101e+001 -1.021706e+001 0.000000e+000
      vertex   1.093969e+001 -1.034202e+001 0.000000e+000
      vertex   1.098481e+001 -1.017365e+001 0.000000e+000
    endloop
  endfacet
  facet normal -0.000000e+000 0.000000e+000 -1.000000e+000
    outer loop
      vertex   1.125000e+001 -1.000000e+001 0.000000e+000
      vertex   1.098481e+001 -1.017365e+001 0.000000e+000
      vertex   1.100000e+001 -1.000000e+001 0.000000e+000
    endloop
  endfacet
  facet normal -0.000000e+000 0.000000e+000 -1.000000e+000
    outer loop
      vertex   1.125000e+001 1.000000e+001 0.000000e+000
      vertex   1.100000e+001 -1.000000e+001 0.000000e+000
      vertex   1.100000e+001 1.000000e+001 0.000000e+000
    endloop
  endfacet
  facet normal -0.000000e+000 -0.000000e+000 -1.000000e+000
    outer loop
      vertex   1.098481e+001 1.017365e+001 0.000000e+000
      vertex   1.125000e+001 1.000000e+001 0.000000e+000
      vertex   1.100000e+001 1.000000e+001 0.000000e+000
    endloop
  endfacet
  facet normal 0.000000e+000 0.000000e+000 -1.000000e+000
    outer loop
      vertex   1.098481e+001 1.017365e+001 0.000000e+000
      vertex   1.123101e+001 1.021706e+001 0.000000e+000
      vertex   1.125000e+001 1.000000e+001 0.000000e+000
    endloop
  endfacet
  facet normal 0.000000e+000 0.000000e+000 -1.000000e+000
    outer loop
      vertex   1.098481e+001 1.017365e+001 0.000000e+000
      vertex   1.093969e+001 1.034202e+001 0.000000e+000
      vertex   1.123101e+001 1.021706e+001 0.000000e+000
    endloop
  endfacet
  facet normal 0.000000e+000 0.000000e+000 -1.000000e+000
    outer loop
      vertex   1.123101e+001 1.021706e+001 0.000000e+000
      vertex   1.093969e+001 1.034202e+001 0.000000e+000
      vertex   1.117462e+001 1.042753e+001 0.000000e+000
    endloop
  endfacet
  facet normal -0.000000e+000 0.000000e+000 -1.000000e+000
    outer loop
      vertex   1.117462e+001 1.042753e+001 0.000000e+000
      vertex   1.093969e+001 1.034202e+001 0.000000e+000
      vertex   1.086603e+001 1.050000e+001 0.000000e+000
    endloop
  endfacet
  facet normal -0.000000e+000 0.000000e+000 -1.000000e+000
    outer loop
      vertex   1.108253e+001 1.062500e+001 0.000000e+000
      vertex   1.086603e+001 1.050000e+001 0.000000e+000
      vertex   1.076604e+001 1.064279e+001 0.000000e+000
    endloop
  endfacet
  facet normal -0.000000e+000 0.000000e+000 -1.000000e+000
    outer loop
      vertex   1.095756e+001 1.080348e+001 0.000000e+000
      vertex   1.076604e+001 1.064279e+001 0.000000e+000
      vertex   1.064279e+001 1.076604e+001 0.000000e+000
    endloop
  endfacet
  facet normal -0.000000e+000 0.000000e+000 -1.000000e+000
    outer loop
      vertex   1.080348e+001 1.095756e+001 0.000000e+000
      vertex   1.064279e+001 1.076604e+001 0.000000e+000
      vertex   1.050000e+001 1.086603e+001 0.000000e+000
    endloop
  endfacet
  facet normal 0.000000e+000 -0.000000e+000 -1.000000e+000
    outer loop
      vertex   1.062500e+001 1.108253e+001 0.000000e+000
      vertex   1.080348e+001 1.095756e+001 0.000000e+000
      vertex   1.050000e+001 1.086603e+001 0.000000e+000
    endloop
  endfacet
  facet normal 0.000000e+000 -0.000000e+000 -1.000000e+000
    outer loop
      vertex   -1.000000e+001 1.125000e+001 0.000000e+000
      vertex   1.000000e+001 1.125000e+001 0.000000e+000
      vertex   -1.021706e+001 1.123101e+001 0.000000e+000
    endloop
  endfacet
  facet normal 0.000000e+000 0.000000e+000 -1.000000e+000
    outer loop
      vertex   -1.021706e+001 1.123101e+001 0.000000e+000
      vertex   1.000000e+001 1.125000e+001 0.000000e+000
      vertex   1.021706e+001 1.123101e+001 0.000000e+000
    endloop
  endfacet
  facet normal 0.000000e+000 0.000000e+000 -1.000000e+000
    outer loop
      vertex   -1.042753e+001 1.117462e+001 0.000000e+000
      vertex   1.021706e+001 1.123101e+001 0.000000e+000
      vertex   1.042753e+001 1.117462e+001 0.000000e+000
    endloop
  endfacet
  facet normal 0.000000e+000 0.000000e+000 -1.000000e+000
    outer loop
      vertex   -1.062500e+001 1.108253e+001 0.000000e+000
      vertex   1.042753e+001 1.117462e+001 0.000000e+000
      vertex   1.062500e+001 1.108253e+001 0.000000e+000
    endloop
  endfacet
  facet normal 0.000000e+000 -0.000000e+000 -1.000000e+000
    outer loop
      vertex   -1.000000e+001 1.100000e+001 0.000000e+000
      vertex   1.062500e+001 1.108253e+001 0.000000e+000
      vertex   1.000000e+001 1.100000e+001 0.000000e+000
    endloop
  endfacet
  facet normal 0.000000e+000 0.000000e+000 -1.000000e+000
    outer loop
      vertex   -1.000000e+001 1.100000e+001 0.000000e+000
      vertex   -1.062500e+001 1.108253e+001 0.000000e+000
      vertex   1.062500e+001 1.108253e+001 0.000000e+000
    endloop
  endfacet
  facet normal 0.000000e+000 -0.000000e+000 -1.000000e+000
    outer loop
      vertex   1.080348e+001 1.095756e+001 0.000000e+000
      vertex   1.095756e+001 1.080348e+001 0.000000e+000
      vertex   1.064279e+001 1.076604e+001 0.000000e+000
    endloop
  endfacet
  facet normal -0.000000e+000 -0.000000e+000 -1.000000e+000
    outer loop
      vertex   1.095756e+001 1.080348e+001 0.000000e+000
      vertex   1.108253e+001 1.062500e+001 0.000000e+000
      vertex   1.076604e+001 1.064279e+001 0.000000e+000
    endloop
  endfacet
  facet normal -0.000000e+000 -0.000000e+000 -1.000000e+000
    outer loop
      vertex   1.108253e+001 1.062500e+001 0.000000e+000
      vertex   1.117462e+001 1.042753e+001 0.000000e+000
      vertex   1.086603e+001 1.050000e+001 0.000000e+000
    endloop
  endfacet
  facet normal -0.000000e+000 -0.000000e+000 -1.000000e+000
    outer loop
      vertex   1.125000e+001 1.000000e+001 0.000000e+000
      vertex   1.125000e+001 -1.000000e+001 0.000000e+000
      vertex   1.100000e+001 -1.000000e+001 0.000000e+000
    endloop
  endfacet
  facet normal -0.000000e+000 0.000000e+000 -1.000000e+000
    outer loop
      vertex   1.125000e+001 -1.000000e+001 0.000000e+000
      vertex   1.123101e+001 -1.021706e+001 0.000000e+000
      vertex   1.098481e+001 -1.017365e+001 0.000000e+000
    endloop
  endfacet
  facet normal -0.000000e+000 0.000000e+000 -1.000000e+000
    outer loop
      vertex   1.123101e+001 -1.021706e+001 0.000000e+000
      vertex   1.117462e+001 -1.042753e+001 0.000000e+000
      vertex   1.093969e+001 -1.034202e+001 0.000000e+000
    endloop
  endfacet
  facet normal -0.000000e+000 0.000000e+000 -1.000000e+000
    outer loop
      vertex   1.117462e+001 -1.042753e+001 0.000000e+000
      vertex   1.108253e+001 -1.062500e+001 0.000000e+000
      vertex   1.086603e+001 -1.050000e+001 0.000000e+000
    endloop
  endfacet
  facet normal -0.000000e+000 0.000000e+000 -1.000000e+000
    outer loop
      vertex   1.108253e+001 -1.062500e+001 0.000000e+000
      vertex   1.095756e+001 -1.080348e+001 0.000000e+000
      vertex   1.076604e+001 -1.064279e+001 0.000000e+000
    endloop
  endfacet
  facet normal -0.000000e+000 0.000000e+000 -1.000000e+000
    outer loop
      vertex   1.095756e+001 -1.080348e+001 0.000000e+000
      vertex   1.080348e+001 -1.095756e+001 0.000000e+000
      vertex   1.064279e+001 -1.076604e+001 0.000000e+000
    endloop
  endfacet
  facet normal 0.000000e+000 0.000000e+000 -1.000000e+000
    outer loop
      vertex   1.000000e+001 -1.125000e+001 0.000000e+000
      vertex   -1.000000e+001 -1.125000e+001 0.000000e+000
      vertex   1.021706e+001 -1.123101e+001 0.000000e+000
    endloop
  endfacet
  facet normal -0.000000e+000 0.000000e+000 -1.000000e+000
    outer loop
      vertex   1.021706e+001 -1.123101e+001 0.000000e+000
      vertex   -1.000000e+001 -1.125000e+001 0.000000e+000
      vertex   -1.021706e+001 -1.123101e+001 0.000000e+000
    endloop
  endfacet
  facet normal -0.000000e+000 0.000000e+000 -1.000000e+000
    outer loop
      vertex   1.042753e+001 -1.117462e+001 0.000000e+000
      vertex   -1.021706e+001 -1.123101e+001 0.000000e+000
      vertex   -1.042753e+001 -1.117462e+001 0.000000e+000
    endloop
  endfacet
  facet normal -0.000000e+000 0.000000e+000 -1.000000e+000
    outer loop
      vertex   1.062500e+001 -1.108253e+001 0.000000e+000
      vertex   -1.042753e+001 -1.117462e+001 0.000000e+000
      vertex   -1.062500e+001 -1.108253e+001 0.000000e+000
    endloop
  endfacet
  facet normal -0.000000e+000 -0.000000e+000 -1.000000e+000
    outer loop
      vertex   1.000000e+001 -1.100000e+001 0.000000e+000
      vertex   1.062500e+001 -1.108253e+001 0.000000e+000
      vertex   -1.062500e+001 -1.108253e+001 0.000000e+000
    endloop
  endfacet
  facet normal -0.000000e+000 0.000000e+000 -1.000000e+000
    outer loop
      vertex   1.042753e+001 -1.117462e+001 0.000000e+000
      vertex   1.021706e+001 -1.123101e+001 0.000000e+000
      vertex   -1.021706e+001 -1.123101e+001 0.000000e+000
    endloop
  endfacet
  facet normal 0.000000e+000 0.000000e+000 -1.000000e+000
    outer loop
      vertex   -1.062500e+001 -1.108253e+001 0.000000e+000
      vertex   -1.080348e+001 -1.095756e+001 0.000000e+000
      vertex   -1.050000e+001 -1.086603e+001 0.000000e+000
    endloop
  endfacet
  facet normal 0.000000e+000 0.000000e+000 -1.000000e+000
    outer loop
      vertex   -1.080348e+001 -1.095756e+001 0.000000e+000
      vertex   -1.095756e+001 -1.080348e+001 0.000000e+000
      vertex   -1.064279e+001 -1.076604e+001 0.000000e+000
    endloop
  endfacet
  facet normal 0.000000e+000 0.000000e+000 -1.000000e+000
    outer loop
      vertex   -1.095756e+001 -1.080348e+001 0.000000e+000
      vertex   -1.108253e+001 -1.062500e+001 0.000000e+000
      vertex   -1.076604e+001 -1.064279e+001 0.000000e+000
    endloop
  endfacet
  facet normal 0.000000e+000 0.000000e+000 -1.000000e+000
    outer loop
      vertex   -1.123101e+001 -1.021706e+001 0.000000e+000
      vertex   -1.125000e+001 -1.000000e+001 0.000000e+000
      vertex   -1.100000e+001 -1.000000e+001 0.000000e+000
    endloop
  endfacet
  facet normal 0.000000e+000 0.000000e+000 -1.000000e+000
    outer loop
      vertex   -1.125000e+001 -1.000000e+001 0.000000e+000
      vertex   -1.125000e+001 1.000000e+001 0.000000e+000
      vertex   -1.100000e+001 1.000000e+001 0.000000e+000
    endloop
  endfacet
  facet normal 0.000000e+000 0.000000e+000 -1.000000e+000
    outer loop
      vertex   -1.125000e+001 1.000000e+001 0.000000e+000
      vertex   -1.123101e+001 1.021706e+001 0.000000e+000
      vertex   -1.098481e+001 1.017365e+001 0.000000e+000
    endloop
  endfacet
  facet normal 0.000000e+000 0.000000e+000 -1.000000e+000
    outer loop
      vertex   -1.123101e+001 1.021706e+001 0.000000e+000
      vertex   -1.117462e+001 1.042753e+001 0.000000e+000
      vertex   -1.093969e+001 1.034202e+001 0.000000e+000
    endloop
  endfacet
  facet normal 0.000000e+000 0.000000e+000 -1.000000e+000
    outer loop
      vertex   -1.117462e+001 1.042753e+001 0.000000e+000
      vertex   -1.108253e+001 1.062500e+001 0.000000e+000
      vertex   -1.086603e+001 1.050000e+001 0.000000e+000
    endloop
  endfacet
  facet normal 0.000000e+000 0.000000e+000 -1.000000e+000
    outer loop
      vertex   -1.108253e+001 1.062500e+001 0.000000e+000
      vertex   -1.095756e+001 1.080348e+001 0.000000e+000
      vertex   -1.076604e+001 1.064279e+001 0.000000e+000
    endloop
  endfacet
  facet normal 0.000000e+000 0.000000e+000 -1.000000e+000
    outer loop
      vertex   -1.095756e+001 1.080348e+001 0.000000e+000
      vertex   -1.080348e+001 1.095756e+001 0.000000e+000
      vertex   -1.064279e+001 1.076604e+001 0.000000e+000
    endloop
  endfacet
  facet normal 0.000000e+000 0.000000e+000 -1.000000e+000
    outer loop
      vertex   -1.080348e+001 1.095756e+001 0.000000e+000
      vertex   -1.062500e+001 1.108253e+001 0.000000e+000
      vertex   -1.050000e+001 1.086603e+001 0.000000e+000
    endloop
  endfacet
  facet normal 0.000000e+000 0.000000e+000 -1.000000e+000
    outer loop
      vertex   -1.062500e+001 1.108253e+001 0.000000e+000
      vertex   -1.042753e+001 1.117462e+001 0.000000e+000
      vertex   1.042753e+001 1.117462e+001 0.000000e+000
    endloop
  endfacet
  facet normal 0.000000e+000 0.000000e+000 -1.000000e+000
    outer loop
      vertex   -1.042753e+001 1.117462e+001 0.000000e+000
      vertex   -1.021706e+001 1.123101e+001 0.000000e+000
      vertex   1.021706e+001 1.123101e+001 0.000000e+000
    endloop
  endfacet
  facet normal 0.000000e+000 0.000000e+000 -1.000000e+000
    outer loop
      vertex   1.042753e+001 -1.117462e+001 0.000000e+000
      vertex   -1.042753e+001 -1.117462e+001 0.000000e+000
      vertex   1.062500e+001 -1.108253e+001 0.000000e+000
    endloop
  endfacet
endsolid
